G04 #@! TF.GenerationSoftware,KiCad,Pcbnew,5.1.2+dfsg1-1*
G04 #@! TF.CreationDate,2019-08-07T20:01:01+08:00*
G04 #@! TF.ProjectId,LCD_MINI,4c43445f-4d49-44e4-992e-6b696361645f,rev?*
G04 #@! TF.SameCoordinates,Original*
G04 #@! TF.FileFunction,Legend,Bot*
G04 #@! TF.FilePolarity,Positive*
%FSLAX46Y46*%
G04 Gerber Fmt 4.6, Leading zero omitted, Abs format (unit mm)*
G04 Created by KiCad (PCBNEW 5.1.2+dfsg1-1) date 2019-08-07 20:01:01*
%MOMM*%
%LPD*%
G04 APERTURE LIST*
%ADD10C,0.010000*%
%ADD11C,0.120000*%
%ADD12C,0.150000*%
G04 APERTURE END LIST*
D10*
G36*
X153924430Y-114135152D02*
G01*
X153923811Y-114048069D01*
X153472086Y-113589109D01*
X153020361Y-113130148D01*
X153020032Y-112919529D01*
X153019703Y-112708911D01*
X152744610Y-112708911D01*
X152737522Y-112655470D01*
X152734838Y-112631112D01*
X152730313Y-112585241D01*
X152724191Y-112520595D01*
X152716712Y-112439909D01*
X152708119Y-112345919D01*
X152698654Y-112241363D01*
X152688558Y-112128975D01*
X152678074Y-112011493D01*
X152667444Y-111891652D01*
X152656909Y-111772189D01*
X152646713Y-111655841D01*
X152637095Y-111545343D01*
X152628300Y-111443431D01*
X152620568Y-111352842D01*
X152614142Y-111276313D01*
X152609263Y-111216579D01*
X152606175Y-111176376D01*
X152605117Y-111158441D01*
X152605118Y-111158356D01*
X152612827Y-111143965D01*
X152635981Y-111114252D01*
X152674895Y-111068869D01*
X152729884Y-111007471D01*
X152801264Y-110929712D01*
X152889349Y-110835246D01*
X152994454Y-110723728D01*
X153116895Y-110594812D01*
X153151310Y-110558713D01*
X153697137Y-109986584D01*
X153608881Y-109898564D01*
X153537485Y-109976242D01*
X153511366Y-110004314D01*
X153470566Y-110047726D01*
X153417777Y-110103634D01*
X153355691Y-110169192D01*
X153287000Y-110241559D01*
X153214396Y-110317888D01*
X153170960Y-110363476D01*
X153089416Y-110448881D01*
X153023504Y-110517290D01*
X152971544Y-110569947D01*
X152931855Y-110608095D01*
X152902757Y-110632980D01*
X152882569Y-110645844D01*
X152869610Y-110647932D01*
X152862200Y-110640487D01*
X152858658Y-110624754D01*
X152857303Y-110601977D01*
X152857121Y-110595761D01*
X152847703Y-110552939D01*
X152824497Y-110501181D01*
X152792136Y-110448672D01*
X152755252Y-110403597D01*
X152740493Y-110389672D01*
X152664767Y-110340953D01*
X152576308Y-110313694D01*
X152498100Y-110307227D01*
X152409468Y-110319424D01*
X152327612Y-110355187D01*
X152255164Y-110413278D01*
X152241797Y-110427738D01*
X152192918Y-110483267D01*
X151347326Y-110483267D01*
X151347326Y-110307227D01*
X151120990Y-110307227D01*
X151120990Y-110389469D01*
X151118150Y-110445614D01*
X151108607Y-110484584D01*
X151097009Y-110505781D01*
X151088723Y-110520948D01*
X151081627Y-110542938D01*
X151075252Y-110575013D01*
X151069128Y-110620431D01*
X151062784Y-110682452D01*
X151055750Y-110764338D01*
X151050934Y-110825254D01*
X151028839Y-111110657D01*
X150486435Y-110561195D01*
X150388363Y-110461772D01*
X150294216Y-110366185D01*
X150205715Y-110276190D01*
X150124580Y-110193543D01*
X150052531Y-110119999D01*
X149991288Y-110057316D01*
X149942573Y-110007248D01*
X149908104Y-109971552D01*
X149889621Y-109952005D01*
X149859257Y-109921056D01*
X149833929Y-109899470D01*
X149820305Y-109892277D01*
X149802905Y-109900703D01*
X149777540Y-109921755D01*
X149768942Y-109930329D01*
X149732486Y-109968380D01*
X149933198Y-110172342D01*
X149984404Y-110224301D01*
X150050431Y-110291180D01*
X150128382Y-110370050D01*
X150215362Y-110457986D01*
X150308474Y-110552059D01*
X150404821Y-110649342D01*
X150501508Y-110746907D01*
X150570866Y-110816855D01*
X150676297Y-110923450D01*
X150764871Y-111013693D01*
X150837719Y-111088808D01*
X150895977Y-111150014D01*
X150940775Y-111198534D01*
X150962979Y-111223871D01*
X151141276Y-111223871D01*
X151163599Y-110938445D01*
X151170331Y-110854781D01*
X151176843Y-110778273D01*
X151182766Y-110712919D01*
X151187732Y-110662719D01*
X151191371Y-110631671D01*
X151192542Y-110624727D01*
X151199162Y-110596435D01*
X152148636Y-110596435D01*
X152154974Y-110675394D01*
X152174110Y-110768685D01*
X152214154Y-110851209D01*
X152272582Y-110919962D01*
X152346871Y-110971937D01*
X152430252Y-111003137D01*
X152457302Y-111017772D01*
X152470844Y-111049181D01*
X152471128Y-111050566D01*
X152472753Y-111063826D01*
X152470744Y-111077405D01*
X152463142Y-111093819D01*
X152447984Y-111115589D01*
X152423312Y-111145233D01*
X152387164Y-111185268D01*
X152337580Y-111238215D01*
X152272599Y-111306591D01*
X152268401Y-111310995D01*
X152198507Y-111384389D01*
X152124200Y-111462563D01*
X152050586Y-111540136D01*
X151982771Y-111611725D01*
X151925860Y-111671949D01*
X151913168Y-111685413D01*
X151864513Y-111736180D01*
X151821291Y-111779625D01*
X151786605Y-111812759D01*
X151763556Y-111832595D01*
X151755818Y-111836954D01*
X151744278Y-111827830D01*
X151717290Y-111802800D01*
X151676979Y-111763948D01*
X151625471Y-111713357D01*
X151564891Y-111653112D01*
X151497364Y-111585296D01*
X151442174Y-111529435D01*
X151141276Y-111223871D01*
X150962979Y-111223871D01*
X150973249Y-111235589D01*
X150994529Y-111262401D01*
X151005749Y-111280192D01*
X151008246Y-111288430D01*
X151007300Y-111306410D01*
X151004427Y-111347108D01*
X150999813Y-111408181D01*
X150993642Y-111487287D01*
X150986102Y-111582086D01*
X150977379Y-111690233D01*
X150967657Y-111809388D01*
X150957124Y-111937209D01*
X150948635Y-112039365D01*
X150900604Y-112615326D01*
X151024195Y-112615326D01*
X151024727Y-112602896D01*
X151027231Y-112567890D01*
X151031504Y-112512785D01*
X151037347Y-112440057D01*
X151044557Y-112352186D01*
X151052934Y-112251649D01*
X151062277Y-112140923D01*
X151071242Y-112035795D01*
X151081398Y-111916517D01*
X151090858Y-111803920D01*
X151099404Y-111700695D01*
X151106821Y-111609527D01*
X151112892Y-111533105D01*
X151117399Y-111474117D01*
X151120127Y-111435251D01*
X151120884Y-111420156D01*
X151122065Y-111410762D01*
X151126744Y-111407034D01*
X151136724Y-111410529D01*
X151153810Y-111422801D01*
X151179804Y-111445406D01*
X151216510Y-111479900D01*
X151265733Y-111527838D01*
X151329274Y-111590776D01*
X151396695Y-111658032D01*
X151672399Y-111933523D01*
X151670467Y-111935594D01*
X151852710Y-111935594D01*
X151861016Y-111924220D01*
X151884267Y-111897437D01*
X151920135Y-111857708D01*
X151966287Y-111807493D01*
X152020394Y-111749254D01*
X152080126Y-111685453D01*
X152143152Y-111618551D01*
X152207142Y-111551010D01*
X152269764Y-111485290D01*
X152328690Y-111423854D01*
X152381588Y-111369163D01*
X152426128Y-111323678D01*
X152459980Y-111289862D01*
X152480812Y-111270174D01*
X152486494Y-111266163D01*
X152488366Y-111279109D01*
X152492254Y-111314866D01*
X152497943Y-111371196D01*
X152505219Y-111445860D01*
X152513869Y-111536620D01*
X152523678Y-111641238D01*
X152534434Y-111757474D01*
X152545921Y-111883092D01*
X152555093Y-111984382D01*
X152566826Y-112115721D01*
X152577665Y-112239448D01*
X152587430Y-112353319D01*
X152595937Y-112455089D01*
X152603005Y-112542513D01*
X152608451Y-112613347D01*
X152612092Y-112665347D01*
X152613747Y-112696268D01*
X152613558Y-112704297D01*
X152603666Y-112697146D01*
X152578476Y-112674159D01*
X152540190Y-112637561D01*
X152491011Y-112589578D01*
X152433139Y-112532434D01*
X152368778Y-112468353D01*
X152300129Y-112399562D01*
X152229395Y-112328284D01*
X152158778Y-112256745D01*
X152090480Y-112187170D01*
X152026704Y-112121783D01*
X151969650Y-112062809D01*
X151921522Y-112012473D01*
X151884522Y-111973001D01*
X151860852Y-111946617D01*
X151852710Y-111935594D01*
X151670467Y-111935594D01*
X151569591Y-112043705D01*
X151517232Y-112099623D01*
X151458465Y-112162052D01*
X151395615Y-112228557D01*
X151331005Y-112296702D01*
X151266958Y-112364052D01*
X151205797Y-112428172D01*
X151149847Y-112486628D01*
X151101430Y-112536982D01*
X151062870Y-112576802D01*
X151036491Y-112603650D01*
X151024616Y-112615092D01*
X151024195Y-112615326D01*
X150900604Y-112615326D01*
X150888599Y-112759274D01*
X150288062Y-113390842D01*
X149687525Y-114022411D01*
X149687966Y-114110685D01*
X149688408Y-114198960D01*
X149785417Y-114095334D01*
X149839709Y-114037537D01*
X149903808Y-113969632D01*
X149975984Y-113893428D01*
X150054508Y-113810731D01*
X150137651Y-113723347D01*
X150223681Y-113633085D01*
X150310870Y-113541750D01*
X150397487Y-113451151D01*
X150481803Y-113363093D01*
X150562088Y-113279385D01*
X150636613Y-113201833D01*
X150703646Y-113132243D01*
X150761459Y-113072424D01*
X150808321Y-113024182D01*
X150842504Y-112989324D01*
X150862276Y-112969657D01*
X150866610Y-112965884D01*
X150866908Y-112979008D01*
X150865269Y-113012611D01*
X150861977Y-113062120D01*
X150857318Y-113122963D01*
X150855318Y-113147268D01*
X150840423Y-113325049D01*
X150957045Y-113325049D01*
X150963066Y-113296757D01*
X150966137Y-113274382D01*
X150970452Y-113232283D01*
X150975512Y-113175822D01*
X150980819Y-113110365D01*
X150982656Y-113086138D01*
X150988073Y-113016579D01*
X150993541Y-112951982D01*
X150998512Y-112898452D01*
X151002439Y-112862090D01*
X151003325Y-112855491D01*
X151006666Y-112841944D01*
X151013899Y-112826086D01*
X151026560Y-112806139D01*
X151046189Y-112780327D01*
X151074322Y-112746871D01*
X151112498Y-112703993D01*
X151162254Y-112649917D01*
X151225129Y-112582864D01*
X151302659Y-112501057D01*
X151381749Y-112418050D01*
X151460436Y-112335906D01*
X151533888Y-112259831D01*
X151600276Y-112191675D01*
X151657773Y-112133288D01*
X151704549Y-112086519D01*
X151738776Y-112053218D01*
X151758627Y-112035233D01*
X151762860Y-112032558D01*
X151773997Y-112042259D01*
X151800029Y-112067559D01*
X151838430Y-112105918D01*
X151886672Y-112154800D01*
X151942230Y-112211666D01*
X151982408Y-112253094D01*
X152192169Y-112470000D01*
X151573663Y-112470000D01*
X151573663Y-112708911D01*
X152328119Y-112708911D01*
X152328119Y-112602458D01*
X152466435Y-112740346D01*
X152564553Y-112838160D01*
X152755643Y-112838160D01*
X152757471Y-112822730D01*
X152766723Y-112814133D01*
X152789050Y-112810387D01*
X152830105Y-112809511D01*
X152837376Y-112809505D01*
X152919109Y-112809505D01*
X152919109Y-113028828D01*
X152837376Y-112947821D01*
X152791270Y-112898572D01*
X152763694Y-112860841D01*
X152755643Y-112838160D01*
X152564553Y-112838160D01*
X152604752Y-112878234D01*
X152604752Y-113001048D01*
X152605137Y-113057550D01*
X152606900Y-113093495D01*
X152610950Y-113113470D01*
X152618199Y-113122063D01*
X152629130Y-113123861D01*
X152641288Y-113126502D01*
X152650273Y-113137088D01*
X152657174Y-113159619D01*
X152663076Y-113198091D01*
X152669065Y-113256502D01*
X152670987Y-113277896D01*
X152675148Y-113325049D01*
X150957045Y-113325049D01*
X150840423Y-113325049D01*
X150680891Y-113325049D01*
X150680891Y-113438218D01*
X150748686Y-113438218D01*
X150788338Y-113439304D01*
X150809884Y-113444546D01*
X150812520Y-113447666D01*
X150951384Y-113447666D01*
X150958692Y-113440538D01*
X150984007Y-113438338D01*
X151001092Y-113438218D01*
X151058119Y-113438218D01*
X151270779Y-113438218D01*
X152685302Y-113438218D01*
X152637458Y-113487214D01*
X152563150Y-113547676D01*
X152471184Y-113594309D01*
X152360002Y-113627751D01*
X152249529Y-113646247D01*
X152177227Y-113654878D01*
X152177227Y-113563960D01*
X151598812Y-113563960D01*
X151598812Y-113667107D01*
X151513935Y-113658504D01*
X151454632Y-113651244D01*
X151391449Y-113641621D01*
X151353614Y-113634748D01*
X151278168Y-113619593D01*
X151274474Y-113528905D01*
X151270779Y-113438218D01*
X151058119Y-113438218D01*
X151058119Y-113488515D01*
X151056456Y-113520024D01*
X151052303Y-113537537D01*
X151050629Y-113538812D01*
X151032013Y-113530746D01*
X151004817Y-113511180D01*
X150977552Y-113487056D01*
X150958733Y-113465318D01*
X150957057Y-113462492D01*
X150951384Y-113447666D01*
X150812520Y-113447666D01*
X150820338Y-113456919D01*
X150824558Y-113470396D01*
X150841781Y-113505373D01*
X150874862Y-113547421D01*
X150918107Y-113590644D01*
X150965826Y-113629146D01*
X150997170Y-113649199D01*
X151032877Y-113671149D01*
X151051181Y-113689589D01*
X151057612Y-113711332D01*
X151058106Y-113724282D01*
X151058106Y-113727425D01*
X151699406Y-113727425D01*
X151699406Y-113664554D01*
X152076633Y-113664554D01*
X152076633Y-113727425D01*
X151699406Y-113727425D01*
X151058106Y-113727425D01*
X151058119Y-113765148D01*
X151163952Y-113765148D01*
X151212645Y-113763971D01*
X151250595Y-113760835D01*
X151271692Y-113756329D01*
X151273977Y-113754505D01*
X151287359Y-113751705D01*
X151319926Y-113752852D01*
X151366084Y-113757607D01*
X151397624Y-113761997D01*
X151454812Y-113770622D01*
X151507114Y-113778409D01*
X151546418Y-113784153D01*
X151557945Y-113785785D01*
X151588063Y-113795112D01*
X151598812Y-113809728D01*
X151602080Y-113815680D01*
X151613770Y-113820222D01*
X151636712Y-113823530D01*
X151673735Y-113825785D01*
X151727668Y-113827166D01*
X151801340Y-113827850D01*
X151888020Y-113828020D01*
X151980529Y-113827923D01*
X152050906Y-113827470D01*
X152102164Y-113826410D01*
X152137320Y-113824497D01*
X152159389Y-113821481D01*
X152171385Y-113817115D01*
X152176324Y-113811151D01*
X152177227Y-113804216D01*
X152184921Y-113782205D01*
X152210121Y-113769679D01*
X152256009Y-113765212D01*
X152264264Y-113765148D01*
X152341973Y-113757132D01*
X152430233Y-113735064D01*
X152521085Y-113701916D01*
X152606570Y-113660661D01*
X152678726Y-113614269D01*
X152688072Y-113606918D01*
X152718533Y-113583002D01*
X152736572Y-113573424D01*
X152749169Y-113576520D01*
X152762100Y-113589296D01*
X152800293Y-113614322D01*
X152849998Y-113623929D01*
X152903524Y-113618933D01*
X152953178Y-113600149D01*
X152991267Y-113568394D01*
X152994025Y-113564703D01*
X153022526Y-113505425D01*
X153027828Y-113444066D01*
X153010518Y-113385573D01*
X152971180Y-113334896D01*
X152966370Y-113330711D01*
X152938440Y-113310833D01*
X152910102Y-113302079D01*
X152870263Y-113301447D01*
X152860311Y-113302008D01*
X152821332Y-113303438D01*
X152801254Y-113300161D01*
X152793985Y-113290272D01*
X152793240Y-113281039D01*
X152791716Y-113254256D01*
X152787935Y-113213975D01*
X152785218Y-113189876D01*
X152781277Y-113151599D01*
X152782916Y-113132004D01*
X152792421Y-113124842D01*
X152809351Y-113123861D01*
X152819392Y-113127099D01*
X152835590Y-113137580D01*
X152859145Y-113156452D01*
X152891257Y-113184865D01*
X152933128Y-113223965D01*
X152985957Y-113274903D01*
X153050945Y-113338827D01*
X153129291Y-113416886D01*
X153222197Y-113510228D01*
X153330863Y-113620002D01*
X153383231Y-113673048D01*
X153925049Y-114222233D01*
X153924430Y-114135152D01*
X153924430Y-114135152D01*
G37*
X153924430Y-114135152D02*
X153923811Y-114048069D01*
X153472086Y-113589109D01*
X153020361Y-113130148D01*
X153020032Y-112919529D01*
X153019703Y-112708911D01*
X152744610Y-112708911D01*
X152737522Y-112655470D01*
X152734838Y-112631112D01*
X152730313Y-112585241D01*
X152724191Y-112520595D01*
X152716712Y-112439909D01*
X152708119Y-112345919D01*
X152698654Y-112241363D01*
X152688558Y-112128975D01*
X152678074Y-112011493D01*
X152667444Y-111891652D01*
X152656909Y-111772189D01*
X152646713Y-111655841D01*
X152637095Y-111545343D01*
X152628300Y-111443431D01*
X152620568Y-111352842D01*
X152614142Y-111276313D01*
X152609263Y-111216579D01*
X152606175Y-111176376D01*
X152605117Y-111158441D01*
X152605118Y-111158356D01*
X152612827Y-111143965D01*
X152635981Y-111114252D01*
X152674895Y-111068869D01*
X152729884Y-111007471D01*
X152801264Y-110929712D01*
X152889349Y-110835246D01*
X152994454Y-110723728D01*
X153116895Y-110594812D01*
X153151310Y-110558713D01*
X153697137Y-109986584D01*
X153608881Y-109898564D01*
X153537485Y-109976242D01*
X153511366Y-110004314D01*
X153470566Y-110047726D01*
X153417777Y-110103634D01*
X153355691Y-110169192D01*
X153287000Y-110241559D01*
X153214396Y-110317888D01*
X153170960Y-110363476D01*
X153089416Y-110448881D01*
X153023504Y-110517290D01*
X152971544Y-110569947D01*
X152931855Y-110608095D01*
X152902757Y-110632980D01*
X152882569Y-110645844D01*
X152869610Y-110647932D01*
X152862200Y-110640487D01*
X152858658Y-110624754D01*
X152857303Y-110601977D01*
X152857121Y-110595761D01*
X152847703Y-110552939D01*
X152824497Y-110501181D01*
X152792136Y-110448672D01*
X152755252Y-110403597D01*
X152740493Y-110389672D01*
X152664767Y-110340953D01*
X152576308Y-110313694D01*
X152498100Y-110307227D01*
X152409468Y-110319424D01*
X152327612Y-110355187D01*
X152255164Y-110413278D01*
X152241797Y-110427738D01*
X152192918Y-110483267D01*
X151347326Y-110483267D01*
X151347326Y-110307227D01*
X151120990Y-110307227D01*
X151120990Y-110389469D01*
X151118150Y-110445614D01*
X151108607Y-110484584D01*
X151097009Y-110505781D01*
X151088723Y-110520948D01*
X151081627Y-110542938D01*
X151075252Y-110575013D01*
X151069128Y-110620431D01*
X151062784Y-110682452D01*
X151055750Y-110764338D01*
X151050934Y-110825254D01*
X151028839Y-111110657D01*
X150486435Y-110561195D01*
X150388363Y-110461772D01*
X150294216Y-110366185D01*
X150205715Y-110276190D01*
X150124580Y-110193543D01*
X150052531Y-110119999D01*
X149991288Y-110057316D01*
X149942573Y-110007248D01*
X149908104Y-109971552D01*
X149889621Y-109952005D01*
X149859257Y-109921056D01*
X149833929Y-109899470D01*
X149820305Y-109892277D01*
X149802905Y-109900703D01*
X149777540Y-109921755D01*
X149768942Y-109930329D01*
X149732486Y-109968380D01*
X149933198Y-110172342D01*
X149984404Y-110224301D01*
X150050431Y-110291180D01*
X150128382Y-110370050D01*
X150215362Y-110457986D01*
X150308474Y-110552059D01*
X150404821Y-110649342D01*
X150501508Y-110746907D01*
X150570866Y-110816855D01*
X150676297Y-110923450D01*
X150764871Y-111013693D01*
X150837719Y-111088808D01*
X150895977Y-111150014D01*
X150940775Y-111198534D01*
X150962979Y-111223871D01*
X151141276Y-111223871D01*
X151163599Y-110938445D01*
X151170331Y-110854781D01*
X151176843Y-110778273D01*
X151182766Y-110712919D01*
X151187732Y-110662719D01*
X151191371Y-110631671D01*
X151192542Y-110624727D01*
X151199162Y-110596435D01*
X152148636Y-110596435D01*
X152154974Y-110675394D01*
X152174110Y-110768685D01*
X152214154Y-110851209D01*
X152272582Y-110919962D01*
X152346871Y-110971937D01*
X152430252Y-111003137D01*
X152457302Y-111017772D01*
X152470844Y-111049181D01*
X152471128Y-111050566D01*
X152472753Y-111063826D01*
X152470744Y-111077405D01*
X152463142Y-111093819D01*
X152447984Y-111115589D01*
X152423312Y-111145233D01*
X152387164Y-111185268D01*
X152337580Y-111238215D01*
X152272599Y-111306591D01*
X152268401Y-111310995D01*
X152198507Y-111384389D01*
X152124200Y-111462563D01*
X152050586Y-111540136D01*
X151982771Y-111611725D01*
X151925860Y-111671949D01*
X151913168Y-111685413D01*
X151864513Y-111736180D01*
X151821291Y-111779625D01*
X151786605Y-111812759D01*
X151763556Y-111832595D01*
X151755818Y-111836954D01*
X151744278Y-111827830D01*
X151717290Y-111802800D01*
X151676979Y-111763948D01*
X151625471Y-111713357D01*
X151564891Y-111653112D01*
X151497364Y-111585296D01*
X151442174Y-111529435D01*
X151141276Y-111223871D01*
X150962979Y-111223871D01*
X150973249Y-111235589D01*
X150994529Y-111262401D01*
X151005749Y-111280192D01*
X151008246Y-111288430D01*
X151007300Y-111306410D01*
X151004427Y-111347108D01*
X150999813Y-111408181D01*
X150993642Y-111487287D01*
X150986102Y-111582086D01*
X150977379Y-111690233D01*
X150967657Y-111809388D01*
X150957124Y-111937209D01*
X150948635Y-112039365D01*
X150900604Y-112615326D01*
X151024195Y-112615326D01*
X151024727Y-112602896D01*
X151027231Y-112567890D01*
X151031504Y-112512785D01*
X151037347Y-112440057D01*
X151044557Y-112352186D01*
X151052934Y-112251649D01*
X151062277Y-112140923D01*
X151071242Y-112035795D01*
X151081398Y-111916517D01*
X151090858Y-111803920D01*
X151099404Y-111700695D01*
X151106821Y-111609527D01*
X151112892Y-111533105D01*
X151117399Y-111474117D01*
X151120127Y-111435251D01*
X151120884Y-111420156D01*
X151122065Y-111410762D01*
X151126744Y-111407034D01*
X151136724Y-111410529D01*
X151153810Y-111422801D01*
X151179804Y-111445406D01*
X151216510Y-111479900D01*
X151265733Y-111527838D01*
X151329274Y-111590776D01*
X151396695Y-111658032D01*
X151672399Y-111933523D01*
X151670467Y-111935594D01*
X151852710Y-111935594D01*
X151861016Y-111924220D01*
X151884267Y-111897437D01*
X151920135Y-111857708D01*
X151966287Y-111807493D01*
X152020394Y-111749254D01*
X152080126Y-111685453D01*
X152143152Y-111618551D01*
X152207142Y-111551010D01*
X152269764Y-111485290D01*
X152328690Y-111423854D01*
X152381588Y-111369163D01*
X152426128Y-111323678D01*
X152459980Y-111289862D01*
X152480812Y-111270174D01*
X152486494Y-111266163D01*
X152488366Y-111279109D01*
X152492254Y-111314866D01*
X152497943Y-111371196D01*
X152505219Y-111445860D01*
X152513869Y-111536620D01*
X152523678Y-111641238D01*
X152534434Y-111757474D01*
X152545921Y-111883092D01*
X152555093Y-111984382D01*
X152566826Y-112115721D01*
X152577665Y-112239448D01*
X152587430Y-112353319D01*
X152595937Y-112455089D01*
X152603005Y-112542513D01*
X152608451Y-112613347D01*
X152612092Y-112665347D01*
X152613747Y-112696268D01*
X152613558Y-112704297D01*
X152603666Y-112697146D01*
X152578476Y-112674159D01*
X152540190Y-112637561D01*
X152491011Y-112589578D01*
X152433139Y-112532434D01*
X152368778Y-112468353D01*
X152300129Y-112399562D01*
X152229395Y-112328284D01*
X152158778Y-112256745D01*
X152090480Y-112187170D01*
X152026704Y-112121783D01*
X151969650Y-112062809D01*
X151921522Y-112012473D01*
X151884522Y-111973001D01*
X151860852Y-111946617D01*
X151852710Y-111935594D01*
X151670467Y-111935594D01*
X151569591Y-112043705D01*
X151517232Y-112099623D01*
X151458465Y-112162052D01*
X151395615Y-112228557D01*
X151331005Y-112296702D01*
X151266958Y-112364052D01*
X151205797Y-112428172D01*
X151149847Y-112486628D01*
X151101430Y-112536982D01*
X151062870Y-112576802D01*
X151036491Y-112603650D01*
X151024616Y-112615092D01*
X151024195Y-112615326D01*
X150900604Y-112615326D01*
X150888599Y-112759274D01*
X150288062Y-113390842D01*
X149687525Y-114022411D01*
X149687966Y-114110685D01*
X149688408Y-114198960D01*
X149785417Y-114095334D01*
X149839709Y-114037537D01*
X149903808Y-113969632D01*
X149975984Y-113893428D01*
X150054508Y-113810731D01*
X150137651Y-113723347D01*
X150223681Y-113633085D01*
X150310870Y-113541750D01*
X150397487Y-113451151D01*
X150481803Y-113363093D01*
X150562088Y-113279385D01*
X150636613Y-113201833D01*
X150703646Y-113132243D01*
X150761459Y-113072424D01*
X150808321Y-113024182D01*
X150842504Y-112989324D01*
X150862276Y-112969657D01*
X150866610Y-112965884D01*
X150866908Y-112979008D01*
X150865269Y-113012611D01*
X150861977Y-113062120D01*
X150857318Y-113122963D01*
X150855318Y-113147268D01*
X150840423Y-113325049D01*
X150957045Y-113325049D01*
X150963066Y-113296757D01*
X150966137Y-113274382D01*
X150970452Y-113232283D01*
X150975512Y-113175822D01*
X150980819Y-113110365D01*
X150982656Y-113086138D01*
X150988073Y-113016579D01*
X150993541Y-112951982D01*
X150998512Y-112898452D01*
X151002439Y-112862090D01*
X151003325Y-112855491D01*
X151006666Y-112841944D01*
X151013899Y-112826086D01*
X151026560Y-112806139D01*
X151046189Y-112780327D01*
X151074322Y-112746871D01*
X151112498Y-112703993D01*
X151162254Y-112649917D01*
X151225129Y-112582864D01*
X151302659Y-112501057D01*
X151381749Y-112418050D01*
X151460436Y-112335906D01*
X151533888Y-112259831D01*
X151600276Y-112191675D01*
X151657773Y-112133288D01*
X151704549Y-112086519D01*
X151738776Y-112053218D01*
X151758627Y-112035233D01*
X151762860Y-112032558D01*
X151773997Y-112042259D01*
X151800029Y-112067559D01*
X151838430Y-112105918D01*
X151886672Y-112154800D01*
X151942230Y-112211666D01*
X151982408Y-112253094D01*
X152192169Y-112470000D01*
X151573663Y-112470000D01*
X151573663Y-112708911D01*
X152328119Y-112708911D01*
X152328119Y-112602458D01*
X152466435Y-112740346D01*
X152564553Y-112838160D01*
X152755643Y-112838160D01*
X152757471Y-112822730D01*
X152766723Y-112814133D01*
X152789050Y-112810387D01*
X152830105Y-112809511D01*
X152837376Y-112809505D01*
X152919109Y-112809505D01*
X152919109Y-113028828D01*
X152837376Y-112947821D01*
X152791270Y-112898572D01*
X152763694Y-112860841D01*
X152755643Y-112838160D01*
X152564553Y-112838160D01*
X152604752Y-112878234D01*
X152604752Y-113001048D01*
X152605137Y-113057550D01*
X152606900Y-113093495D01*
X152610950Y-113113470D01*
X152618199Y-113122063D01*
X152629130Y-113123861D01*
X152641288Y-113126502D01*
X152650273Y-113137088D01*
X152657174Y-113159619D01*
X152663076Y-113198091D01*
X152669065Y-113256502D01*
X152670987Y-113277896D01*
X152675148Y-113325049D01*
X150957045Y-113325049D01*
X150840423Y-113325049D01*
X150680891Y-113325049D01*
X150680891Y-113438218D01*
X150748686Y-113438218D01*
X150788338Y-113439304D01*
X150809884Y-113444546D01*
X150812520Y-113447666D01*
X150951384Y-113447666D01*
X150958692Y-113440538D01*
X150984007Y-113438338D01*
X151001092Y-113438218D01*
X151058119Y-113438218D01*
X151270779Y-113438218D01*
X152685302Y-113438218D01*
X152637458Y-113487214D01*
X152563150Y-113547676D01*
X152471184Y-113594309D01*
X152360002Y-113627751D01*
X152249529Y-113646247D01*
X152177227Y-113654878D01*
X152177227Y-113563960D01*
X151598812Y-113563960D01*
X151598812Y-113667107D01*
X151513935Y-113658504D01*
X151454632Y-113651244D01*
X151391449Y-113641621D01*
X151353614Y-113634748D01*
X151278168Y-113619593D01*
X151274474Y-113528905D01*
X151270779Y-113438218D01*
X151058119Y-113438218D01*
X151058119Y-113488515D01*
X151056456Y-113520024D01*
X151052303Y-113537537D01*
X151050629Y-113538812D01*
X151032013Y-113530746D01*
X151004817Y-113511180D01*
X150977552Y-113487056D01*
X150958733Y-113465318D01*
X150957057Y-113462492D01*
X150951384Y-113447666D01*
X150812520Y-113447666D01*
X150820338Y-113456919D01*
X150824558Y-113470396D01*
X150841781Y-113505373D01*
X150874862Y-113547421D01*
X150918107Y-113590644D01*
X150965826Y-113629146D01*
X150997170Y-113649199D01*
X151032877Y-113671149D01*
X151051181Y-113689589D01*
X151057612Y-113711332D01*
X151058106Y-113724282D01*
X151058106Y-113727425D01*
X151699406Y-113727425D01*
X151699406Y-113664554D01*
X152076633Y-113664554D01*
X152076633Y-113727425D01*
X151699406Y-113727425D01*
X151058106Y-113727425D01*
X151058119Y-113765148D01*
X151163952Y-113765148D01*
X151212645Y-113763971D01*
X151250595Y-113760835D01*
X151271692Y-113756329D01*
X151273977Y-113754505D01*
X151287359Y-113751705D01*
X151319926Y-113752852D01*
X151366084Y-113757607D01*
X151397624Y-113761997D01*
X151454812Y-113770622D01*
X151507114Y-113778409D01*
X151546418Y-113784153D01*
X151557945Y-113785785D01*
X151588063Y-113795112D01*
X151598812Y-113809728D01*
X151602080Y-113815680D01*
X151613770Y-113820222D01*
X151636712Y-113823530D01*
X151673735Y-113825785D01*
X151727668Y-113827166D01*
X151801340Y-113827850D01*
X151888020Y-113828020D01*
X151980529Y-113827923D01*
X152050906Y-113827470D01*
X152102164Y-113826410D01*
X152137320Y-113824497D01*
X152159389Y-113821481D01*
X152171385Y-113817115D01*
X152176324Y-113811151D01*
X152177227Y-113804216D01*
X152184921Y-113782205D01*
X152210121Y-113769679D01*
X152256009Y-113765212D01*
X152264264Y-113765148D01*
X152341973Y-113757132D01*
X152430233Y-113735064D01*
X152521085Y-113701916D01*
X152606570Y-113660661D01*
X152678726Y-113614269D01*
X152688072Y-113606918D01*
X152718533Y-113583002D01*
X152736572Y-113573424D01*
X152749169Y-113576520D01*
X152762100Y-113589296D01*
X152800293Y-113614322D01*
X152849998Y-113623929D01*
X152903524Y-113618933D01*
X152953178Y-113600149D01*
X152991267Y-113568394D01*
X152994025Y-113564703D01*
X153022526Y-113505425D01*
X153027828Y-113444066D01*
X153010518Y-113385573D01*
X152971180Y-113334896D01*
X152966370Y-113330711D01*
X152938440Y-113310833D01*
X152910102Y-113302079D01*
X152870263Y-113301447D01*
X152860311Y-113302008D01*
X152821332Y-113303438D01*
X152801254Y-113300161D01*
X152793985Y-113290272D01*
X152793240Y-113281039D01*
X152791716Y-113254256D01*
X152787935Y-113213975D01*
X152785218Y-113189876D01*
X152781277Y-113151599D01*
X152782916Y-113132004D01*
X152792421Y-113124842D01*
X152809351Y-113123861D01*
X152819392Y-113127099D01*
X152835590Y-113137580D01*
X152859145Y-113156452D01*
X152891257Y-113184865D01*
X152933128Y-113223965D01*
X152985957Y-113274903D01*
X153050945Y-113338827D01*
X153129291Y-113416886D01*
X153222197Y-113510228D01*
X153330863Y-113620002D01*
X153383231Y-113673048D01*
X153925049Y-114222233D01*
X153924430Y-114135152D01*
G36*
X153547822Y-108182178D02*
G01*
X150027029Y-108182178D01*
X150027029Y-109049802D01*
X153547822Y-109049802D01*
X153547822Y-108182178D01*
X153547822Y-108182178D01*
G37*
X153547822Y-108182178D02*
X150027029Y-108182178D01*
X150027029Y-109049802D01*
X153547822Y-109049802D01*
X153547822Y-108182178D01*
G36*
X144503910Y-113757652D02*
G01*
X144582454Y-113757222D01*
X144639298Y-113756058D01*
X144678105Y-113753793D01*
X144702538Y-113750060D01*
X144716262Y-113744494D01*
X144722940Y-113736727D01*
X144726236Y-113726395D01*
X144726556Y-113725057D01*
X144731562Y-113700921D01*
X144740829Y-113653299D01*
X144753392Y-113587259D01*
X144768287Y-113507872D01*
X144784551Y-113420204D01*
X144785119Y-113417125D01*
X144801410Y-113331211D01*
X144816652Y-113255304D01*
X144829861Y-113193955D01*
X144840054Y-113151718D01*
X144846248Y-113133145D01*
X144846543Y-113132816D01*
X144864788Y-113123747D01*
X144902405Y-113108633D01*
X144951271Y-113090738D01*
X144951543Y-113090642D01*
X145013093Y-113067507D01*
X145085657Y-113038035D01*
X145154057Y-113008403D01*
X145157294Y-113006938D01*
X145268702Y-112956374D01*
X145515399Y-113124840D01*
X145591077Y-113176197D01*
X145659631Y-113222111D01*
X145717088Y-113259970D01*
X145759476Y-113287163D01*
X145782825Y-113301079D01*
X145785042Y-113302111D01*
X145802010Y-113297516D01*
X145833701Y-113275345D01*
X145881352Y-113234553D01*
X145946198Y-113174095D01*
X146012397Y-113109773D01*
X146076214Y-113046388D01*
X146133329Y-112988549D01*
X146180305Y-112939825D01*
X146213703Y-112903790D01*
X146230085Y-112884016D01*
X146230694Y-112882998D01*
X146232505Y-112869428D01*
X146225683Y-112847267D01*
X146208540Y-112813522D01*
X146179393Y-112765200D01*
X146136555Y-112699308D01*
X146079448Y-112614483D01*
X146028766Y-112539823D01*
X145983461Y-112472860D01*
X145946150Y-112417484D01*
X145919452Y-112377580D01*
X145905985Y-112357038D01*
X145905137Y-112355644D01*
X145906781Y-112335962D01*
X145919245Y-112297707D01*
X145940048Y-112248111D01*
X145947462Y-112232272D01*
X145979814Y-112161710D01*
X146014328Y-112081647D01*
X146042365Y-112012371D01*
X146062568Y-111960955D01*
X146078615Y-111921881D01*
X146087888Y-111901459D01*
X146089041Y-111899886D01*
X146106096Y-111897279D01*
X146146298Y-111890137D01*
X146204302Y-111879477D01*
X146274763Y-111866315D01*
X146352335Y-111851667D01*
X146431672Y-111836551D01*
X146507431Y-111821982D01*
X146574264Y-111808978D01*
X146626828Y-111798555D01*
X146659776Y-111791730D01*
X146667857Y-111789801D01*
X146676205Y-111785038D01*
X146682506Y-111774282D01*
X146687045Y-111753902D01*
X146690104Y-111720266D01*
X146691967Y-111669745D01*
X146692918Y-111598708D01*
X146693240Y-111503524D01*
X146693257Y-111464508D01*
X146693257Y-111147201D01*
X146617057Y-111132161D01*
X146574663Y-111124005D01*
X146511400Y-111112101D01*
X146434962Y-111097884D01*
X146353043Y-111082790D01*
X146330400Y-111078645D01*
X146254806Y-111063947D01*
X146188953Y-111049495D01*
X146138366Y-111036625D01*
X146108574Y-111026678D01*
X146103612Y-111023713D01*
X146091426Y-111002717D01*
X146073953Y-110962033D01*
X146054577Y-110909678D01*
X146050734Y-110898400D01*
X146025339Y-110828477D01*
X145993817Y-110749582D01*
X145962969Y-110678734D01*
X145962817Y-110678405D01*
X145911447Y-110567267D01*
X146080399Y-110318747D01*
X146249352Y-110070228D01*
X146032429Y-109852942D01*
X145966819Y-109788274D01*
X145906979Y-109731267D01*
X145856267Y-109684967D01*
X145818046Y-109652416D01*
X145795675Y-109636657D01*
X145792466Y-109635657D01*
X145773626Y-109643531D01*
X145735180Y-109665422D01*
X145681330Y-109698733D01*
X145616276Y-109740869D01*
X145545940Y-109788057D01*
X145474555Y-109836190D01*
X145410908Y-109878072D01*
X145359041Y-109911129D01*
X145322995Y-109932782D01*
X145306867Y-109940457D01*
X145287189Y-109933963D01*
X145249875Y-109916850D01*
X145202621Y-109892674D01*
X145197612Y-109889987D01*
X145133977Y-109858073D01*
X145090341Y-109842421D01*
X145063202Y-109842255D01*
X145049057Y-109856796D01*
X145048975Y-109857000D01*
X145041905Y-109874221D01*
X145025042Y-109915101D01*
X144999695Y-109976475D01*
X144967171Y-110055181D01*
X144928778Y-110148053D01*
X144885822Y-110251928D01*
X144844222Y-110352498D01*
X144798504Y-110463484D01*
X144756526Y-110566297D01*
X144719548Y-110657785D01*
X144688827Y-110734799D01*
X144665622Y-110794185D01*
X144651190Y-110832791D01*
X144646743Y-110847200D01*
X144657896Y-110863728D01*
X144687069Y-110890070D01*
X144725971Y-110919113D01*
X144836757Y-111010961D01*
X144923351Y-111116241D01*
X144984716Y-111232734D01*
X145019815Y-111358224D01*
X145027608Y-111490493D01*
X145021943Y-111551543D01*
X144991078Y-111678205D01*
X144937920Y-111790059D01*
X144865767Y-111885999D01*
X144777917Y-111964924D01*
X144677665Y-112025730D01*
X144568310Y-112067313D01*
X144453147Y-112088572D01*
X144335475Y-112088401D01*
X144218590Y-112065699D01*
X144105789Y-112019362D01*
X144000369Y-111948287D01*
X143956368Y-111908089D01*
X143871979Y-111804871D01*
X143813222Y-111692075D01*
X143779704Y-111572990D01*
X143771035Y-111450905D01*
X143786823Y-111329107D01*
X143826678Y-111210884D01*
X143890207Y-111099525D01*
X143977021Y-110998316D01*
X144074029Y-110919113D01*
X144114437Y-110888838D01*
X144142982Y-110862781D01*
X144153257Y-110847175D01*
X144147877Y-110830157D01*
X144132575Y-110789500D01*
X144108612Y-110728358D01*
X144077244Y-110649881D01*
X144039732Y-110557220D01*
X143997333Y-110453528D01*
X143955663Y-110352474D01*
X143909690Y-110241393D01*
X143867107Y-110138459D01*
X143829221Y-110046835D01*
X143797340Y-109969684D01*
X143772771Y-109910169D01*
X143756820Y-109871456D01*
X143750910Y-109857000D01*
X143736948Y-109842315D01*
X143709940Y-109842358D01*
X143666413Y-109857901D01*
X143602890Y-109889716D01*
X143602388Y-109889987D01*
X143554560Y-109914677D01*
X143515897Y-109932662D01*
X143494095Y-109940386D01*
X143493133Y-109940457D01*
X143476721Y-109932622D01*
X143440487Y-109910835D01*
X143388474Y-109877672D01*
X143324725Y-109835709D01*
X143254060Y-109788057D01*
X143182116Y-109739809D01*
X143117274Y-109697849D01*
X143063735Y-109664773D01*
X143025697Y-109643179D01*
X143007533Y-109635657D01*
X142990808Y-109645543D01*
X142957180Y-109673174D01*
X142910010Y-109715505D01*
X142852658Y-109769495D01*
X142788484Y-109832101D01*
X142767497Y-109853017D01*
X142550499Y-110070377D01*
X142715668Y-110312780D01*
X142765864Y-110387219D01*
X142809919Y-110454028D01*
X142845362Y-110509335D01*
X142869719Y-110549271D01*
X142880522Y-110569964D01*
X142880838Y-110571437D01*
X142875143Y-110590942D01*
X142859826Y-110630178D01*
X142837537Y-110682570D01*
X142821893Y-110717645D01*
X142792641Y-110784799D01*
X142765094Y-110852642D01*
X142743737Y-110909966D01*
X142737935Y-110927428D01*
X142721452Y-110974062D01*
X142705340Y-111010095D01*
X142696490Y-111023713D01*
X142676960Y-111032048D01*
X142634334Y-111043863D01*
X142574145Y-111057819D01*
X142501922Y-111072578D01*
X142469600Y-111078645D01*
X142387522Y-111093727D01*
X142308795Y-111108331D01*
X142241109Y-111121020D01*
X142192160Y-111130358D01*
X142182943Y-111132161D01*
X142106743Y-111147201D01*
X142106743Y-111464508D01*
X142106914Y-111568846D01*
X142107616Y-111647787D01*
X142109134Y-111704962D01*
X142111749Y-111744001D01*
X142115746Y-111768535D01*
X142121409Y-111782195D01*
X142129020Y-111788611D01*
X142132143Y-111789801D01*
X142150978Y-111794020D01*
X142192588Y-111802438D01*
X142251630Y-111814039D01*
X142322757Y-111827805D01*
X142400625Y-111842720D01*
X142479887Y-111857768D01*
X142555198Y-111871931D01*
X142621213Y-111884194D01*
X142672587Y-111893539D01*
X142703975Y-111898950D01*
X142710959Y-111899886D01*
X142717285Y-111912404D01*
X142731290Y-111945754D01*
X142750355Y-111993623D01*
X142757634Y-112012371D01*
X142786996Y-112084805D01*
X142821571Y-112164830D01*
X142852537Y-112232272D01*
X142875323Y-112283841D01*
X142890482Y-112326215D01*
X142895542Y-112352166D01*
X142894736Y-112355644D01*
X142884041Y-112372064D01*
X142859620Y-112408583D01*
X142824095Y-112461313D01*
X142780087Y-112526365D01*
X142730217Y-112599849D01*
X142720356Y-112614355D01*
X142662492Y-112700296D01*
X142619956Y-112765739D01*
X142591054Y-112813696D01*
X142574090Y-112847180D01*
X142567367Y-112869205D01*
X142569190Y-112882783D01*
X142569236Y-112882869D01*
X142583586Y-112900703D01*
X142615323Y-112935183D01*
X142661010Y-112982732D01*
X142717204Y-113039778D01*
X142780468Y-113102745D01*
X142787602Y-113109773D01*
X142867330Y-113186980D01*
X142928857Y-113243670D01*
X142973421Y-113280890D01*
X143002257Y-113299685D01*
X143014958Y-113302111D01*
X143033494Y-113291529D01*
X143071961Y-113267084D01*
X143126386Y-113231388D01*
X143192798Y-113187053D01*
X143267225Y-113136689D01*
X143284601Y-113124840D01*
X143531297Y-112956374D01*
X143642706Y-113006938D01*
X143710457Y-113036405D01*
X143783183Y-113066041D01*
X143845703Y-113089670D01*
X143848457Y-113090642D01*
X143897360Y-113108543D01*
X143935057Y-113123680D01*
X143953425Y-113132790D01*
X143953456Y-113132816D01*
X143959285Y-113149283D01*
X143969192Y-113189781D01*
X143982195Y-113249758D01*
X143997309Y-113324660D01*
X144013552Y-113409936D01*
X144014881Y-113417125D01*
X144031175Y-113504986D01*
X144046133Y-113584740D01*
X144058791Y-113651319D01*
X144068186Y-113699653D01*
X144073354Y-113724675D01*
X144073444Y-113725057D01*
X144076589Y-113735701D01*
X144082704Y-113743738D01*
X144095453Y-113749533D01*
X144118500Y-113753453D01*
X144155509Y-113755865D01*
X144210144Y-113757135D01*
X144286067Y-113757629D01*
X144386944Y-113757714D01*
X144400000Y-113757714D01*
X144503910Y-113757652D01*
X144503910Y-113757652D01*
G37*
X144503910Y-113757652D02*
X144582454Y-113757222D01*
X144639298Y-113756058D01*
X144678105Y-113753793D01*
X144702538Y-113750060D01*
X144716262Y-113744494D01*
X144722940Y-113736727D01*
X144726236Y-113726395D01*
X144726556Y-113725057D01*
X144731562Y-113700921D01*
X144740829Y-113653299D01*
X144753392Y-113587259D01*
X144768287Y-113507872D01*
X144784551Y-113420204D01*
X144785119Y-113417125D01*
X144801410Y-113331211D01*
X144816652Y-113255304D01*
X144829861Y-113193955D01*
X144840054Y-113151718D01*
X144846248Y-113133145D01*
X144846543Y-113132816D01*
X144864788Y-113123747D01*
X144902405Y-113108633D01*
X144951271Y-113090738D01*
X144951543Y-113090642D01*
X145013093Y-113067507D01*
X145085657Y-113038035D01*
X145154057Y-113008403D01*
X145157294Y-113006938D01*
X145268702Y-112956374D01*
X145515399Y-113124840D01*
X145591077Y-113176197D01*
X145659631Y-113222111D01*
X145717088Y-113259970D01*
X145759476Y-113287163D01*
X145782825Y-113301079D01*
X145785042Y-113302111D01*
X145802010Y-113297516D01*
X145833701Y-113275345D01*
X145881352Y-113234553D01*
X145946198Y-113174095D01*
X146012397Y-113109773D01*
X146076214Y-113046388D01*
X146133329Y-112988549D01*
X146180305Y-112939825D01*
X146213703Y-112903790D01*
X146230085Y-112884016D01*
X146230694Y-112882998D01*
X146232505Y-112869428D01*
X146225683Y-112847267D01*
X146208540Y-112813522D01*
X146179393Y-112765200D01*
X146136555Y-112699308D01*
X146079448Y-112614483D01*
X146028766Y-112539823D01*
X145983461Y-112472860D01*
X145946150Y-112417484D01*
X145919452Y-112377580D01*
X145905985Y-112357038D01*
X145905137Y-112355644D01*
X145906781Y-112335962D01*
X145919245Y-112297707D01*
X145940048Y-112248111D01*
X145947462Y-112232272D01*
X145979814Y-112161710D01*
X146014328Y-112081647D01*
X146042365Y-112012371D01*
X146062568Y-111960955D01*
X146078615Y-111921881D01*
X146087888Y-111901459D01*
X146089041Y-111899886D01*
X146106096Y-111897279D01*
X146146298Y-111890137D01*
X146204302Y-111879477D01*
X146274763Y-111866315D01*
X146352335Y-111851667D01*
X146431672Y-111836551D01*
X146507431Y-111821982D01*
X146574264Y-111808978D01*
X146626828Y-111798555D01*
X146659776Y-111791730D01*
X146667857Y-111789801D01*
X146676205Y-111785038D01*
X146682506Y-111774282D01*
X146687045Y-111753902D01*
X146690104Y-111720266D01*
X146691967Y-111669745D01*
X146692918Y-111598708D01*
X146693240Y-111503524D01*
X146693257Y-111464508D01*
X146693257Y-111147201D01*
X146617057Y-111132161D01*
X146574663Y-111124005D01*
X146511400Y-111112101D01*
X146434962Y-111097884D01*
X146353043Y-111082790D01*
X146330400Y-111078645D01*
X146254806Y-111063947D01*
X146188953Y-111049495D01*
X146138366Y-111036625D01*
X146108574Y-111026678D01*
X146103612Y-111023713D01*
X146091426Y-111002717D01*
X146073953Y-110962033D01*
X146054577Y-110909678D01*
X146050734Y-110898400D01*
X146025339Y-110828477D01*
X145993817Y-110749582D01*
X145962969Y-110678734D01*
X145962817Y-110678405D01*
X145911447Y-110567267D01*
X146080399Y-110318747D01*
X146249352Y-110070228D01*
X146032429Y-109852942D01*
X145966819Y-109788274D01*
X145906979Y-109731267D01*
X145856267Y-109684967D01*
X145818046Y-109652416D01*
X145795675Y-109636657D01*
X145792466Y-109635657D01*
X145773626Y-109643531D01*
X145735180Y-109665422D01*
X145681330Y-109698733D01*
X145616276Y-109740869D01*
X145545940Y-109788057D01*
X145474555Y-109836190D01*
X145410908Y-109878072D01*
X145359041Y-109911129D01*
X145322995Y-109932782D01*
X145306867Y-109940457D01*
X145287189Y-109933963D01*
X145249875Y-109916850D01*
X145202621Y-109892674D01*
X145197612Y-109889987D01*
X145133977Y-109858073D01*
X145090341Y-109842421D01*
X145063202Y-109842255D01*
X145049057Y-109856796D01*
X145048975Y-109857000D01*
X145041905Y-109874221D01*
X145025042Y-109915101D01*
X144999695Y-109976475D01*
X144967171Y-110055181D01*
X144928778Y-110148053D01*
X144885822Y-110251928D01*
X144844222Y-110352498D01*
X144798504Y-110463484D01*
X144756526Y-110566297D01*
X144719548Y-110657785D01*
X144688827Y-110734799D01*
X144665622Y-110794185D01*
X144651190Y-110832791D01*
X144646743Y-110847200D01*
X144657896Y-110863728D01*
X144687069Y-110890070D01*
X144725971Y-110919113D01*
X144836757Y-111010961D01*
X144923351Y-111116241D01*
X144984716Y-111232734D01*
X145019815Y-111358224D01*
X145027608Y-111490493D01*
X145021943Y-111551543D01*
X144991078Y-111678205D01*
X144937920Y-111790059D01*
X144865767Y-111885999D01*
X144777917Y-111964924D01*
X144677665Y-112025730D01*
X144568310Y-112067313D01*
X144453147Y-112088572D01*
X144335475Y-112088401D01*
X144218590Y-112065699D01*
X144105789Y-112019362D01*
X144000369Y-111948287D01*
X143956368Y-111908089D01*
X143871979Y-111804871D01*
X143813222Y-111692075D01*
X143779704Y-111572990D01*
X143771035Y-111450905D01*
X143786823Y-111329107D01*
X143826678Y-111210884D01*
X143890207Y-111099525D01*
X143977021Y-110998316D01*
X144074029Y-110919113D01*
X144114437Y-110888838D01*
X144142982Y-110862781D01*
X144153257Y-110847175D01*
X144147877Y-110830157D01*
X144132575Y-110789500D01*
X144108612Y-110728358D01*
X144077244Y-110649881D01*
X144039732Y-110557220D01*
X143997333Y-110453528D01*
X143955663Y-110352474D01*
X143909690Y-110241393D01*
X143867107Y-110138459D01*
X143829221Y-110046835D01*
X143797340Y-109969684D01*
X143772771Y-109910169D01*
X143756820Y-109871456D01*
X143750910Y-109857000D01*
X143736948Y-109842315D01*
X143709940Y-109842358D01*
X143666413Y-109857901D01*
X143602890Y-109889716D01*
X143602388Y-109889987D01*
X143554560Y-109914677D01*
X143515897Y-109932662D01*
X143494095Y-109940386D01*
X143493133Y-109940457D01*
X143476721Y-109932622D01*
X143440487Y-109910835D01*
X143388474Y-109877672D01*
X143324725Y-109835709D01*
X143254060Y-109788057D01*
X143182116Y-109739809D01*
X143117274Y-109697849D01*
X143063735Y-109664773D01*
X143025697Y-109643179D01*
X143007533Y-109635657D01*
X142990808Y-109645543D01*
X142957180Y-109673174D01*
X142910010Y-109715505D01*
X142852658Y-109769495D01*
X142788484Y-109832101D01*
X142767497Y-109853017D01*
X142550499Y-110070377D01*
X142715668Y-110312780D01*
X142765864Y-110387219D01*
X142809919Y-110454028D01*
X142845362Y-110509335D01*
X142869719Y-110549271D01*
X142880522Y-110569964D01*
X142880838Y-110571437D01*
X142875143Y-110590942D01*
X142859826Y-110630178D01*
X142837537Y-110682570D01*
X142821893Y-110717645D01*
X142792641Y-110784799D01*
X142765094Y-110852642D01*
X142743737Y-110909966D01*
X142737935Y-110927428D01*
X142721452Y-110974062D01*
X142705340Y-111010095D01*
X142696490Y-111023713D01*
X142676960Y-111032048D01*
X142634334Y-111043863D01*
X142574145Y-111057819D01*
X142501922Y-111072578D01*
X142469600Y-111078645D01*
X142387522Y-111093727D01*
X142308795Y-111108331D01*
X142241109Y-111121020D01*
X142192160Y-111130358D01*
X142182943Y-111132161D01*
X142106743Y-111147201D01*
X142106743Y-111464508D01*
X142106914Y-111568846D01*
X142107616Y-111647787D01*
X142109134Y-111704962D01*
X142111749Y-111744001D01*
X142115746Y-111768535D01*
X142121409Y-111782195D01*
X142129020Y-111788611D01*
X142132143Y-111789801D01*
X142150978Y-111794020D01*
X142192588Y-111802438D01*
X142251630Y-111814039D01*
X142322757Y-111827805D01*
X142400625Y-111842720D01*
X142479887Y-111857768D01*
X142555198Y-111871931D01*
X142621213Y-111884194D01*
X142672587Y-111893539D01*
X142703975Y-111898950D01*
X142710959Y-111899886D01*
X142717285Y-111912404D01*
X142731290Y-111945754D01*
X142750355Y-111993623D01*
X142757634Y-112012371D01*
X142786996Y-112084805D01*
X142821571Y-112164830D01*
X142852537Y-112232272D01*
X142875323Y-112283841D01*
X142890482Y-112326215D01*
X142895542Y-112352166D01*
X142894736Y-112355644D01*
X142884041Y-112372064D01*
X142859620Y-112408583D01*
X142824095Y-112461313D01*
X142780087Y-112526365D01*
X142730217Y-112599849D01*
X142720356Y-112614355D01*
X142662492Y-112700296D01*
X142619956Y-112765739D01*
X142591054Y-112813696D01*
X142574090Y-112847180D01*
X142567367Y-112869205D01*
X142569190Y-112882783D01*
X142569236Y-112882869D01*
X142583586Y-112900703D01*
X142615323Y-112935183D01*
X142661010Y-112982732D01*
X142717204Y-113039778D01*
X142780468Y-113102745D01*
X142787602Y-113109773D01*
X142867330Y-113186980D01*
X142928857Y-113243670D01*
X142973421Y-113280890D01*
X143002257Y-113299685D01*
X143014958Y-113302111D01*
X143033494Y-113291529D01*
X143071961Y-113267084D01*
X143126386Y-113231388D01*
X143192798Y-113187053D01*
X143267225Y-113136689D01*
X143284601Y-113124840D01*
X143531297Y-112956374D01*
X143642706Y-113006938D01*
X143710457Y-113036405D01*
X143783183Y-113066041D01*
X143845703Y-113089670D01*
X143848457Y-113090642D01*
X143897360Y-113108543D01*
X143935057Y-113123680D01*
X143953425Y-113132790D01*
X143953456Y-113132816D01*
X143959285Y-113149283D01*
X143969192Y-113189781D01*
X143982195Y-113249758D01*
X143997309Y-113324660D01*
X144013552Y-113409936D01*
X144014881Y-113417125D01*
X144031175Y-113504986D01*
X144046133Y-113584740D01*
X144058791Y-113651319D01*
X144068186Y-113699653D01*
X144073354Y-113724675D01*
X144073444Y-113725057D01*
X144076589Y-113735701D01*
X144082704Y-113743738D01*
X144095453Y-113749533D01*
X144118500Y-113753453D01*
X144155509Y-113755865D01*
X144210144Y-113757135D01*
X144286067Y-113757629D01*
X144386944Y-113757714D01*
X144400000Y-113757714D01*
X144503910Y-113757652D01*
G36*
X147553595Y-109033034D02*
G01*
X147611021Y-108995503D01*
X147638719Y-108961904D01*
X147660662Y-108900936D01*
X147662405Y-108852692D01*
X147658457Y-108788184D01*
X147509686Y-108723066D01*
X147437349Y-108689798D01*
X147390084Y-108663036D01*
X147365507Y-108639856D01*
X147361237Y-108617333D01*
X147374889Y-108592545D01*
X147389943Y-108576114D01*
X147433746Y-108549765D01*
X147481389Y-108547919D01*
X147525145Y-108568454D01*
X147557289Y-108609248D01*
X147563038Y-108623653D01*
X147590576Y-108668644D01*
X147622258Y-108687818D01*
X147665714Y-108704221D01*
X147665714Y-108642034D01*
X147661872Y-108599717D01*
X147646823Y-108564031D01*
X147615280Y-108523057D01*
X147610592Y-108517733D01*
X147575506Y-108481280D01*
X147545347Y-108461717D01*
X147507615Y-108452717D01*
X147476335Y-108449770D01*
X147420385Y-108449035D01*
X147380555Y-108458340D01*
X147355708Y-108472154D01*
X147316656Y-108502533D01*
X147289625Y-108535387D01*
X147272517Y-108576706D01*
X147263238Y-108632479D01*
X147259693Y-108708695D01*
X147259410Y-108747378D01*
X147260372Y-108793753D01*
X147348007Y-108793753D01*
X147349023Y-108768874D01*
X147351556Y-108764800D01*
X147368274Y-108770335D01*
X147404249Y-108784983D01*
X147452331Y-108805810D01*
X147462386Y-108810286D01*
X147523152Y-108841186D01*
X147556632Y-108868343D01*
X147563990Y-108893780D01*
X147546391Y-108919519D01*
X147531856Y-108930891D01*
X147479410Y-108953636D01*
X147430322Y-108949878D01*
X147389227Y-108922116D01*
X147360758Y-108872848D01*
X147351631Y-108833743D01*
X147348007Y-108793753D01*
X147260372Y-108793753D01*
X147261285Y-108837751D01*
X147268196Y-108904616D01*
X147281884Y-108953305D01*
X147304096Y-108989151D01*
X147336574Y-109017487D01*
X147350733Y-109026645D01*
X147415053Y-109050493D01*
X147485473Y-109051994D01*
X147553595Y-109033034D01*
X147553595Y-109033034D01*
G37*
X147553595Y-109033034D02*
X147611021Y-108995503D01*
X147638719Y-108961904D01*
X147660662Y-108900936D01*
X147662405Y-108852692D01*
X147658457Y-108788184D01*
X147509686Y-108723066D01*
X147437349Y-108689798D01*
X147390084Y-108663036D01*
X147365507Y-108639856D01*
X147361237Y-108617333D01*
X147374889Y-108592545D01*
X147389943Y-108576114D01*
X147433746Y-108549765D01*
X147481389Y-108547919D01*
X147525145Y-108568454D01*
X147557289Y-108609248D01*
X147563038Y-108623653D01*
X147590576Y-108668644D01*
X147622258Y-108687818D01*
X147665714Y-108704221D01*
X147665714Y-108642034D01*
X147661872Y-108599717D01*
X147646823Y-108564031D01*
X147615280Y-108523057D01*
X147610592Y-108517733D01*
X147575506Y-108481280D01*
X147545347Y-108461717D01*
X147507615Y-108452717D01*
X147476335Y-108449770D01*
X147420385Y-108449035D01*
X147380555Y-108458340D01*
X147355708Y-108472154D01*
X147316656Y-108502533D01*
X147289625Y-108535387D01*
X147272517Y-108576706D01*
X147263238Y-108632479D01*
X147259693Y-108708695D01*
X147259410Y-108747378D01*
X147260372Y-108793753D01*
X147348007Y-108793753D01*
X147349023Y-108768874D01*
X147351556Y-108764800D01*
X147368274Y-108770335D01*
X147404249Y-108784983D01*
X147452331Y-108805810D01*
X147462386Y-108810286D01*
X147523152Y-108841186D01*
X147556632Y-108868343D01*
X147563990Y-108893780D01*
X147546391Y-108919519D01*
X147531856Y-108930891D01*
X147479410Y-108953636D01*
X147430322Y-108949878D01*
X147389227Y-108922116D01*
X147360758Y-108872848D01*
X147351631Y-108833743D01*
X147348007Y-108793753D01*
X147260372Y-108793753D01*
X147261285Y-108837751D01*
X147268196Y-108904616D01*
X147281884Y-108953305D01*
X147304096Y-108989151D01*
X147336574Y-109017487D01*
X147350733Y-109026645D01*
X147415053Y-109050493D01*
X147485473Y-109051994D01*
X147553595Y-109033034D01*
G36*
X147052600Y-109041248D02*
G01*
X147069948Y-109033666D01*
X147111356Y-109000872D01*
X147146765Y-108953453D01*
X147168664Y-108902849D01*
X147172229Y-108877902D01*
X147160279Y-108843073D01*
X147134067Y-108824643D01*
X147105964Y-108813484D01*
X147093095Y-108811428D01*
X147086829Y-108826351D01*
X147074456Y-108858825D01*
X147069028Y-108873498D01*
X147038590Y-108924256D01*
X146994520Y-108949573D01*
X146938010Y-108948794D01*
X146933825Y-108947797D01*
X146903655Y-108933493D01*
X146881476Y-108905607D01*
X146866327Y-108860713D01*
X146857250Y-108795385D01*
X146853286Y-108706196D01*
X146852914Y-108658739D01*
X146852730Y-108583929D01*
X146851522Y-108532931D01*
X146848309Y-108500529D01*
X146842109Y-108481505D01*
X146831940Y-108470644D01*
X146816819Y-108462728D01*
X146815946Y-108462330D01*
X146786828Y-108450019D01*
X146772403Y-108445486D01*
X146770186Y-108459191D01*
X146768289Y-108497075D01*
X146766847Y-108554285D01*
X146765998Y-108625973D01*
X146765829Y-108678435D01*
X146766692Y-108779953D01*
X146770070Y-108856968D01*
X146777142Y-108913977D01*
X146789088Y-108955474D01*
X146807090Y-108985957D01*
X146832327Y-109009920D01*
X146857247Y-109026645D01*
X146917171Y-109048903D01*
X146986911Y-109053924D01*
X147052600Y-109041248D01*
X147052600Y-109041248D01*
G37*
X147052600Y-109041248D02*
X147069948Y-109033666D01*
X147111356Y-109000872D01*
X147146765Y-108953453D01*
X147168664Y-108902849D01*
X147172229Y-108877902D01*
X147160279Y-108843073D01*
X147134067Y-108824643D01*
X147105964Y-108813484D01*
X147093095Y-108811428D01*
X147086829Y-108826351D01*
X147074456Y-108858825D01*
X147069028Y-108873498D01*
X147038590Y-108924256D01*
X146994520Y-108949573D01*
X146938010Y-108948794D01*
X146933825Y-108947797D01*
X146903655Y-108933493D01*
X146881476Y-108905607D01*
X146866327Y-108860713D01*
X146857250Y-108795385D01*
X146853286Y-108706196D01*
X146852914Y-108658739D01*
X146852730Y-108583929D01*
X146851522Y-108532931D01*
X146848309Y-108500529D01*
X146842109Y-108481505D01*
X146831940Y-108470644D01*
X146816819Y-108462728D01*
X146815946Y-108462330D01*
X146786828Y-108450019D01*
X146772403Y-108445486D01*
X146770186Y-108459191D01*
X146768289Y-108497075D01*
X146766847Y-108554285D01*
X146765998Y-108625973D01*
X146765829Y-108678435D01*
X146766692Y-108779953D01*
X146770070Y-108856968D01*
X146777142Y-108913977D01*
X146789088Y-108955474D01*
X146807090Y-108985957D01*
X146832327Y-109009920D01*
X146857247Y-109026645D01*
X146917171Y-109048903D01*
X146986911Y-109053924D01*
X147052600Y-109041248D01*
G36*
X146544876Y-109043665D02*
G01*
X146586667Y-109024656D01*
X146619469Y-109001622D01*
X146643503Y-108975867D01*
X146660097Y-108942642D01*
X146670577Y-108897200D01*
X146676271Y-108834793D01*
X146678507Y-108750673D01*
X146678743Y-108695279D01*
X146678743Y-108479174D01*
X146641774Y-108462330D01*
X146612656Y-108450019D01*
X146598231Y-108445486D01*
X146595472Y-108458975D01*
X146593282Y-108495347D01*
X146591942Y-108548458D01*
X146591657Y-108590628D01*
X146590434Y-108651553D01*
X146587136Y-108699885D01*
X146582321Y-108729482D01*
X146578496Y-108735771D01*
X146552783Y-108729348D01*
X146512418Y-108712875D01*
X146465679Y-108690542D01*
X146420845Y-108666543D01*
X146386193Y-108645070D01*
X146370002Y-108630315D01*
X146369938Y-108630155D01*
X146371330Y-108602848D01*
X146383818Y-108576781D01*
X146405743Y-108555608D01*
X146437743Y-108548526D01*
X146465092Y-108549351D01*
X146503826Y-108549958D01*
X146524158Y-108540884D01*
X146536369Y-108516908D01*
X146537909Y-108512387D01*
X146543203Y-108478194D01*
X146529047Y-108457432D01*
X146492148Y-108447538D01*
X146452289Y-108445708D01*
X146380562Y-108459273D01*
X146343432Y-108478645D01*
X146297576Y-108524155D01*
X146273256Y-108580017D01*
X146271073Y-108639043D01*
X146291629Y-108694047D01*
X146322549Y-108728514D01*
X146353420Y-108747811D01*
X146401942Y-108772241D01*
X146458485Y-108797015D01*
X146467910Y-108800801D01*
X146530019Y-108828209D01*
X146565822Y-108852366D01*
X146577337Y-108876381D01*
X146566580Y-108903365D01*
X146548114Y-108924457D01*
X146504469Y-108950428D01*
X146456446Y-108952376D01*
X146412406Y-108932363D01*
X146380709Y-108892449D01*
X146376549Y-108882152D01*
X146352327Y-108844276D01*
X146316965Y-108816158D01*
X146272343Y-108793083D01*
X146272343Y-108858515D01*
X146274969Y-108898494D01*
X146286230Y-108930003D01*
X146311199Y-108963622D01*
X146335169Y-108989516D01*
X146372441Y-109026183D01*
X146401401Y-109045879D01*
X146432505Y-109053780D01*
X146467713Y-109055086D01*
X146544876Y-109043665D01*
X146544876Y-109043665D01*
G37*
X146544876Y-109043665D02*
X146586667Y-109024656D01*
X146619469Y-109001622D01*
X146643503Y-108975867D01*
X146660097Y-108942642D01*
X146670577Y-108897200D01*
X146676271Y-108834793D01*
X146678507Y-108750673D01*
X146678743Y-108695279D01*
X146678743Y-108479174D01*
X146641774Y-108462330D01*
X146612656Y-108450019D01*
X146598231Y-108445486D01*
X146595472Y-108458975D01*
X146593282Y-108495347D01*
X146591942Y-108548458D01*
X146591657Y-108590628D01*
X146590434Y-108651553D01*
X146587136Y-108699885D01*
X146582321Y-108729482D01*
X146578496Y-108735771D01*
X146552783Y-108729348D01*
X146512418Y-108712875D01*
X146465679Y-108690542D01*
X146420845Y-108666543D01*
X146386193Y-108645070D01*
X146370002Y-108630315D01*
X146369938Y-108630155D01*
X146371330Y-108602848D01*
X146383818Y-108576781D01*
X146405743Y-108555608D01*
X146437743Y-108548526D01*
X146465092Y-108549351D01*
X146503826Y-108549958D01*
X146524158Y-108540884D01*
X146536369Y-108516908D01*
X146537909Y-108512387D01*
X146543203Y-108478194D01*
X146529047Y-108457432D01*
X146492148Y-108447538D01*
X146452289Y-108445708D01*
X146380562Y-108459273D01*
X146343432Y-108478645D01*
X146297576Y-108524155D01*
X146273256Y-108580017D01*
X146271073Y-108639043D01*
X146291629Y-108694047D01*
X146322549Y-108728514D01*
X146353420Y-108747811D01*
X146401942Y-108772241D01*
X146458485Y-108797015D01*
X146467910Y-108800801D01*
X146530019Y-108828209D01*
X146565822Y-108852366D01*
X146577337Y-108876381D01*
X146566580Y-108903365D01*
X146548114Y-108924457D01*
X146504469Y-108950428D01*
X146456446Y-108952376D01*
X146412406Y-108932363D01*
X146380709Y-108892449D01*
X146376549Y-108882152D01*
X146352327Y-108844276D01*
X146316965Y-108816158D01*
X146272343Y-108793083D01*
X146272343Y-108858515D01*
X146274969Y-108898494D01*
X146286230Y-108930003D01*
X146311199Y-108963622D01*
X146335169Y-108989516D01*
X146372441Y-109026183D01*
X146401401Y-109045879D01*
X146432505Y-109053780D01*
X146467713Y-109055086D01*
X146544876Y-109043665D01*
G36*
X146179833Y-109041337D02*
G01*
X146182048Y-109003150D01*
X146183784Y-108945114D01*
X146184899Y-108871820D01*
X146185257Y-108794945D01*
X146185257Y-108534804D01*
X146139326Y-108488873D01*
X146107675Y-108460571D01*
X146079890Y-108449107D01*
X146041915Y-108449832D01*
X146026840Y-108451679D01*
X145979726Y-108457052D01*
X145940756Y-108460131D01*
X145931257Y-108460415D01*
X145899233Y-108458555D01*
X145853432Y-108453886D01*
X145835674Y-108451679D01*
X145792057Y-108448265D01*
X145762745Y-108455680D01*
X145733680Y-108478573D01*
X145723188Y-108488873D01*
X145677257Y-108534804D01*
X145677257Y-109021398D01*
X145714226Y-109038242D01*
X145746059Y-109050718D01*
X145764683Y-109055086D01*
X145769458Y-109041282D01*
X145773921Y-109002714D01*
X145777775Y-108943644D01*
X145780722Y-108868337D01*
X145782143Y-108804714D01*
X145786114Y-108554343D01*
X145820759Y-108549444D01*
X145852268Y-108552869D01*
X145867708Y-108563959D01*
X145872023Y-108584692D01*
X145875708Y-108628855D01*
X145878469Y-108690854D01*
X145880012Y-108765091D01*
X145880235Y-108803294D01*
X145880457Y-109023217D01*
X145926166Y-109039151D01*
X145958518Y-109049985D01*
X145976115Y-109055038D01*
X145976623Y-109055086D01*
X145978388Y-109041352D01*
X145980329Y-109003270D01*
X145982282Y-108945518D01*
X145984084Y-108872773D01*
X145985343Y-108804714D01*
X145989314Y-108554343D01*
X146076400Y-108554343D01*
X146080396Y-108782760D01*
X146084392Y-109011178D01*
X146126847Y-109033132D01*
X146158192Y-109048207D01*
X146176744Y-109055049D01*
X146177279Y-109055086D01*
X146179833Y-109041337D01*
X146179833Y-109041337D01*
G37*
X146179833Y-109041337D02*
X146182048Y-109003150D01*
X146183784Y-108945114D01*
X146184899Y-108871820D01*
X146185257Y-108794945D01*
X146185257Y-108534804D01*
X146139326Y-108488873D01*
X146107675Y-108460571D01*
X146079890Y-108449107D01*
X146041915Y-108449832D01*
X146026840Y-108451679D01*
X145979726Y-108457052D01*
X145940756Y-108460131D01*
X145931257Y-108460415D01*
X145899233Y-108458555D01*
X145853432Y-108453886D01*
X145835674Y-108451679D01*
X145792057Y-108448265D01*
X145762745Y-108455680D01*
X145733680Y-108478573D01*
X145723188Y-108488873D01*
X145677257Y-108534804D01*
X145677257Y-109021398D01*
X145714226Y-109038242D01*
X145746059Y-109050718D01*
X145764683Y-109055086D01*
X145769458Y-109041282D01*
X145773921Y-109002714D01*
X145777775Y-108943644D01*
X145780722Y-108868337D01*
X145782143Y-108804714D01*
X145786114Y-108554343D01*
X145820759Y-108549444D01*
X145852268Y-108552869D01*
X145867708Y-108563959D01*
X145872023Y-108584692D01*
X145875708Y-108628855D01*
X145878469Y-108690854D01*
X145880012Y-108765091D01*
X145880235Y-108803294D01*
X145880457Y-109023217D01*
X145926166Y-109039151D01*
X145958518Y-109049985D01*
X145976115Y-109055038D01*
X145976623Y-109055086D01*
X145978388Y-109041352D01*
X145980329Y-109003270D01*
X145982282Y-108945518D01*
X145984084Y-108872773D01*
X145985343Y-108804714D01*
X145989314Y-108554343D01*
X146076400Y-108554343D01*
X146080396Y-108782760D01*
X146084392Y-109011178D01*
X146126847Y-109033132D01*
X146158192Y-109048207D01*
X146176744Y-109055049D01*
X146177279Y-109055086D01*
X146179833Y-109041337D01*
G36*
X145590117Y-108934642D02*
G01*
X145589933Y-108826163D01*
X145589219Y-108742713D01*
X145587675Y-108680296D01*
X145585001Y-108634915D01*
X145580894Y-108602571D01*
X145575055Y-108579267D01*
X145567182Y-108561005D01*
X145561221Y-108550582D01*
X145511855Y-108494055D01*
X145449264Y-108458623D01*
X145380013Y-108445910D01*
X145310668Y-108457537D01*
X145269375Y-108478432D01*
X145226025Y-108514578D01*
X145196481Y-108558724D01*
X145178655Y-108616538D01*
X145170463Y-108693687D01*
X145169302Y-108750286D01*
X145169458Y-108754353D01*
X145270857Y-108754353D01*
X145271476Y-108689450D01*
X145274314Y-108646486D01*
X145280840Y-108618378D01*
X145292523Y-108598047D01*
X145306483Y-108582712D01*
X145353365Y-108553110D01*
X145403701Y-108550581D01*
X145451276Y-108575295D01*
X145454979Y-108578644D01*
X145470783Y-108596065D01*
X145480693Y-108616791D01*
X145486058Y-108647638D01*
X145488228Y-108695423D01*
X145488571Y-108748252D01*
X145487827Y-108814619D01*
X145484748Y-108858894D01*
X145478061Y-108887991D01*
X145466496Y-108908827D01*
X145457013Y-108919893D01*
X145412960Y-108947802D01*
X145362224Y-108951157D01*
X145313796Y-108929841D01*
X145304450Y-108921927D01*
X145288540Y-108904353D01*
X145278610Y-108883413D01*
X145273278Y-108852218D01*
X145271163Y-108803878D01*
X145270857Y-108754353D01*
X145169458Y-108754353D01*
X145172810Y-108841432D01*
X145184726Y-108909914D01*
X145207135Y-108961400D01*
X145242124Y-109001557D01*
X145269375Y-109022139D01*
X145318907Y-109044375D01*
X145376316Y-109054696D01*
X145429682Y-109051933D01*
X145459543Y-109040788D01*
X145471261Y-109037617D01*
X145479037Y-109049443D01*
X145484465Y-109081134D01*
X145488571Y-109129407D01*
X145493067Y-109183171D01*
X145499313Y-109215518D01*
X145510676Y-109234015D01*
X145530528Y-109246230D01*
X145543000Y-109251638D01*
X145590171Y-109271399D01*
X145590117Y-108934642D01*
X145590117Y-108934642D01*
G37*
X145590117Y-108934642D02*
X145589933Y-108826163D01*
X145589219Y-108742713D01*
X145587675Y-108680296D01*
X145585001Y-108634915D01*
X145580894Y-108602571D01*
X145575055Y-108579267D01*
X145567182Y-108561005D01*
X145561221Y-108550582D01*
X145511855Y-108494055D01*
X145449264Y-108458623D01*
X145380013Y-108445910D01*
X145310668Y-108457537D01*
X145269375Y-108478432D01*
X145226025Y-108514578D01*
X145196481Y-108558724D01*
X145178655Y-108616538D01*
X145170463Y-108693687D01*
X145169302Y-108750286D01*
X145169458Y-108754353D01*
X145270857Y-108754353D01*
X145271476Y-108689450D01*
X145274314Y-108646486D01*
X145280840Y-108618378D01*
X145292523Y-108598047D01*
X145306483Y-108582712D01*
X145353365Y-108553110D01*
X145403701Y-108550581D01*
X145451276Y-108575295D01*
X145454979Y-108578644D01*
X145470783Y-108596065D01*
X145480693Y-108616791D01*
X145486058Y-108647638D01*
X145488228Y-108695423D01*
X145488571Y-108748252D01*
X145487827Y-108814619D01*
X145484748Y-108858894D01*
X145478061Y-108887991D01*
X145466496Y-108908827D01*
X145457013Y-108919893D01*
X145412960Y-108947802D01*
X145362224Y-108951157D01*
X145313796Y-108929841D01*
X145304450Y-108921927D01*
X145288540Y-108904353D01*
X145278610Y-108883413D01*
X145273278Y-108852218D01*
X145271163Y-108803878D01*
X145270857Y-108754353D01*
X145169458Y-108754353D01*
X145172810Y-108841432D01*
X145184726Y-108909914D01*
X145207135Y-108961400D01*
X145242124Y-109001557D01*
X145269375Y-109022139D01*
X145318907Y-109044375D01*
X145376316Y-109054696D01*
X145429682Y-109051933D01*
X145459543Y-109040788D01*
X145471261Y-109037617D01*
X145479037Y-109049443D01*
X145484465Y-109081134D01*
X145488571Y-109129407D01*
X145493067Y-109183171D01*
X145499313Y-109215518D01*
X145510676Y-109234015D01*
X145530528Y-109246230D01*
X145543000Y-109251638D01*
X145590171Y-109271399D01*
X145590117Y-108934642D01*
G36*
X144929926Y-109050245D02*
G01*
X144995858Y-109025916D01*
X145049273Y-108982883D01*
X145070164Y-108952591D01*
X145092939Y-108897006D01*
X145092466Y-108856814D01*
X145068562Y-108829783D01*
X145059717Y-108825187D01*
X145021530Y-108810856D01*
X145002028Y-108814528D01*
X144995422Y-108838593D01*
X144995086Y-108851886D01*
X144982992Y-108900790D01*
X144951471Y-108935001D01*
X144907659Y-108951524D01*
X144858695Y-108947366D01*
X144818894Y-108925773D01*
X144805450Y-108913456D01*
X144795921Y-108898513D01*
X144789485Y-108875925D01*
X144785317Y-108840672D01*
X144782597Y-108787734D01*
X144780502Y-108712093D01*
X144779960Y-108688143D01*
X144777981Y-108606210D01*
X144775731Y-108548545D01*
X144772357Y-108510392D01*
X144767006Y-108486996D01*
X144758824Y-108473602D01*
X144746959Y-108465455D01*
X144739362Y-108461856D01*
X144707102Y-108449548D01*
X144688111Y-108445486D01*
X144681836Y-108459052D01*
X144678006Y-108500066D01*
X144676600Y-108569001D01*
X144677598Y-108666331D01*
X144677908Y-108681343D01*
X144680101Y-108770141D01*
X144682693Y-108834981D01*
X144686382Y-108880933D01*
X144691864Y-108913065D01*
X144699835Y-108936447D01*
X144710993Y-108956148D01*
X144716830Y-108964590D01*
X144750296Y-109001943D01*
X144787727Y-109030997D01*
X144792309Y-109033533D01*
X144859426Y-109053557D01*
X144929926Y-109050245D01*
X144929926Y-109050245D01*
G37*
X144929926Y-109050245D02*
X144995858Y-109025916D01*
X145049273Y-108982883D01*
X145070164Y-108952591D01*
X145092939Y-108897006D01*
X145092466Y-108856814D01*
X145068562Y-108829783D01*
X145059717Y-108825187D01*
X145021530Y-108810856D01*
X145002028Y-108814528D01*
X144995422Y-108838593D01*
X144995086Y-108851886D01*
X144982992Y-108900790D01*
X144951471Y-108935001D01*
X144907659Y-108951524D01*
X144858695Y-108947366D01*
X144818894Y-108925773D01*
X144805450Y-108913456D01*
X144795921Y-108898513D01*
X144789485Y-108875925D01*
X144785317Y-108840672D01*
X144782597Y-108787734D01*
X144780502Y-108712093D01*
X144779960Y-108688143D01*
X144777981Y-108606210D01*
X144775731Y-108548545D01*
X144772357Y-108510392D01*
X144767006Y-108486996D01*
X144758824Y-108473602D01*
X144746959Y-108465455D01*
X144739362Y-108461856D01*
X144707102Y-108449548D01*
X144688111Y-108445486D01*
X144681836Y-108459052D01*
X144678006Y-108500066D01*
X144676600Y-108569001D01*
X144677598Y-108666331D01*
X144677908Y-108681343D01*
X144680101Y-108770141D01*
X144682693Y-108834981D01*
X144686382Y-108880933D01*
X144691864Y-108913065D01*
X144699835Y-108936447D01*
X144710993Y-108956148D01*
X144716830Y-108964590D01*
X144750296Y-109001943D01*
X144787727Y-109030997D01*
X144792309Y-109033533D01*
X144859426Y-109053557D01*
X144929926Y-109050245D01*
G36*
X144439744Y-109049032D02*
G01*
X144496616Y-109027913D01*
X144497267Y-109027507D01*
X144532440Y-109001620D01*
X144558407Y-108971367D01*
X144576670Y-108931942D01*
X144588732Y-108878538D01*
X144596096Y-108806349D01*
X144600264Y-108710568D01*
X144600629Y-108696922D01*
X144605876Y-108491158D01*
X144561716Y-108468322D01*
X144529763Y-108452890D01*
X144510470Y-108445577D01*
X144509578Y-108445486D01*
X144506239Y-108458978D01*
X144503587Y-108495374D01*
X144501956Y-108548548D01*
X144501600Y-108591607D01*
X144501592Y-108661359D01*
X144498403Y-108705163D01*
X144487288Y-108726056D01*
X144463501Y-108727075D01*
X144422296Y-108711259D01*
X144360086Y-108682185D01*
X144314341Y-108658037D01*
X144290813Y-108637087D01*
X144283896Y-108614253D01*
X144283886Y-108613123D01*
X144295299Y-108573788D01*
X144329092Y-108552538D01*
X144380809Y-108549461D01*
X144418061Y-108549994D01*
X144437703Y-108539265D01*
X144449952Y-108513495D01*
X144457002Y-108480663D01*
X144446842Y-108462034D01*
X144443017Y-108459368D01*
X144407001Y-108448660D01*
X144356566Y-108447144D01*
X144304626Y-108454241D01*
X144267822Y-108467212D01*
X144216938Y-108510415D01*
X144188014Y-108570554D01*
X144182286Y-108617538D01*
X144186657Y-108659918D01*
X144202475Y-108694512D01*
X144233797Y-108725237D01*
X144284678Y-108756010D01*
X144359176Y-108790748D01*
X144363714Y-108792712D01*
X144430821Y-108823713D01*
X144472232Y-108849138D01*
X144489981Y-108871986D01*
X144486107Y-108895255D01*
X144462643Y-108921944D01*
X144455627Y-108928086D01*
X144408630Y-108951900D01*
X144359933Y-108950897D01*
X144317522Y-108927549D01*
X144289384Y-108884325D01*
X144286769Y-108875840D01*
X144261308Y-108834692D01*
X144229001Y-108814872D01*
X144182286Y-108795230D01*
X144182286Y-108846050D01*
X144196496Y-108919918D01*
X144238675Y-108987673D01*
X144260624Y-109010339D01*
X144310517Y-109039431D01*
X144373967Y-109052600D01*
X144439744Y-109049032D01*
X144439744Y-109049032D01*
G37*
X144439744Y-109049032D02*
X144496616Y-109027913D01*
X144497267Y-109027507D01*
X144532440Y-109001620D01*
X144558407Y-108971367D01*
X144576670Y-108931942D01*
X144588732Y-108878538D01*
X144596096Y-108806349D01*
X144600264Y-108710568D01*
X144600629Y-108696922D01*
X144605876Y-108491158D01*
X144561716Y-108468322D01*
X144529763Y-108452890D01*
X144510470Y-108445577D01*
X144509578Y-108445486D01*
X144506239Y-108458978D01*
X144503587Y-108495374D01*
X144501956Y-108548548D01*
X144501600Y-108591607D01*
X144501592Y-108661359D01*
X144498403Y-108705163D01*
X144487288Y-108726056D01*
X144463501Y-108727075D01*
X144422296Y-108711259D01*
X144360086Y-108682185D01*
X144314341Y-108658037D01*
X144290813Y-108637087D01*
X144283896Y-108614253D01*
X144283886Y-108613123D01*
X144295299Y-108573788D01*
X144329092Y-108552538D01*
X144380809Y-108549461D01*
X144418061Y-108549994D01*
X144437703Y-108539265D01*
X144449952Y-108513495D01*
X144457002Y-108480663D01*
X144446842Y-108462034D01*
X144443017Y-108459368D01*
X144407001Y-108448660D01*
X144356566Y-108447144D01*
X144304626Y-108454241D01*
X144267822Y-108467212D01*
X144216938Y-108510415D01*
X144188014Y-108570554D01*
X144182286Y-108617538D01*
X144186657Y-108659918D01*
X144202475Y-108694512D01*
X144233797Y-108725237D01*
X144284678Y-108756010D01*
X144359176Y-108790748D01*
X144363714Y-108792712D01*
X144430821Y-108823713D01*
X144472232Y-108849138D01*
X144489981Y-108871986D01*
X144486107Y-108895255D01*
X144462643Y-108921944D01*
X144455627Y-108928086D01*
X144408630Y-108951900D01*
X144359933Y-108950897D01*
X144317522Y-108927549D01*
X144289384Y-108884325D01*
X144286769Y-108875840D01*
X144261308Y-108834692D01*
X144229001Y-108814872D01*
X144182286Y-108795230D01*
X144182286Y-108846050D01*
X144196496Y-108919918D01*
X144238675Y-108987673D01*
X144260624Y-109010339D01*
X144310517Y-109039431D01*
X144373967Y-109052600D01*
X144439744Y-109049032D01*
G36*
X143775886Y-109148711D02*
G01*
X143780139Y-109089387D01*
X143785025Y-109054428D01*
X143791795Y-109039180D01*
X143801702Y-109038985D01*
X143804914Y-109040805D01*
X143847644Y-109053985D01*
X143903227Y-109053215D01*
X143959737Y-109039667D01*
X143995082Y-109022139D01*
X144031321Y-108994139D01*
X144057813Y-108962451D01*
X144075999Y-108922187D01*
X144087322Y-108868457D01*
X144093222Y-108796374D01*
X144095143Y-108701049D01*
X144095177Y-108682763D01*
X144095200Y-108477354D01*
X144049491Y-108461420D01*
X144017027Y-108450580D01*
X143999215Y-108445532D01*
X143998691Y-108445486D01*
X143996937Y-108459172D01*
X143995444Y-108496924D01*
X143994326Y-108553776D01*
X143993697Y-108624766D01*
X143993600Y-108667927D01*
X143993398Y-108753027D01*
X143992358Y-108814019D01*
X143989831Y-108855823D01*
X143985164Y-108883358D01*
X143977707Y-108901544D01*
X143966811Y-108915302D01*
X143960007Y-108921927D01*
X143913272Y-108948625D01*
X143862272Y-108950625D01*
X143816001Y-108928045D01*
X143807444Y-108919893D01*
X143794893Y-108904564D01*
X143786188Y-108886382D01*
X143780631Y-108860091D01*
X143777526Y-108820438D01*
X143776176Y-108762168D01*
X143775886Y-108681827D01*
X143775886Y-108477354D01*
X143730177Y-108461420D01*
X143697713Y-108450580D01*
X143679901Y-108445532D01*
X143679377Y-108445486D01*
X143678037Y-108459377D01*
X143676828Y-108498561D01*
X143675801Y-108559300D01*
X143675002Y-108637859D01*
X143674481Y-108730502D01*
X143674286Y-108833491D01*
X143674286Y-109230658D01*
X143721457Y-109250556D01*
X143768629Y-109270453D01*
X143775886Y-109148711D01*
X143775886Y-109148711D01*
G37*
X143775886Y-109148711D02*
X143780139Y-109089387D01*
X143785025Y-109054428D01*
X143791795Y-109039180D01*
X143801702Y-109038985D01*
X143804914Y-109040805D01*
X143847644Y-109053985D01*
X143903227Y-109053215D01*
X143959737Y-109039667D01*
X143995082Y-109022139D01*
X144031321Y-108994139D01*
X144057813Y-108962451D01*
X144075999Y-108922187D01*
X144087322Y-108868457D01*
X144093222Y-108796374D01*
X144095143Y-108701049D01*
X144095177Y-108682763D01*
X144095200Y-108477354D01*
X144049491Y-108461420D01*
X144017027Y-108450580D01*
X143999215Y-108445532D01*
X143998691Y-108445486D01*
X143996937Y-108459172D01*
X143995444Y-108496924D01*
X143994326Y-108553776D01*
X143993697Y-108624766D01*
X143993600Y-108667927D01*
X143993398Y-108753027D01*
X143992358Y-108814019D01*
X143989831Y-108855823D01*
X143985164Y-108883358D01*
X143977707Y-108901544D01*
X143966811Y-108915302D01*
X143960007Y-108921927D01*
X143913272Y-108948625D01*
X143862272Y-108950625D01*
X143816001Y-108928045D01*
X143807444Y-108919893D01*
X143794893Y-108904564D01*
X143786188Y-108886382D01*
X143780631Y-108860091D01*
X143777526Y-108820438D01*
X143776176Y-108762168D01*
X143775886Y-108681827D01*
X143775886Y-108477354D01*
X143730177Y-108461420D01*
X143697713Y-108450580D01*
X143679901Y-108445532D01*
X143679377Y-108445486D01*
X143678037Y-108459377D01*
X143676828Y-108498561D01*
X143675801Y-108559300D01*
X143675002Y-108637859D01*
X143674481Y-108730502D01*
X143674286Y-108833491D01*
X143674286Y-109230658D01*
X143721457Y-109250556D01*
X143768629Y-109270453D01*
X143775886Y-109148711D01*
G36*
X142568303Y-109068761D02*
G01*
X142625527Y-109030265D01*
X142669749Y-108974665D01*
X142696167Y-108903914D01*
X142701510Y-108851838D01*
X142700903Y-108830107D01*
X142695822Y-108813469D01*
X142681855Y-108798563D01*
X142654589Y-108782027D01*
X142609612Y-108760502D01*
X142542511Y-108730626D01*
X142542171Y-108730476D01*
X142480407Y-108702187D01*
X142429759Y-108677067D01*
X142395404Y-108657821D01*
X142382518Y-108647152D01*
X142382514Y-108647066D01*
X142393872Y-108623834D01*
X142420431Y-108598226D01*
X142450923Y-108579779D01*
X142466370Y-108576114D01*
X142508515Y-108588788D01*
X142544808Y-108620529D01*
X142562517Y-108655428D01*
X142579552Y-108681155D01*
X142612922Y-108710454D01*
X142652149Y-108735765D01*
X142686756Y-108749529D01*
X142693993Y-108750286D01*
X142702139Y-108737840D01*
X142702630Y-108706028D01*
X142696643Y-108663134D01*
X142685357Y-108617442D01*
X142669950Y-108577239D01*
X142669171Y-108575678D01*
X142622804Y-108510938D01*
X142562711Y-108466903D01*
X142494465Y-108445289D01*
X142423638Y-108447815D01*
X142355804Y-108476196D01*
X142352788Y-108478192D01*
X142299427Y-108526552D01*
X142264340Y-108589648D01*
X142244922Y-108672613D01*
X142242316Y-108695922D01*
X142237701Y-108805945D01*
X142243233Y-108857252D01*
X142382514Y-108857252D01*
X142384324Y-108825247D01*
X142394222Y-108815907D01*
X142418898Y-108822895D01*
X142457795Y-108839413D01*
X142501275Y-108860119D01*
X142502356Y-108860667D01*
X142539209Y-108880051D01*
X142554000Y-108892987D01*
X142550353Y-108906549D01*
X142534995Y-108924368D01*
X142495923Y-108950155D01*
X142453846Y-108952050D01*
X142416103Y-108933283D01*
X142390034Y-108897085D01*
X142382514Y-108857252D01*
X142243233Y-108857252D01*
X142247194Y-108893973D01*
X142271550Y-108963788D01*
X142305456Y-109012698D01*
X142366653Y-109062122D01*
X142434063Y-109086641D01*
X142502880Y-109088203D01*
X142568303Y-109068761D01*
X142568303Y-109068761D01*
G37*
X142568303Y-109068761D02*
X142625527Y-109030265D01*
X142669749Y-108974665D01*
X142696167Y-108903914D01*
X142701510Y-108851838D01*
X142700903Y-108830107D01*
X142695822Y-108813469D01*
X142681855Y-108798563D01*
X142654589Y-108782027D01*
X142609612Y-108760502D01*
X142542511Y-108730626D01*
X142542171Y-108730476D01*
X142480407Y-108702187D01*
X142429759Y-108677067D01*
X142395404Y-108657821D01*
X142382518Y-108647152D01*
X142382514Y-108647066D01*
X142393872Y-108623834D01*
X142420431Y-108598226D01*
X142450923Y-108579779D01*
X142466370Y-108576114D01*
X142508515Y-108588788D01*
X142544808Y-108620529D01*
X142562517Y-108655428D01*
X142579552Y-108681155D01*
X142612922Y-108710454D01*
X142652149Y-108735765D01*
X142686756Y-108749529D01*
X142693993Y-108750286D01*
X142702139Y-108737840D01*
X142702630Y-108706028D01*
X142696643Y-108663134D01*
X142685357Y-108617442D01*
X142669950Y-108577239D01*
X142669171Y-108575678D01*
X142622804Y-108510938D01*
X142562711Y-108466903D01*
X142494465Y-108445289D01*
X142423638Y-108447815D01*
X142355804Y-108476196D01*
X142352788Y-108478192D01*
X142299427Y-108526552D01*
X142264340Y-108589648D01*
X142244922Y-108672613D01*
X142242316Y-108695922D01*
X142237701Y-108805945D01*
X142243233Y-108857252D01*
X142382514Y-108857252D01*
X142384324Y-108825247D01*
X142394222Y-108815907D01*
X142418898Y-108822895D01*
X142457795Y-108839413D01*
X142501275Y-108860119D01*
X142502356Y-108860667D01*
X142539209Y-108880051D01*
X142554000Y-108892987D01*
X142550353Y-108906549D01*
X142534995Y-108924368D01*
X142495923Y-108950155D01*
X142453846Y-108952050D01*
X142416103Y-108933283D01*
X142390034Y-108897085D01*
X142382514Y-108857252D01*
X142243233Y-108857252D01*
X142247194Y-108893973D01*
X142271550Y-108963788D01*
X142305456Y-109012698D01*
X142366653Y-109062122D01*
X142434063Y-109086641D01*
X142502880Y-109088203D01*
X142568303Y-109068761D01*
G36*
X141441115Y-109078038D02*
G01*
X141509145Y-109042267D01*
X141559351Y-108984699D01*
X141577185Y-108947688D01*
X141591063Y-108892118D01*
X141598167Y-108821904D01*
X141598840Y-108745273D01*
X141593427Y-108670448D01*
X141582270Y-108605658D01*
X141565714Y-108559127D01*
X141560626Y-108551113D01*
X141500355Y-108491293D01*
X141428769Y-108455465D01*
X141351092Y-108444980D01*
X141272548Y-108461190D01*
X141250689Y-108470908D01*
X141208122Y-108500857D01*
X141170763Y-108540567D01*
X141167232Y-108545603D01*
X141152881Y-108569876D01*
X141143394Y-108595822D01*
X141137790Y-108629978D01*
X141135086Y-108678881D01*
X141134299Y-108749065D01*
X141134286Y-108764800D01*
X141134322Y-108769808D01*
X141279429Y-108769808D01*
X141280273Y-108703570D01*
X141283596Y-108659614D01*
X141290583Y-108631221D01*
X141302416Y-108611675D01*
X141308457Y-108605143D01*
X141343186Y-108580320D01*
X141376903Y-108581452D01*
X141410995Y-108602984D01*
X141431329Y-108625971D01*
X141443371Y-108659522D01*
X141450134Y-108712431D01*
X141450598Y-108718601D01*
X141451752Y-108814487D01*
X141439688Y-108885701D01*
X141414570Y-108931806D01*
X141376560Y-108952365D01*
X141362992Y-108953486D01*
X141327364Y-108947848D01*
X141302994Y-108928314D01*
X141288093Y-108890958D01*
X141280875Y-108831850D01*
X141279429Y-108769808D01*
X141134322Y-108769808D01*
X141134826Y-108839587D01*
X141137096Y-108891841D01*
X141142068Y-108928051D01*
X141150713Y-108954701D01*
X141164005Y-108978278D01*
X141166943Y-108982662D01*
X141216313Y-109041751D01*
X141270109Y-109076053D01*
X141335602Y-109089669D01*
X141357842Y-109090335D01*
X141441115Y-109078038D01*
X141441115Y-109078038D01*
G37*
X141441115Y-109078038D02*
X141509145Y-109042267D01*
X141559351Y-108984699D01*
X141577185Y-108947688D01*
X141591063Y-108892118D01*
X141598167Y-108821904D01*
X141598840Y-108745273D01*
X141593427Y-108670448D01*
X141582270Y-108605658D01*
X141565714Y-108559127D01*
X141560626Y-108551113D01*
X141500355Y-108491293D01*
X141428769Y-108455465D01*
X141351092Y-108444980D01*
X141272548Y-108461190D01*
X141250689Y-108470908D01*
X141208122Y-108500857D01*
X141170763Y-108540567D01*
X141167232Y-108545603D01*
X141152881Y-108569876D01*
X141143394Y-108595822D01*
X141137790Y-108629978D01*
X141135086Y-108678881D01*
X141134299Y-108749065D01*
X141134286Y-108764800D01*
X141134322Y-108769808D01*
X141279429Y-108769808D01*
X141280273Y-108703570D01*
X141283596Y-108659614D01*
X141290583Y-108631221D01*
X141302416Y-108611675D01*
X141308457Y-108605143D01*
X141343186Y-108580320D01*
X141376903Y-108581452D01*
X141410995Y-108602984D01*
X141431329Y-108625971D01*
X141443371Y-108659522D01*
X141450134Y-108712431D01*
X141450598Y-108718601D01*
X141451752Y-108814487D01*
X141439688Y-108885701D01*
X141414570Y-108931806D01*
X141376560Y-108952365D01*
X141362992Y-108953486D01*
X141327364Y-108947848D01*
X141302994Y-108928314D01*
X141288093Y-108890958D01*
X141280875Y-108831850D01*
X141279429Y-108769808D01*
X141134322Y-108769808D01*
X141134826Y-108839587D01*
X141137096Y-108891841D01*
X141142068Y-108928051D01*
X141150713Y-108954701D01*
X141164005Y-108978278D01*
X141166943Y-108982662D01*
X141216313Y-109041751D01*
X141270109Y-109076053D01*
X141335602Y-109089669D01*
X141357842Y-109090335D01*
X141441115Y-109078038D01*
G36*
X143116093Y-109072220D02*
G01*
X143162672Y-109045277D01*
X143195057Y-109018534D01*
X143218742Y-108990516D01*
X143235059Y-108956252D01*
X143245339Y-108910773D01*
X143250914Y-108849108D01*
X143253116Y-108766289D01*
X143253371Y-108706754D01*
X143253371Y-108487609D01*
X143191686Y-108459956D01*
X143130000Y-108432303D01*
X143122743Y-108672330D01*
X143119744Y-108761972D01*
X143116598Y-108827038D01*
X143112701Y-108871974D01*
X143107447Y-108901230D01*
X143100231Y-108919252D01*
X143090450Y-108930489D01*
X143087312Y-108932921D01*
X143039761Y-108951917D01*
X142991697Y-108944400D01*
X142963086Y-108924457D01*
X142951447Y-108910325D01*
X142943391Y-108891780D01*
X142938271Y-108863666D01*
X142935441Y-108820827D01*
X142934256Y-108758105D01*
X142934057Y-108692739D01*
X142934018Y-108610732D01*
X142932614Y-108552684D01*
X142927914Y-108513535D01*
X142917987Y-108488220D01*
X142900903Y-108471677D01*
X142874732Y-108458844D01*
X142839775Y-108445509D01*
X142801596Y-108430993D01*
X142806141Y-108688611D01*
X142807971Y-108781481D01*
X142810112Y-108850111D01*
X142813181Y-108899289D01*
X142817794Y-108933802D01*
X142824568Y-108958438D01*
X142834119Y-108977984D01*
X142845634Y-108995230D01*
X142901190Y-109050320D01*
X142968980Y-109082178D01*
X143042713Y-109089809D01*
X143116093Y-109072220D01*
X143116093Y-109072220D01*
G37*
X143116093Y-109072220D02*
X143162672Y-109045277D01*
X143195057Y-109018534D01*
X143218742Y-108990516D01*
X143235059Y-108956252D01*
X143245339Y-108910773D01*
X143250914Y-108849108D01*
X143253116Y-108766289D01*
X143253371Y-108706754D01*
X143253371Y-108487609D01*
X143191686Y-108459956D01*
X143130000Y-108432303D01*
X143122743Y-108672330D01*
X143119744Y-108761972D01*
X143116598Y-108827038D01*
X143112701Y-108871974D01*
X143107447Y-108901230D01*
X143100231Y-108919252D01*
X143090450Y-108930489D01*
X143087312Y-108932921D01*
X143039761Y-108951917D01*
X142991697Y-108944400D01*
X142963086Y-108924457D01*
X142951447Y-108910325D01*
X142943391Y-108891780D01*
X142938271Y-108863666D01*
X142935441Y-108820827D01*
X142934256Y-108758105D01*
X142934057Y-108692739D01*
X142934018Y-108610732D01*
X142932614Y-108552684D01*
X142927914Y-108513535D01*
X142917987Y-108488220D01*
X142900903Y-108471677D01*
X142874732Y-108458844D01*
X142839775Y-108445509D01*
X142801596Y-108430993D01*
X142806141Y-108688611D01*
X142807971Y-108781481D01*
X142810112Y-108850111D01*
X142813181Y-108899289D01*
X142817794Y-108933802D01*
X142824568Y-108958438D01*
X142834119Y-108977984D01*
X142845634Y-108995230D01*
X142901190Y-109050320D01*
X142968980Y-109082178D01*
X143042713Y-109089809D01*
X143116093Y-109072220D01*
G36*
X141999744Y-109080082D02*
G01*
X142055201Y-109052432D01*
X142104148Y-109001520D01*
X142117629Y-108982662D01*
X142132314Y-108957985D01*
X142141842Y-108931184D01*
X142147293Y-108895413D01*
X142149747Y-108843831D01*
X142150286Y-108775733D01*
X142147852Y-108682412D01*
X142139394Y-108612343D01*
X142123174Y-108560069D01*
X142097454Y-108520131D01*
X142060497Y-108487071D01*
X142057782Y-108485114D01*
X142021360Y-108465092D01*
X141977502Y-108455185D01*
X141921724Y-108452743D01*
X141831048Y-108452743D01*
X141831010Y-108364717D01*
X141830166Y-108315692D01*
X141825024Y-108286935D01*
X141811587Y-108269689D01*
X141785858Y-108255192D01*
X141779679Y-108252231D01*
X141750764Y-108238352D01*
X141728376Y-108229586D01*
X141711729Y-108228829D01*
X141700036Y-108238977D01*
X141692510Y-108262927D01*
X141688366Y-108303574D01*
X141686815Y-108363814D01*
X141687071Y-108446545D01*
X141688349Y-108554661D01*
X141688748Y-108587000D01*
X141690185Y-108698476D01*
X141691472Y-108771397D01*
X141830971Y-108771397D01*
X141831755Y-108709501D01*
X141835240Y-108669003D01*
X141843124Y-108642292D01*
X141857105Y-108621756D01*
X141866597Y-108611740D01*
X141905404Y-108582433D01*
X141939763Y-108580048D01*
X141975216Y-108604250D01*
X141976114Y-108605143D01*
X141990539Y-108623847D01*
X141999313Y-108649268D01*
X142003739Y-108688416D01*
X142005118Y-108748303D01*
X142005143Y-108761570D01*
X142001812Y-108844099D01*
X141990969Y-108901309D01*
X141971340Y-108936234D01*
X141941650Y-108951906D01*
X141924491Y-108953486D01*
X141883766Y-108946074D01*
X141855832Y-108921670D01*
X141839017Y-108877020D01*
X141831650Y-108808870D01*
X141830971Y-108771397D01*
X141691472Y-108771397D01*
X141691708Y-108784755D01*
X141693677Y-108849667D01*
X141696450Y-108897042D01*
X141700388Y-108930710D01*
X141705849Y-108954502D01*
X141713192Y-108972247D01*
X141722777Y-108987776D01*
X141726887Y-108993619D01*
X141781405Y-109048815D01*
X141850336Y-109080110D01*
X141930072Y-109088835D01*
X141999744Y-109080082D01*
X141999744Y-109080082D01*
G37*
X141999744Y-109080082D02*
X142055201Y-109052432D01*
X142104148Y-109001520D01*
X142117629Y-108982662D01*
X142132314Y-108957985D01*
X142141842Y-108931184D01*
X142147293Y-108895413D01*
X142149747Y-108843831D01*
X142150286Y-108775733D01*
X142147852Y-108682412D01*
X142139394Y-108612343D01*
X142123174Y-108560069D01*
X142097454Y-108520131D01*
X142060497Y-108487071D01*
X142057782Y-108485114D01*
X142021360Y-108465092D01*
X141977502Y-108455185D01*
X141921724Y-108452743D01*
X141831048Y-108452743D01*
X141831010Y-108364717D01*
X141830166Y-108315692D01*
X141825024Y-108286935D01*
X141811587Y-108269689D01*
X141785858Y-108255192D01*
X141779679Y-108252231D01*
X141750764Y-108238352D01*
X141728376Y-108229586D01*
X141711729Y-108228829D01*
X141700036Y-108238977D01*
X141692510Y-108262927D01*
X141688366Y-108303574D01*
X141686815Y-108363814D01*
X141687071Y-108446545D01*
X141688349Y-108554661D01*
X141688748Y-108587000D01*
X141690185Y-108698476D01*
X141691472Y-108771397D01*
X141830971Y-108771397D01*
X141831755Y-108709501D01*
X141835240Y-108669003D01*
X141843124Y-108642292D01*
X141857105Y-108621756D01*
X141866597Y-108611740D01*
X141905404Y-108582433D01*
X141939763Y-108580048D01*
X141975216Y-108604250D01*
X141976114Y-108605143D01*
X141990539Y-108623847D01*
X141999313Y-108649268D01*
X142003739Y-108688416D01*
X142005118Y-108748303D01*
X142005143Y-108761570D01*
X142001812Y-108844099D01*
X141990969Y-108901309D01*
X141971340Y-108936234D01*
X141941650Y-108951906D01*
X141924491Y-108953486D01*
X141883766Y-108946074D01*
X141855832Y-108921670D01*
X141839017Y-108877020D01*
X141831650Y-108808870D01*
X141830971Y-108771397D01*
X141691472Y-108771397D01*
X141691708Y-108784755D01*
X141693677Y-108849667D01*
X141696450Y-108897042D01*
X141700388Y-108930710D01*
X141705849Y-108954502D01*
X141713192Y-108972247D01*
X141722777Y-108987776D01*
X141726887Y-108993619D01*
X141781405Y-109048815D01*
X141850336Y-109080110D01*
X141930072Y-109088835D01*
X141999744Y-109080082D01*
G36*
X138233335Y-113083594D02*
G01*
X137938985Y-113083305D01*
X137837010Y-113082880D01*
X137756355Y-113081592D01*
X137691888Y-113079086D01*
X137638476Y-113075004D01*
X137590988Y-113068992D01*
X137544289Y-113060692D01*
X137510389Y-113053564D01*
X137280549Y-112990246D01*
X137061232Y-112903988D01*
X136854201Y-112795991D01*
X136661220Y-112667456D01*
X136484049Y-112519582D01*
X136324453Y-112353570D01*
X136184193Y-112170621D01*
X136159554Y-112133551D01*
X136107756Y-112046598D01*
X136054855Y-111945180D01*
X136003836Y-111836134D01*
X135957682Y-111726298D01*
X135919375Y-111622512D01*
X135891898Y-111531612D01*
X135885804Y-111506016D01*
X135876439Y-111463021D01*
X137638021Y-111463021D01*
X137638021Y-110523750D01*
X135876439Y-110523750D01*
X135885804Y-110480756D01*
X135910864Y-110389389D01*
X135948352Y-110283531D01*
X135995185Y-110170122D01*
X136048282Y-110056108D01*
X136104560Y-109948431D01*
X136160936Y-109854033D01*
X136170392Y-109839681D01*
X136314134Y-109648209D01*
X136475333Y-109476370D01*
X136652990Y-109324837D01*
X136846109Y-109194281D01*
X137053691Y-109085376D01*
X137274738Y-108998794D01*
X137508255Y-108935206D01*
X137513956Y-108933979D01*
X137566538Y-108923378D01*
X137614958Y-108915487D01*
X137664609Y-108909922D01*
X137720881Y-108906298D01*
X137789168Y-108904231D01*
X137874859Y-108903336D01*
X137945599Y-108903201D01*
X138233333Y-108903224D01*
X138233333Y-107970521D01*
X137945599Y-107972238D01*
X137853624Y-107973291D01*
X137763891Y-107975234D01*
X137682158Y-107977874D01*
X137614179Y-107981019D01*
X137565711Y-107984474D01*
X137558646Y-107985211D01*
X137333237Y-108021406D01*
X137101386Y-108078624D01*
X136869425Y-108154716D01*
X136643685Y-108247535D01*
X136430499Y-108354932D01*
X136374697Y-108386865D01*
X136211156Y-108492333D01*
X136045214Y-108616455D01*
X135883427Y-108753569D01*
X135732350Y-108898018D01*
X135598540Y-109044141D01*
X135561993Y-109088393D01*
X135400673Y-109309988D01*
X135259348Y-109547622D01*
X135139025Y-109798911D01*
X135040711Y-110061468D01*
X134965412Y-110332908D01*
X134914135Y-110610845D01*
X134911590Y-110629584D01*
X134904641Y-110701249D01*
X134899708Y-110791954D01*
X134896792Y-110895077D01*
X134895895Y-111003991D01*
X134897019Y-111112075D01*
X134900166Y-111212702D01*
X134905338Y-111299248D01*
X134911383Y-111357188D01*
X134963339Y-111642106D01*
X135038569Y-111917646D01*
X135136391Y-112182191D01*
X135256121Y-112434123D01*
X135397076Y-112671823D01*
X135558573Y-112893675D01*
X135561993Y-112897921D01*
X135742280Y-113100879D01*
X135941422Y-113287344D01*
X136156973Y-113455786D01*
X136386485Y-113604675D01*
X136627509Y-113732483D01*
X136877600Y-113837678D01*
X137134309Y-113918733D01*
X137234619Y-113943231D01*
X137358530Y-113969062D01*
X137473700Y-113988408D01*
X137587520Y-114002019D01*
X137707385Y-114010644D01*
X137840687Y-114015032D01*
X137952213Y-114015992D01*
X138233333Y-114016250D01*
X138233335Y-113083594D01*
X138233335Y-113083594D01*
G37*
X138233335Y-113083594D02*
X137938985Y-113083305D01*
X137837010Y-113082880D01*
X137756355Y-113081592D01*
X137691888Y-113079086D01*
X137638476Y-113075004D01*
X137590988Y-113068992D01*
X137544289Y-113060692D01*
X137510389Y-113053564D01*
X137280549Y-112990246D01*
X137061232Y-112903988D01*
X136854201Y-112795991D01*
X136661220Y-112667456D01*
X136484049Y-112519582D01*
X136324453Y-112353570D01*
X136184193Y-112170621D01*
X136159554Y-112133551D01*
X136107756Y-112046598D01*
X136054855Y-111945180D01*
X136003836Y-111836134D01*
X135957682Y-111726298D01*
X135919375Y-111622512D01*
X135891898Y-111531612D01*
X135885804Y-111506016D01*
X135876439Y-111463021D01*
X137638021Y-111463021D01*
X137638021Y-110523750D01*
X135876439Y-110523750D01*
X135885804Y-110480756D01*
X135910864Y-110389389D01*
X135948352Y-110283531D01*
X135995185Y-110170122D01*
X136048282Y-110056108D01*
X136104560Y-109948431D01*
X136160936Y-109854033D01*
X136170392Y-109839681D01*
X136314134Y-109648209D01*
X136475333Y-109476370D01*
X136652990Y-109324837D01*
X136846109Y-109194281D01*
X137053691Y-109085376D01*
X137274738Y-108998794D01*
X137508255Y-108935206D01*
X137513956Y-108933979D01*
X137566538Y-108923378D01*
X137614958Y-108915487D01*
X137664609Y-108909922D01*
X137720881Y-108906298D01*
X137789168Y-108904231D01*
X137874859Y-108903336D01*
X137945599Y-108903201D01*
X138233333Y-108903224D01*
X138233333Y-107970521D01*
X137945599Y-107972238D01*
X137853624Y-107973291D01*
X137763891Y-107975234D01*
X137682158Y-107977874D01*
X137614179Y-107981019D01*
X137565711Y-107984474D01*
X137558646Y-107985211D01*
X137333237Y-108021406D01*
X137101386Y-108078624D01*
X136869425Y-108154716D01*
X136643685Y-108247535D01*
X136430499Y-108354932D01*
X136374697Y-108386865D01*
X136211156Y-108492333D01*
X136045214Y-108616455D01*
X135883427Y-108753569D01*
X135732350Y-108898018D01*
X135598540Y-109044141D01*
X135561993Y-109088393D01*
X135400673Y-109309988D01*
X135259348Y-109547622D01*
X135139025Y-109798911D01*
X135040711Y-110061468D01*
X134965412Y-110332908D01*
X134914135Y-110610845D01*
X134911590Y-110629584D01*
X134904641Y-110701249D01*
X134899708Y-110791954D01*
X134896792Y-110895077D01*
X134895895Y-111003991D01*
X134897019Y-111112075D01*
X134900166Y-111212702D01*
X134905338Y-111299248D01*
X134911383Y-111357188D01*
X134963339Y-111642106D01*
X135038569Y-111917646D01*
X135136391Y-112182191D01*
X135256121Y-112434123D01*
X135397076Y-112671823D01*
X135558573Y-112893675D01*
X135561993Y-112897921D01*
X135742280Y-113100879D01*
X135941422Y-113287344D01*
X136156973Y-113455786D01*
X136386485Y-113604675D01*
X136627509Y-113732483D01*
X136877600Y-113837678D01*
X137134309Y-113918733D01*
X137234619Y-113943231D01*
X137358530Y-113969062D01*
X137473700Y-113988408D01*
X137587520Y-114002019D01*
X137707385Y-114010644D01*
X137840687Y-114015032D01*
X137952213Y-114015992D01*
X138233333Y-114016250D01*
X138233335Y-113083594D01*
G36*
X132939187Y-114015685D02*
G01*
X133003670Y-114014025D01*
X133050303Y-114011055D01*
X133070651Y-114007912D01*
X133100417Y-113999935D01*
X133100417Y-113079470D01*
X132890881Y-113086741D01*
X132681047Y-113086477D01*
X132486859Y-113069618D01*
X132302420Y-113034925D01*
X132121832Y-112981161D01*
X131939197Y-112907089D01*
X131863489Y-112871121D01*
X131682938Y-112772023D01*
X131520298Y-112660674D01*
X131367901Y-112531592D01*
X131308622Y-112474295D01*
X131151985Y-112299139D01*
X131016473Y-112108480D01*
X130902766Y-111903606D01*
X130811544Y-111685807D01*
X130743485Y-111456371D01*
X130723326Y-111363803D01*
X130711177Y-111279756D01*
X130703066Y-111176766D01*
X130698985Y-111062035D01*
X130698926Y-110942766D01*
X130702884Y-110826163D01*
X130710851Y-110719429D01*
X130722819Y-110629767D01*
X130724057Y-110622969D01*
X130779911Y-110394241D01*
X130859299Y-110176035D01*
X130960931Y-109969823D01*
X131083522Y-109777072D01*
X131225781Y-109599252D01*
X131386421Y-109437832D01*
X131564155Y-109294281D01*
X131757693Y-109170069D01*
X131965748Y-109066664D01*
X132149237Y-108997465D01*
X132252377Y-108965882D01*
X132347107Y-108941871D01*
X132439870Y-108924537D01*
X132537106Y-108912984D01*
X132645258Y-108906320D01*
X132770767Y-108903648D01*
X132825911Y-108903496D01*
X133100417Y-108903814D01*
X133100417Y-107986836D01*
X133070651Y-107978859D01*
X133045251Y-107975862D01*
X132998256Y-107973797D01*
X132934510Y-107972618D01*
X132858858Y-107972277D01*
X132776146Y-107972726D01*
X132691217Y-107973917D01*
X132608917Y-107975803D01*
X132534091Y-107978337D01*
X132471583Y-107981469D01*
X132426238Y-107985153D01*
X132425729Y-107985211D01*
X132312729Y-108001659D01*
X132185128Y-108026294D01*
X132052662Y-108056917D01*
X131925066Y-108091333D01*
X131843984Y-108116464D01*
X131579447Y-108217502D01*
X131328723Y-108340487D01*
X131092805Y-108484223D01*
X130872680Y-108647513D01*
X130669340Y-108829162D01*
X130483773Y-109027974D01*
X130316970Y-109242753D01*
X130169921Y-109472302D01*
X130043615Y-109715427D01*
X129939042Y-109970930D01*
X129857192Y-110237617D01*
X129799055Y-110514291D01*
X129785838Y-110603125D01*
X129777382Y-110687893D01*
X129771563Y-110791882D01*
X129768382Y-110907991D01*
X129767839Y-111029113D01*
X129769934Y-111148146D01*
X129774666Y-111257986D01*
X129782037Y-111351528D01*
X129785838Y-111383646D01*
X129836759Y-111666294D01*
X129912205Y-111939386D01*
X130011919Y-112202286D01*
X130135646Y-112454363D01*
X130283128Y-112694983D01*
X130361952Y-112805782D01*
X130540230Y-113023277D01*
X130736233Y-113221656D01*
X130948598Y-113400118D01*
X131175959Y-113557867D01*
X131416953Y-113694103D01*
X131670213Y-113808029D01*
X131934377Y-113898847D01*
X132208079Y-113965759D01*
X132398880Y-113997187D01*
X132451354Y-114002510D01*
X132520218Y-114007070D01*
X132600581Y-114010788D01*
X132687550Y-114013587D01*
X132776236Y-114015388D01*
X132861745Y-114016113D01*
X132939187Y-114015685D01*
X132939187Y-114015685D01*
G37*
X132939187Y-114015685D02*
X133003670Y-114014025D01*
X133050303Y-114011055D01*
X133070651Y-114007912D01*
X133100417Y-113999935D01*
X133100417Y-113079470D01*
X132890881Y-113086741D01*
X132681047Y-113086477D01*
X132486859Y-113069618D01*
X132302420Y-113034925D01*
X132121832Y-112981161D01*
X131939197Y-112907089D01*
X131863489Y-112871121D01*
X131682938Y-112772023D01*
X131520298Y-112660674D01*
X131367901Y-112531592D01*
X131308622Y-112474295D01*
X131151985Y-112299139D01*
X131016473Y-112108480D01*
X130902766Y-111903606D01*
X130811544Y-111685807D01*
X130743485Y-111456371D01*
X130723326Y-111363803D01*
X130711177Y-111279756D01*
X130703066Y-111176766D01*
X130698985Y-111062035D01*
X130698926Y-110942766D01*
X130702884Y-110826163D01*
X130710851Y-110719429D01*
X130722819Y-110629767D01*
X130724057Y-110622969D01*
X130779911Y-110394241D01*
X130859299Y-110176035D01*
X130960931Y-109969823D01*
X131083522Y-109777072D01*
X131225781Y-109599252D01*
X131386421Y-109437832D01*
X131564155Y-109294281D01*
X131757693Y-109170069D01*
X131965748Y-109066664D01*
X132149237Y-108997465D01*
X132252377Y-108965882D01*
X132347107Y-108941871D01*
X132439870Y-108924537D01*
X132537106Y-108912984D01*
X132645258Y-108906320D01*
X132770767Y-108903648D01*
X132825911Y-108903496D01*
X133100417Y-108903814D01*
X133100417Y-107986836D01*
X133070651Y-107978859D01*
X133045251Y-107975862D01*
X132998256Y-107973797D01*
X132934510Y-107972618D01*
X132858858Y-107972277D01*
X132776146Y-107972726D01*
X132691217Y-107973917D01*
X132608917Y-107975803D01*
X132534091Y-107978337D01*
X132471583Y-107981469D01*
X132426238Y-107985153D01*
X132425729Y-107985211D01*
X132312729Y-108001659D01*
X132185128Y-108026294D01*
X132052662Y-108056917D01*
X131925066Y-108091333D01*
X131843984Y-108116464D01*
X131579447Y-108217502D01*
X131328723Y-108340487D01*
X131092805Y-108484223D01*
X130872680Y-108647513D01*
X130669340Y-108829162D01*
X130483773Y-109027974D01*
X130316970Y-109242753D01*
X130169921Y-109472302D01*
X130043615Y-109715427D01*
X129939042Y-109970930D01*
X129857192Y-110237617D01*
X129799055Y-110514291D01*
X129785838Y-110603125D01*
X129777382Y-110687893D01*
X129771563Y-110791882D01*
X129768382Y-110907991D01*
X129767839Y-111029113D01*
X129769934Y-111148146D01*
X129774666Y-111257986D01*
X129782037Y-111351528D01*
X129785838Y-111383646D01*
X129836759Y-111666294D01*
X129912205Y-111939386D01*
X130011919Y-112202286D01*
X130135646Y-112454363D01*
X130283128Y-112694983D01*
X130361952Y-112805782D01*
X130540230Y-113023277D01*
X130736233Y-113221656D01*
X130948598Y-113400118D01*
X131175959Y-113557867D01*
X131416953Y-113694103D01*
X131670213Y-113808029D01*
X131934377Y-113898847D01*
X132208079Y-113965759D01*
X132398880Y-113997187D01*
X132451354Y-114002510D01*
X132520218Y-114007070D01*
X132600581Y-114010788D01*
X132687550Y-114013587D01*
X132776236Y-114015388D01*
X132861745Y-114016113D01*
X132939187Y-114015685D01*
G36*
X124964043Y-114114165D02*
G01*
X124987065Y-114076755D01*
X125022534Y-114017486D01*
X125068996Y-113938882D01*
X125124996Y-113843462D01*
X125189081Y-113733750D01*
X125259796Y-113612266D01*
X125335687Y-113481532D01*
X125415299Y-113344070D01*
X125497178Y-113202402D01*
X125579870Y-113059049D01*
X125661921Y-112916533D01*
X125741876Y-112777376D01*
X125818281Y-112644099D01*
X125889682Y-112519224D01*
X125954624Y-112405273D01*
X126011653Y-112304767D01*
X126059315Y-112220228D01*
X126096155Y-112154178D01*
X126120720Y-112109138D01*
X126131554Y-112087630D01*
X126131951Y-112086286D01*
X126118501Y-112068035D01*
X126081114Y-112040118D01*
X126024235Y-112005275D01*
X125952312Y-111966246D01*
X125877015Y-111929157D01*
X125774560Y-111884183D01*
X125666817Y-111843774D01*
X125550073Y-111807031D01*
X125420618Y-111773058D01*
X125274740Y-111740956D01*
X125108726Y-111709827D01*
X124918866Y-111678773D01*
X124722469Y-111649855D01*
X124551834Y-111624200D01*
X124408545Y-111598802D01*
X124289008Y-111572398D01*
X124189630Y-111543727D01*
X124106818Y-111511527D01*
X124036978Y-111474535D01*
X123976518Y-111431488D01*
X123921845Y-111381125D01*
X123904214Y-111362417D01*
X123866000Y-111318861D01*
X123837732Y-111283318D01*
X123824618Y-111262417D01*
X123824268Y-111260703D01*
X123819680Y-111250194D01*
X123803758Y-111250076D01*
X123773266Y-111261746D01*
X123724968Y-111286604D01*
X123655627Y-111326048D01*
X123607439Y-111354413D01*
X123535583Y-111398753D01*
X123479742Y-111436721D01*
X123443667Y-111465584D01*
X123431113Y-111482612D01*
X123431121Y-111482736D01*
X123438906Y-111498963D01*
X123460892Y-111539600D01*
X123495803Y-111602433D01*
X123542363Y-111685248D01*
X123599295Y-111785828D01*
X123665323Y-111901960D01*
X123739172Y-112031429D01*
X123819564Y-112172020D01*
X123905224Y-112321518D01*
X123994876Y-112477708D01*
X124087243Y-112638376D01*
X124181049Y-112801307D01*
X124275018Y-112964287D01*
X124367874Y-113125100D01*
X124458340Y-113281532D01*
X124545141Y-113431367D01*
X124627000Y-113572392D01*
X124702641Y-113702391D01*
X124770787Y-113819151D01*
X124830163Y-113920455D01*
X124879493Y-114004089D01*
X124917500Y-114067838D01*
X124942907Y-114109489D01*
X124954440Y-114126825D01*
X124954923Y-114127195D01*
X124964043Y-114114165D01*
X124964043Y-114114165D01*
G37*
X124964043Y-114114165D02*
X124987065Y-114076755D01*
X125022534Y-114017486D01*
X125068996Y-113938882D01*
X125124996Y-113843462D01*
X125189081Y-113733750D01*
X125259796Y-113612266D01*
X125335687Y-113481532D01*
X125415299Y-113344070D01*
X125497178Y-113202402D01*
X125579870Y-113059049D01*
X125661921Y-112916533D01*
X125741876Y-112777376D01*
X125818281Y-112644099D01*
X125889682Y-112519224D01*
X125954624Y-112405273D01*
X126011653Y-112304767D01*
X126059315Y-112220228D01*
X126096155Y-112154178D01*
X126120720Y-112109138D01*
X126131554Y-112087630D01*
X126131951Y-112086286D01*
X126118501Y-112068035D01*
X126081114Y-112040118D01*
X126024235Y-112005275D01*
X125952312Y-111966246D01*
X125877015Y-111929157D01*
X125774560Y-111884183D01*
X125666817Y-111843774D01*
X125550073Y-111807031D01*
X125420618Y-111773058D01*
X125274740Y-111740956D01*
X125108726Y-111709827D01*
X124918866Y-111678773D01*
X124722469Y-111649855D01*
X124551834Y-111624200D01*
X124408545Y-111598802D01*
X124289008Y-111572398D01*
X124189630Y-111543727D01*
X124106818Y-111511527D01*
X124036978Y-111474535D01*
X123976518Y-111431488D01*
X123921845Y-111381125D01*
X123904214Y-111362417D01*
X123866000Y-111318861D01*
X123837732Y-111283318D01*
X123824618Y-111262417D01*
X123824268Y-111260703D01*
X123819680Y-111250194D01*
X123803758Y-111250076D01*
X123773266Y-111261746D01*
X123724968Y-111286604D01*
X123655627Y-111326048D01*
X123607439Y-111354413D01*
X123535583Y-111398753D01*
X123479742Y-111436721D01*
X123443667Y-111465584D01*
X123431113Y-111482612D01*
X123431121Y-111482736D01*
X123438906Y-111498963D01*
X123460892Y-111539600D01*
X123495803Y-111602433D01*
X123542363Y-111685248D01*
X123599295Y-111785828D01*
X123665323Y-111901960D01*
X123739172Y-112031429D01*
X123819564Y-112172020D01*
X123905224Y-112321518D01*
X123994876Y-112477708D01*
X124087243Y-112638376D01*
X124181049Y-112801307D01*
X124275018Y-112964287D01*
X124367874Y-113125100D01*
X124458340Y-113281532D01*
X124545141Y-113431367D01*
X124627000Y-113572392D01*
X124702641Y-113702391D01*
X124770787Y-113819151D01*
X124830163Y-113920455D01*
X124879493Y-114004089D01*
X124917500Y-114067838D01*
X124942907Y-114109489D01*
X124954440Y-114126825D01*
X124954923Y-114127195D01*
X124964043Y-114114165D01*
G36*
X126787528Y-110965381D02*
G01*
X126798908Y-110946307D01*
X126824488Y-110902579D01*
X126863002Y-110836381D01*
X126913186Y-110749898D01*
X126973775Y-110645315D01*
X127043503Y-110524817D01*
X127121107Y-110390588D01*
X127205320Y-110244813D01*
X127294879Y-110089677D01*
X127386998Y-109930000D01*
X127481076Y-109766883D01*
X127571402Y-109610291D01*
X127656665Y-109462494D01*
X127735557Y-109325760D01*
X127806769Y-109202358D01*
X127868991Y-109094556D01*
X127920913Y-109004623D01*
X127961228Y-108934827D01*
X127988624Y-108887436D01*
X128001507Y-108865214D01*
X128022507Y-108827670D01*
X128033925Y-108804169D01*
X128034551Y-108800080D01*
X128020636Y-108807758D01*
X127981941Y-108829797D01*
X127920487Y-108865029D01*
X127838298Y-108912289D01*
X127737396Y-108970411D01*
X127619805Y-109038229D01*
X127487546Y-109114576D01*
X127342642Y-109198286D01*
X127187117Y-109288194D01*
X127022992Y-109383133D01*
X126960549Y-109419268D01*
X126793487Y-109515917D01*
X126634074Y-109608062D01*
X126484355Y-109694525D01*
X126346376Y-109774129D01*
X126222185Y-109845695D01*
X126113827Y-109908045D01*
X126023348Y-109960002D01*
X125952796Y-110000387D01*
X125904215Y-110028022D01*
X125879654Y-110041728D01*
X125877085Y-110043026D01*
X125884569Y-110054780D01*
X125910614Y-110086205D01*
X125952559Y-110134406D01*
X126007746Y-110196490D01*
X126073517Y-110269561D01*
X126147212Y-110350724D01*
X126226173Y-110437084D01*
X126307740Y-110525747D01*
X126389254Y-110613818D01*
X126468057Y-110698401D01*
X126541490Y-110776603D01*
X126606893Y-110845528D01*
X126661608Y-110902281D01*
X126702977Y-110943968D01*
X126717164Y-110957637D01*
X126764180Y-111001799D01*
X126787528Y-110965381D01*
X126787528Y-110965381D01*
G37*
X126787528Y-110965381D02*
X126798908Y-110946307D01*
X126824488Y-110902579D01*
X126863002Y-110836381D01*
X126913186Y-110749898D01*
X126973775Y-110645315D01*
X127043503Y-110524817D01*
X127121107Y-110390588D01*
X127205320Y-110244813D01*
X127294879Y-110089677D01*
X127386998Y-109930000D01*
X127481076Y-109766883D01*
X127571402Y-109610291D01*
X127656665Y-109462494D01*
X127735557Y-109325760D01*
X127806769Y-109202358D01*
X127868991Y-109094556D01*
X127920913Y-109004623D01*
X127961228Y-108934827D01*
X127988624Y-108887436D01*
X128001507Y-108865214D01*
X128022507Y-108827670D01*
X128033925Y-108804169D01*
X128034551Y-108800080D01*
X128020636Y-108807758D01*
X127981941Y-108829797D01*
X127920487Y-108865029D01*
X127838298Y-108912289D01*
X127737396Y-108970411D01*
X127619805Y-109038229D01*
X127487546Y-109114576D01*
X127342642Y-109198286D01*
X127187117Y-109288194D01*
X127022992Y-109383133D01*
X126960549Y-109419268D01*
X126793487Y-109515917D01*
X126634074Y-109608062D01*
X126484355Y-109694525D01*
X126346376Y-109774129D01*
X126222185Y-109845695D01*
X126113827Y-109908045D01*
X126023348Y-109960002D01*
X125952796Y-110000387D01*
X125904215Y-110028022D01*
X125879654Y-110041728D01*
X125877085Y-110043026D01*
X125884569Y-110054780D01*
X125910614Y-110086205D01*
X125952559Y-110134406D01*
X126007746Y-110196490D01*
X126073517Y-110269561D01*
X126147212Y-110350724D01*
X126226173Y-110437084D01*
X126307740Y-110525747D01*
X126389254Y-110613818D01*
X126468057Y-110698401D01*
X126541490Y-110776603D01*
X126606893Y-110845528D01*
X126661608Y-110902281D01*
X126702977Y-110943968D01*
X126717164Y-110957637D01*
X126764180Y-111001799D01*
X126787528Y-110965381D01*
G36*
X123122094Y-110908842D02*
G01*
X123154619Y-110896264D01*
X123204193Y-110871288D01*
X123275374Y-110832124D01*
X123280916Y-110829012D01*
X123346474Y-110791524D01*
X123401798Y-110758681D01*
X123441455Y-110733795D01*
X123460012Y-110720180D01*
X123460531Y-110719513D01*
X123456048Y-110700610D01*
X123435486Y-110658395D01*
X123400183Y-110595168D01*
X123351480Y-110513228D01*
X123290718Y-110414878D01*
X123219236Y-110302415D01*
X123201445Y-110274835D01*
X123155093Y-110198301D01*
X123121342Y-110132444D01*
X123103153Y-110083218D01*
X123101286Y-110073493D01*
X123102115Y-110030688D01*
X123111394Y-109962791D01*
X123127968Y-109874157D01*
X123150680Y-109769141D01*
X123178373Y-109652098D01*
X123209890Y-109527384D01*
X123244075Y-109399355D01*
X123279771Y-109272366D01*
X123315821Y-109150772D01*
X123351068Y-109038928D01*
X123384356Y-108941190D01*
X123414528Y-108861913D01*
X123435561Y-108814878D01*
X123460337Y-108764775D01*
X123483730Y-108716832D01*
X123484997Y-108714207D01*
X123523699Y-108665780D01*
X123580184Y-108633172D01*
X123645939Y-108617546D01*
X123712451Y-108620063D01*
X123771205Y-108641886D01*
X123804258Y-108670618D01*
X123851859Y-108749417D01*
X123886739Y-108847622D01*
X123905877Y-108955221D01*
X123908588Y-109016220D01*
X123897670Y-109130065D01*
X123865624Y-109224340D01*
X123810726Y-109303621D01*
X123793607Y-109321267D01*
X123742661Y-109370765D01*
X123739163Y-109720638D01*
X123735664Y-110070511D01*
X123824818Y-110205469D01*
X123866654Y-110266555D01*
X123906945Y-110321507D01*
X123939943Y-110362664D01*
X123954126Y-110377808D01*
X123994281Y-110415190D01*
X124048665Y-110385902D01*
X124083039Y-110364916D01*
X124101846Y-110348622D01*
X124103049Y-110345693D01*
X124115903Y-110333272D01*
X124137896Y-110324023D01*
X124159150Y-110315687D01*
X124191694Y-110299851D01*
X124238322Y-110274967D01*
X124301829Y-110239491D01*
X124385008Y-110191877D01*
X124490653Y-110130578D01*
X124548062Y-110097068D01*
X124615594Y-110056929D01*
X124659885Y-110028341D01*
X124684855Y-110007961D01*
X124694423Y-109992447D01*
X124692508Y-109978454D01*
X124690911Y-109975204D01*
X124675376Y-109954734D01*
X124642136Y-109916335D01*
X124595062Y-109864304D01*
X124538028Y-109802934D01*
X124488700Y-109750910D01*
X124375030Y-109627433D01*
X124286105Y-109520409D01*
X124221134Y-109428760D01*
X124179321Y-109351412D01*
X124165217Y-109312134D01*
X124159392Y-109277751D01*
X124153375Y-109219101D01*
X124147696Y-109142883D01*
X124142884Y-109055798D01*
X124140619Y-109000732D01*
X124137459Y-108905536D01*
X124136069Y-108835938D01*
X124136858Y-108786591D01*
X124140235Y-108752146D01*
X124146608Y-108727257D01*
X124156387Y-108706575D01*
X124164067Y-108693947D01*
X124208421Y-108645274D01*
X124265574Y-108611355D01*
X124325708Y-108596562D01*
X124370773Y-108601914D01*
X124411576Y-108625070D01*
X124462724Y-108666538D01*
X124517042Y-108719088D01*
X124567357Y-108775484D01*
X124606494Y-108828495D01*
X124620905Y-108854111D01*
X124642491Y-108889186D01*
X124681753Y-108942611D01*
X124735102Y-109010211D01*
X124798952Y-109087810D01*
X124869715Y-109171232D01*
X124943804Y-109256302D01*
X125017632Y-109338845D01*
X125087611Y-109414684D01*
X125150155Y-109479644D01*
X125199260Y-109527331D01*
X125253779Y-109574968D01*
X125299642Y-109610092D01*
X125331811Y-109629051D01*
X125342489Y-109631136D01*
X125358853Y-109622726D01*
X125399671Y-109600154D01*
X125462586Y-109564776D01*
X125545244Y-109517946D01*
X125645289Y-109461019D01*
X125760366Y-109395351D01*
X125888119Y-109322297D01*
X126026194Y-109243212D01*
X126172234Y-109159452D01*
X126323884Y-109072371D01*
X126478790Y-108983324D01*
X126634595Y-108893668D01*
X126788944Y-108804757D01*
X126939482Y-108717946D01*
X127083854Y-108634591D01*
X127219704Y-108556046D01*
X127344677Y-108483667D01*
X127456417Y-108418810D01*
X127552570Y-108362829D01*
X127630779Y-108317080D01*
X127688689Y-108282917D01*
X127723946Y-108261696D01*
X127734165Y-108255037D01*
X127720402Y-108253720D01*
X127677104Y-108252441D01*
X127605714Y-108251204D01*
X127507673Y-108250017D01*
X127384422Y-108248885D01*
X127237403Y-108247814D01*
X127068057Y-108246811D01*
X126877826Y-108245881D01*
X126668151Y-108245032D01*
X126440473Y-108244268D01*
X126196235Y-108243597D01*
X125936877Y-108243024D01*
X125663841Y-108242556D01*
X125378568Y-108242198D01*
X125082500Y-108241958D01*
X124777079Y-108241841D01*
X124648924Y-108241829D01*
X121548970Y-108241829D01*
X121770053Y-108625153D01*
X121816856Y-108706320D01*
X121877102Y-108810834D01*
X121948778Y-108935199D01*
X122029869Y-109075918D01*
X122118362Y-109229497D01*
X122212240Y-109392438D01*
X122309491Y-109561246D01*
X122408100Y-109732425D01*
X122506053Y-109902479D01*
X122530825Y-109945488D01*
X122621152Y-110102143D01*
X122707289Y-110251197D01*
X122787942Y-110390432D01*
X122861816Y-110517629D01*
X122927617Y-110630568D01*
X122984050Y-110727032D01*
X123029821Y-110804800D01*
X123063635Y-110861654D01*
X123084198Y-110895375D01*
X123089953Y-110903960D01*
X123102058Y-110910811D01*
X123122094Y-110908842D01*
X123122094Y-110908842D01*
G37*
X123122094Y-110908842D02*
X123154619Y-110896264D01*
X123204193Y-110871288D01*
X123275374Y-110832124D01*
X123280916Y-110829012D01*
X123346474Y-110791524D01*
X123401798Y-110758681D01*
X123441455Y-110733795D01*
X123460012Y-110720180D01*
X123460531Y-110719513D01*
X123456048Y-110700610D01*
X123435486Y-110658395D01*
X123400183Y-110595168D01*
X123351480Y-110513228D01*
X123290718Y-110414878D01*
X123219236Y-110302415D01*
X123201445Y-110274835D01*
X123155093Y-110198301D01*
X123121342Y-110132444D01*
X123103153Y-110083218D01*
X123101286Y-110073493D01*
X123102115Y-110030688D01*
X123111394Y-109962791D01*
X123127968Y-109874157D01*
X123150680Y-109769141D01*
X123178373Y-109652098D01*
X123209890Y-109527384D01*
X123244075Y-109399355D01*
X123279771Y-109272366D01*
X123315821Y-109150772D01*
X123351068Y-109038928D01*
X123384356Y-108941190D01*
X123414528Y-108861913D01*
X123435561Y-108814878D01*
X123460337Y-108764775D01*
X123483730Y-108716832D01*
X123484997Y-108714207D01*
X123523699Y-108665780D01*
X123580184Y-108633172D01*
X123645939Y-108617546D01*
X123712451Y-108620063D01*
X123771205Y-108641886D01*
X123804258Y-108670618D01*
X123851859Y-108749417D01*
X123886739Y-108847622D01*
X123905877Y-108955221D01*
X123908588Y-109016220D01*
X123897670Y-109130065D01*
X123865624Y-109224340D01*
X123810726Y-109303621D01*
X123793607Y-109321267D01*
X123742661Y-109370765D01*
X123739163Y-109720638D01*
X123735664Y-110070511D01*
X123824818Y-110205469D01*
X123866654Y-110266555D01*
X123906945Y-110321507D01*
X123939943Y-110362664D01*
X123954126Y-110377808D01*
X123994281Y-110415190D01*
X124048665Y-110385902D01*
X124083039Y-110364916D01*
X124101846Y-110348622D01*
X124103049Y-110345693D01*
X124115903Y-110333272D01*
X124137896Y-110324023D01*
X124159150Y-110315687D01*
X124191694Y-110299851D01*
X124238322Y-110274967D01*
X124301829Y-110239491D01*
X124385008Y-110191877D01*
X124490653Y-110130578D01*
X124548062Y-110097068D01*
X124615594Y-110056929D01*
X124659885Y-110028341D01*
X124684855Y-110007961D01*
X124694423Y-109992447D01*
X124692508Y-109978454D01*
X124690911Y-109975204D01*
X124675376Y-109954734D01*
X124642136Y-109916335D01*
X124595062Y-109864304D01*
X124538028Y-109802934D01*
X124488700Y-109750910D01*
X124375030Y-109627433D01*
X124286105Y-109520409D01*
X124221134Y-109428760D01*
X124179321Y-109351412D01*
X124165217Y-109312134D01*
X124159392Y-109277751D01*
X124153375Y-109219101D01*
X124147696Y-109142883D01*
X124142884Y-109055798D01*
X124140619Y-109000732D01*
X124137459Y-108905536D01*
X124136069Y-108835938D01*
X124136858Y-108786591D01*
X124140235Y-108752146D01*
X124146608Y-108727257D01*
X124156387Y-108706575D01*
X124164067Y-108693947D01*
X124208421Y-108645274D01*
X124265574Y-108611355D01*
X124325708Y-108596562D01*
X124370773Y-108601914D01*
X124411576Y-108625070D01*
X124462724Y-108666538D01*
X124517042Y-108719088D01*
X124567357Y-108775484D01*
X124606494Y-108828495D01*
X124620905Y-108854111D01*
X124642491Y-108889186D01*
X124681753Y-108942611D01*
X124735102Y-109010211D01*
X124798952Y-109087810D01*
X124869715Y-109171232D01*
X124943804Y-109256302D01*
X125017632Y-109338845D01*
X125087611Y-109414684D01*
X125150155Y-109479644D01*
X125199260Y-109527331D01*
X125253779Y-109574968D01*
X125299642Y-109610092D01*
X125331811Y-109629051D01*
X125342489Y-109631136D01*
X125358853Y-109622726D01*
X125399671Y-109600154D01*
X125462586Y-109564776D01*
X125545244Y-109517946D01*
X125645289Y-109461019D01*
X125760366Y-109395351D01*
X125888119Y-109322297D01*
X126026194Y-109243212D01*
X126172234Y-109159452D01*
X126323884Y-109072371D01*
X126478790Y-108983324D01*
X126634595Y-108893668D01*
X126788944Y-108804757D01*
X126939482Y-108717946D01*
X127083854Y-108634591D01*
X127219704Y-108556046D01*
X127344677Y-108483667D01*
X127456417Y-108418810D01*
X127552570Y-108362829D01*
X127630779Y-108317080D01*
X127688689Y-108282917D01*
X127723946Y-108261696D01*
X127734165Y-108255037D01*
X127720402Y-108253720D01*
X127677104Y-108252441D01*
X127605714Y-108251204D01*
X127507673Y-108250017D01*
X127384422Y-108248885D01*
X127237403Y-108247814D01*
X127068057Y-108246811D01*
X126877826Y-108245881D01*
X126668151Y-108245032D01*
X126440473Y-108244268D01*
X126196235Y-108243597D01*
X125936877Y-108243024D01*
X125663841Y-108242556D01*
X125378568Y-108242198D01*
X125082500Y-108241958D01*
X124777079Y-108241841D01*
X124648924Y-108241829D01*
X121548970Y-108241829D01*
X121770053Y-108625153D01*
X121816856Y-108706320D01*
X121877102Y-108810834D01*
X121948778Y-108935199D01*
X122029869Y-109075918D01*
X122118362Y-109229497D01*
X122212240Y-109392438D01*
X122309491Y-109561246D01*
X122408100Y-109732425D01*
X122506053Y-109902479D01*
X122530825Y-109945488D01*
X122621152Y-110102143D01*
X122707289Y-110251197D01*
X122787942Y-110390432D01*
X122861816Y-110517629D01*
X122927617Y-110630568D01*
X122984050Y-110727032D01*
X123029821Y-110804800D01*
X123063635Y-110861654D01*
X123084198Y-110895375D01*
X123089953Y-110903960D01*
X123102058Y-110910811D01*
X123122094Y-110908842D01*
D11*
X118170000Y-76140000D02*
X116840000Y-76140000D01*
X118170000Y-77470000D02*
X118170000Y-76140000D01*
X115570000Y-76140000D02*
X112970000Y-76140000D01*
X115570000Y-78740000D02*
X115570000Y-76140000D01*
X118170000Y-78740000D02*
X115570000Y-78740000D01*
X112970000Y-76140000D02*
X112970000Y-114360000D01*
X118170000Y-78740000D02*
X118170000Y-114360000D01*
X118170000Y-114360000D02*
X112970000Y-114360000D01*
X153550000Y-107940000D02*
X154050000Y-107940000D01*
X153550000Y-105660000D02*
X154050000Y-105660000D01*
X167020000Y-82640000D02*
X167020000Y-84100000D01*
X170180000Y-82640000D02*
X170180000Y-84800000D01*
X170180000Y-82640000D02*
X169250000Y-82640000D01*
X167020000Y-82640000D02*
X167950000Y-82640000D01*
X137870000Y-95660000D02*
X139330000Y-95660000D01*
X137870000Y-92500000D02*
X140030000Y-92500000D01*
X137870000Y-92500000D02*
X137870000Y-93430000D01*
X137870000Y-95660000D02*
X137870000Y-94730000D01*
D12*
X120983333Y-109942380D02*
X120983333Y-110656666D01*
X121030952Y-110799523D01*
X121126190Y-110894761D01*
X121269047Y-110942380D01*
X121364285Y-110942380D01*
X119983333Y-110942380D02*
X120554761Y-110942380D01*
X120269047Y-110942380D02*
X120269047Y-109942380D01*
X120364285Y-110085238D01*
X120459523Y-110180476D01*
X120554761Y-110228095D01*
X154490476Y-105152380D02*
X154823809Y-104676190D01*
X155061904Y-105152380D02*
X155061904Y-104152380D01*
X154680952Y-104152380D01*
X154585714Y-104200000D01*
X154538095Y-104247619D01*
X154490476Y-104342857D01*
X154490476Y-104485714D01*
X154538095Y-104580952D01*
X154585714Y-104628571D01*
X154680952Y-104676190D01*
X155061904Y-104676190D01*
X154061904Y-105152380D02*
X154061904Y-104152380D01*
X153490476Y-105152380D01*
X153490476Y-104152380D01*
X152490476Y-105152380D02*
X153061904Y-105152380D01*
X152776190Y-105152380D02*
X152776190Y-104152380D01*
X152871428Y-104295238D01*
X152966666Y-104390476D01*
X153061904Y-104438095D01*
X166252380Y-86833333D02*
X165776190Y-86500000D01*
X166252380Y-86261904D02*
X165252380Y-86261904D01*
X165252380Y-86642857D01*
X165300000Y-86738095D01*
X165347619Y-86785714D01*
X165442857Y-86833333D01*
X165585714Y-86833333D01*
X165680952Y-86785714D01*
X165728571Y-86738095D01*
X165776190Y-86642857D01*
X165776190Y-86261904D01*
X166252380Y-87309523D02*
X166252380Y-87500000D01*
X166204761Y-87595238D01*
X166157142Y-87642857D01*
X166014285Y-87738095D01*
X165823809Y-87785714D01*
X165442857Y-87785714D01*
X165347619Y-87738095D01*
X165300000Y-87690476D01*
X165252380Y-87595238D01*
X165252380Y-87404761D01*
X165300000Y-87309523D01*
X165347619Y-87261904D01*
X165442857Y-87214285D01*
X165680952Y-87214285D01*
X165776190Y-87261904D01*
X165823809Y-87309523D01*
X165871428Y-87404761D01*
X165871428Y-87595238D01*
X165823809Y-87690476D01*
X165776190Y-87738095D01*
X165680952Y-87785714D01*
X167366666Y-87822380D02*
X167700000Y-87346190D01*
X167938095Y-87822380D02*
X167938095Y-86822380D01*
X167557142Y-86822380D01*
X167461904Y-86870000D01*
X167414285Y-86917619D01*
X167366666Y-87012857D01*
X167366666Y-87155714D01*
X167414285Y-87250952D01*
X167461904Y-87298571D01*
X167557142Y-87346190D01*
X167938095Y-87346190D01*
X166795238Y-87250952D02*
X166890476Y-87203333D01*
X166938095Y-87155714D01*
X166985714Y-87060476D01*
X166985714Y-87012857D01*
X166938095Y-86917619D01*
X166890476Y-86870000D01*
X166795238Y-86822380D01*
X166604761Y-86822380D01*
X166509523Y-86870000D01*
X166461904Y-86917619D01*
X166414285Y-87012857D01*
X166414285Y-87060476D01*
X166461904Y-87155714D01*
X166509523Y-87203333D01*
X166604761Y-87250952D01*
X166795238Y-87250952D01*
X166890476Y-87298571D01*
X166938095Y-87346190D01*
X166985714Y-87441428D01*
X166985714Y-87631904D01*
X166938095Y-87727142D01*
X166890476Y-87774761D01*
X166795238Y-87822380D01*
X166604761Y-87822380D01*
X166509523Y-87774761D01*
X166461904Y-87727142D01*
X166414285Y-87631904D01*
X166414285Y-87441428D01*
X166461904Y-87346190D01*
X166509523Y-87298571D01*
X166604761Y-87250952D01*
X169666666Y-87822380D02*
X170000000Y-87346190D01*
X170238095Y-87822380D02*
X170238095Y-86822380D01*
X169857142Y-86822380D01*
X169761904Y-86870000D01*
X169714285Y-86917619D01*
X169666666Y-87012857D01*
X169666666Y-87155714D01*
X169714285Y-87250952D01*
X169761904Y-87298571D01*
X169857142Y-87346190D01*
X170238095Y-87346190D01*
X169333333Y-86822380D02*
X168666666Y-86822380D01*
X169095238Y-87822380D01*
X141796666Y-96872380D02*
X142130000Y-96396190D01*
X142368095Y-96872380D02*
X142368095Y-95872380D01*
X141987142Y-95872380D01*
X141891904Y-95920000D01*
X141844285Y-95967619D01*
X141796666Y-96062857D01*
X141796666Y-96205714D01*
X141844285Y-96300952D01*
X141891904Y-96348571D01*
X141987142Y-96396190D01*
X142368095Y-96396190D01*
X140939523Y-95872380D02*
X141130000Y-95872380D01*
X141225238Y-95920000D01*
X141272857Y-95967619D01*
X141368095Y-96110476D01*
X141415714Y-96300952D01*
X141415714Y-96681904D01*
X141368095Y-96777142D01*
X141320476Y-96824761D01*
X141225238Y-96872380D01*
X141034761Y-96872380D01*
X140939523Y-96824761D01*
X140891904Y-96777142D01*
X140844285Y-96681904D01*
X140844285Y-96443809D01*
X140891904Y-96348571D01*
X140939523Y-96300952D01*
X141034761Y-96253333D01*
X141225238Y-96253333D01*
X141320476Y-96300952D01*
X141368095Y-96348571D01*
X141415714Y-96443809D01*
X137296666Y-89632380D02*
X137630000Y-89156190D01*
X137868095Y-89632380D02*
X137868095Y-88632380D01*
X137487142Y-88632380D01*
X137391904Y-88680000D01*
X137344285Y-88727619D01*
X137296666Y-88822857D01*
X137296666Y-88965714D01*
X137344285Y-89060952D01*
X137391904Y-89108571D01*
X137487142Y-89156190D01*
X137868095Y-89156190D01*
X136391904Y-88632380D02*
X136868095Y-88632380D01*
X136915714Y-89108571D01*
X136868095Y-89060952D01*
X136772857Y-89013333D01*
X136534761Y-89013333D01*
X136439523Y-89060952D01*
X136391904Y-89108571D01*
X136344285Y-89203809D01*
X136344285Y-89441904D01*
X136391904Y-89537142D01*
X136439523Y-89584761D01*
X136534761Y-89632380D01*
X136772857Y-89632380D01*
X136868095Y-89584761D01*
X136915714Y-89537142D01*
X139796666Y-89632380D02*
X140130000Y-89156190D01*
X140368095Y-89632380D02*
X140368095Y-88632380D01*
X139987142Y-88632380D01*
X139891904Y-88680000D01*
X139844285Y-88727619D01*
X139796666Y-88822857D01*
X139796666Y-88965714D01*
X139844285Y-89060952D01*
X139891904Y-89108571D01*
X139987142Y-89156190D01*
X140368095Y-89156190D01*
X138939523Y-88965714D02*
X138939523Y-89632380D01*
X139177619Y-88584761D02*
X139415714Y-89299047D01*
X138796666Y-89299047D01*
X171647619Y-82304761D02*
X171600000Y-82209523D01*
X171504761Y-82114285D01*
X171361904Y-81971428D01*
X171314285Y-81876190D01*
X171314285Y-81780952D01*
X171552380Y-81828571D02*
X171504761Y-81733333D01*
X171409523Y-81638095D01*
X171219047Y-81590476D01*
X170885714Y-81590476D01*
X170695238Y-81638095D01*
X170600000Y-81733333D01*
X170552380Y-81828571D01*
X170552380Y-82019047D01*
X170600000Y-82114285D01*
X170695238Y-82209523D01*
X170885714Y-82257142D01*
X171219047Y-82257142D01*
X171409523Y-82209523D01*
X171504761Y-82114285D01*
X171552380Y-82019047D01*
X171552380Y-81828571D01*
X170647619Y-82638095D02*
X170600000Y-82685714D01*
X170552380Y-82780952D01*
X170552380Y-83019047D01*
X170600000Y-83114285D01*
X170647619Y-83161904D01*
X170742857Y-83209523D01*
X170838095Y-83209523D01*
X170980952Y-83161904D01*
X171552380Y-82590476D01*
X171552380Y-83209523D01*
X135025238Y-95727619D02*
X135120476Y-95680000D01*
X135215714Y-95584761D01*
X135358571Y-95441904D01*
X135453809Y-95394285D01*
X135549047Y-95394285D01*
X135501428Y-95632380D02*
X135596666Y-95584761D01*
X135691904Y-95489523D01*
X135739523Y-95299047D01*
X135739523Y-94965714D01*
X135691904Y-94775238D01*
X135596666Y-94680000D01*
X135501428Y-94632380D01*
X135310952Y-94632380D01*
X135215714Y-94680000D01*
X135120476Y-94775238D01*
X135072857Y-94965714D01*
X135072857Y-95299047D01*
X135120476Y-95489523D01*
X135215714Y-95584761D01*
X135310952Y-95632380D01*
X135501428Y-95632380D01*
X134120476Y-95632380D02*
X134691904Y-95632380D01*
X134406190Y-95632380D02*
X134406190Y-94632380D01*
X134501428Y-94775238D01*
X134596666Y-94870476D01*
X134691904Y-94918095D01*
X166057142Y-80233333D02*
X166104761Y-80185714D01*
X166152380Y-80042857D01*
X166152380Y-79947619D01*
X166104761Y-79804761D01*
X166009523Y-79709523D01*
X165914285Y-79661904D01*
X165723809Y-79614285D01*
X165580952Y-79614285D01*
X165390476Y-79661904D01*
X165295238Y-79709523D01*
X165200000Y-79804761D01*
X165152380Y-79947619D01*
X165152380Y-80042857D01*
X165200000Y-80185714D01*
X165247619Y-80233333D01*
X165152380Y-80566666D02*
X165152380Y-81185714D01*
X165533333Y-80852380D01*
X165533333Y-80995238D01*
X165580952Y-81090476D01*
X165628571Y-81138095D01*
X165723809Y-81185714D01*
X165961904Y-81185714D01*
X166057142Y-81138095D01*
X166104761Y-81090476D01*
X166152380Y-80995238D01*
X166152380Y-80709523D01*
X166104761Y-80614285D01*
X166057142Y-80566666D01*
X135226666Y-96877142D02*
X135274285Y-96924761D01*
X135417142Y-96972380D01*
X135512380Y-96972380D01*
X135655238Y-96924761D01*
X135750476Y-96829523D01*
X135798095Y-96734285D01*
X135845714Y-96543809D01*
X135845714Y-96400952D01*
X135798095Y-96210476D01*
X135750476Y-96115238D01*
X135655238Y-96020000D01*
X135512380Y-95972380D01*
X135417142Y-95972380D01*
X135274285Y-96020000D01*
X135226666Y-96067619D01*
X134845714Y-96067619D02*
X134798095Y-96020000D01*
X134702857Y-95972380D01*
X134464761Y-95972380D01*
X134369523Y-96020000D01*
X134321904Y-96067619D01*
X134274285Y-96162857D01*
X134274285Y-96258095D01*
X134321904Y-96400952D01*
X134893333Y-96972380D01*
X134274285Y-96972380D01*
M02*
