G04 #@! TF.GenerationSoftware,KiCad,Pcbnew,5.1.2+dfsg1-1*
G04 #@! TF.CreationDate,2019-08-07T20:01:01+08:00*
G04 #@! TF.ProjectId,LCD_MINI,4c43445f-4d49-44e4-992e-6b696361645f,rev?*
G04 #@! TF.SameCoordinates,Original*
G04 #@! TF.FileFunction,Copper,L2,Bot*
G04 #@! TF.FilePolarity,Positive*
%FSLAX46Y46*%
G04 Gerber Fmt 4.6, Leading zero omitted, Abs format (unit mm)*
G04 Created by KiCad (PCBNEW 5.1.2+dfsg1-1) date 2019-08-07 20:01:01*
%MOMM*%
%LPD*%
G04 APERTURE LIST*
%ADD10O,1.700000X1.700000*%
%ADD11R,1.700000X1.700000*%
%ADD12R,2.000000X2.000000*%
%ADD13C,2.000000*%
%ADD14R,3.200000X2.000000*%
%ADD15R,0.500000X0.320000*%
%ADD16C,0.100000*%
%ADD17C,0.590000*%
%ADD18R,0.800000X0.900000*%
%ADD19R,0.900000X0.800000*%
%ADD20C,0.800000*%
%ADD21C,0.500000*%
%ADD22C,0.250000*%
%ADD23C,0.254000*%
G04 APERTURE END LIST*
D10*
X114300000Y-113030000D03*
X116840000Y-113030000D03*
X114300000Y-110490000D03*
X116840000Y-110490000D03*
X114300000Y-107950000D03*
X116840000Y-107950000D03*
X114300000Y-105410000D03*
X116840000Y-105410000D03*
X114300000Y-102870000D03*
X116840000Y-102870000D03*
X114300000Y-100330000D03*
X116840000Y-100330000D03*
X114300000Y-97790000D03*
X116840000Y-97790000D03*
X114300000Y-95250000D03*
X116840000Y-95250000D03*
X114300000Y-92710000D03*
X116840000Y-92710000D03*
X114300000Y-90170000D03*
X116840000Y-90170000D03*
X114300000Y-87630000D03*
X116840000Y-87630000D03*
X114300000Y-85090000D03*
X116840000Y-85090000D03*
X114300000Y-82550000D03*
X116840000Y-82550000D03*
X114300000Y-80010000D03*
X116840000Y-80010000D03*
X114300000Y-77470000D03*
D11*
X116840000Y-77470000D03*
D12*
X158700000Y-104400000D03*
D13*
X158700000Y-106900000D03*
X158700000Y-109400000D03*
D14*
X166200000Y-101300000D03*
X166200000Y-112500000D03*
D13*
X173200000Y-104400000D03*
X173200000Y-109400000D03*
D15*
X153300000Y-107550000D03*
X153300000Y-107050000D03*
X153300000Y-106050000D03*
X153300000Y-106550000D03*
X154300000Y-107550000D03*
X154300000Y-106550000D03*
X154300000Y-107050000D03*
X154300000Y-106050000D03*
D16*
G36*
X165886958Y-85090710D02*
G01*
X165901276Y-85092834D01*
X165915317Y-85096351D01*
X165928946Y-85101228D01*
X165942031Y-85107417D01*
X165954447Y-85114858D01*
X165966073Y-85123481D01*
X165976798Y-85133202D01*
X165986519Y-85143927D01*
X165995142Y-85155553D01*
X166002583Y-85167969D01*
X166008772Y-85181054D01*
X166013649Y-85194683D01*
X166017166Y-85208724D01*
X166019290Y-85223042D01*
X166020000Y-85237500D01*
X166020000Y-85532500D01*
X166019290Y-85546958D01*
X166017166Y-85561276D01*
X166013649Y-85575317D01*
X166008772Y-85588946D01*
X166002583Y-85602031D01*
X165995142Y-85614447D01*
X165986519Y-85626073D01*
X165976798Y-85636798D01*
X165966073Y-85646519D01*
X165954447Y-85655142D01*
X165942031Y-85662583D01*
X165928946Y-85668772D01*
X165915317Y-85673649D01*
X165901276Y-85677166D01*
X165886958Y-85679290D01*
X165872500Y-85680000D01*
X165527500Y-85680000D01*
X165513042Y-85679290D01*
X165498724Y-85677166D01*
X165484683Y-85673649D01*
X165471054Y-85668772D01*
X165457969Y-85662583D01*
X165445553Y-85655142D01*
X165433927Y-85646519D01*
X165423202Y-85636798D01*
X165413481Y-85626073D01*
X165404858Y-85614447D01*
X165397417Y-85602031D01*
X165391228Y-85588946D01*
X165386351Y-85575317D01*
X165382834Y-85561276D01*
X165380710Y-85546958D01*
X165380000Y-85532500D01*
X165380000Y-85237500D01*
X165380710Y-85223042D01*
X165382834Y-85208724D01*
X165386351Y-85194683D01*
X165391228Y-85181054D01*
X165397417Y-85167969D01*
X165404858Y-85155553D01*
X165413481Y-85143927D01*
X165423202Y-85133202D01*
X165433927Y-85123481D01*
X165445553Y-85114858D01*
X165457969Y-85107417D01*
X165471054Y-85101228D01*
X165484683Y-85096351D01*
X165498724Y-85092834D01*
X165513042Y-85090710D01*
X165527500Y-85090000D01*
X165872500Y-85090000D01*
X165886958Y-85090710D01*
X165886958Y-85090710D01*
G37*
D17*
X165700000Y-85385000D03*
D16*
G36*
X165886958Y-84120710D02*
G01*
X165901276Y-84122834D01*
X165915317Y-84126351D01*
X165928946Y-84131228D01*
X165942031Y-84137417D01*
X165954447Y-84144858D01*
X165966073Y-84153481D01*
X165976798Y-84163202D01*
X165986519Y-84173927D01*
X165995142Y-84185553D01*
X166002583Y-84197969D01*
X166008772Y-84211054D01*
X166013649Y-84224683D01*
X166017166Y-84238724D01*
X166019290Y-84253042D01*
X166020000Y-84267500D01*
X166020000Y-84562500D01*
X166019290Y-84576958D01*
X166017166Y-84591276D01*
X166013649Y-84605317D01*
X166008772Y-84618946D01*
X166002583Y-84632031D01*
X165995142Y-84644447D01*
X165986519Y-84656073D01*
X165976798Y-84666798D01*
X165966073Y-84676519D01*
X165954447Y-84685142D01*
X165942031Y-84692583D01*
X165928946Y-84698772D01*
X165915317Y-84703649D01*
X165901276Y-84707166D01*
X165886958Y-84709290D01*
X165872500Y-84710000D01*
X165527500Y-84710000D01*
X165513042Y-84709290D01*
X165498724Y-84707166D01*
X165484683Y-84703649D01*
X165471054Y-84698772D01*
X165457969Y-84692583D01*
X165445553Y-84685142D01*
X165433927Y-84676519D01*
X165423202Y-84666798D01*
X165413481Y-84656073D01*
X165404858Y-84644447D01*
X165397417Y-84632031D01*
X165391228Y-84618946D01*
X165386351Y-84605317D01*
X165382834Y-84591276D01*
X165380710Y-84576958D01*
X165380000Y-84562500D01*
X165380000Y-84267500D01*
X165380710Y-84253042D01*
X165382834Y-84238724D01*
X165386351Y-84224683D01*
X165391228Y-84211054D01*
X165397417Y-84197969D01*
X165404858Y-84185553D01*
X165413481Y-84173927D01*
X165423202Y-84163202D01*
X165433927Y-84153481D01*
X165445553Y-84144858D01*
X165457969Y-84137417D01*
X165471054Y-84131228D01*
X165484683Y-84126351D01*
X165498724Y-84122834D01*
X165513042Y-84120710D01*
X165527500Y-84120000D01*
X165872500Y-84120000D01*
X165886958Y-84120710D01*
X165886958Y-84120710D01*
G37*
D17*
X165700000Y-84415000D03*
D16*
G36*
X167846958Y-85880710D02*
G01*
X167861276Y-85882834D01*
X167875317Y-85886351D01*
X167888946Y-85891228D01*
X167902031Y-85897417D01*
X167914447Y-85904858D01*
X167926073Y-85913481D01*
X167936798Y-85923202D01*
X167946519Y-85933927D01*
X167955142Y-85945553D01*
X167962583Y-85957969D01*
X167968772Y-85971054D01*
X167973649Y-85984683D01*
X167977166Y-85998724D01*
X167979290Y-86013042D01*
X167980000Y-86027500D01*
X167980000Y-86372500D01*
X167979290Y-86386958D01*
X167977166Y-86401276D01*
X167973649Y-86415317D01*
X167968772Y-86428946D01*
X167962583Y-86442031D01*
X167955142Y-86454447D01*
X167946519Y-86466073D01*
X167936798Y-86476798D01*
X167926073Y-86486519D01*
X167914447Y-86495142D01*
X167902031Y-86502583D01*
X167888946Y-86508772D01*
X167875317Y-86513649D01*
X167861276Y-86517166D01*
X167846958Y-86519290D01*
X167832500Y-86520000D01*
X167537500Y-86520000D01*
X167523042Y-86519290D01*
X167508724Y-86517166D01*
X167494683Y-86513649D01*
X167481054Y-86508772D01*
X167467969Y-86502583D01*
X167455553Y-86495142D01*
X167443927Y-86486519D01*
X167433202Y-86476798D01*
X167423481Y-86466073D01*
X167414858Y-86454447D01*
X167407417Y-86442031D01*
X167401228Y-86428946D01*
X167396351Y-86415317D01*
X167392834Y-86401276D01*
X167390710Y-86386958D01*
X167390000Y-86372500D01*
X167390000Y-86027500D01*
X167390710Y-86013042D01*
X167392834Y-85998724D01*
X167396351Y-85984683D01*
X167401228Y-85971054D01*
X167407417Y-85957969D01*
X167414858Y-85945553D01*
X167423481Y-85933927D01*
X167433202Y-85923202D01*
X167443927Y-85913481D01*
X167455553Y-85904858D01*
X167467969Y-85897417D01*
X167481054Y-85891228D01*
X167494683Y-85886351D01*
X167508724Y-85882834D01*
X167523042Y-85880710D01*
X167537500Y-85880000D01*
X167832500Y-85880000D01*
X167846958Y-85880710D01*
X167846958Y-85880710D01*
G37*
D17*
X167685000Y-86200000D03*
D16*
G36*
X166876958Y-85880710D02*
G01*
X166891276Y-85882834D01*
X166905317Y-85886351D01*
X166918946Y-85891228D01*
X166932031Y-85897417D01*
X166944447Y-85904858D01*
X166956073Y-85913481D01*
X166966798Y-85923202D01*
X166976519Y-85933927D01*
X166985142Y-85945553D01*
X166992583Y-85957969D01*
X166998772Y-85971054D01*
X167003649Y-85984683D01*
X167007166Y-85998724D01*
X167009290Y-86013042D01*
X167010000Y-86027500D01*
X167010000Y-86372500D01*
X167009290Y-86386958D01*
X167007166Y-86401276D01*
X167003649Y-86415317D01*
X166998772Y-86428946D01*
X166992583Y-86442031D01*
X166985142Y-86454447D01*
X166976519Y-86466073D01*
X166966798Y-86476798D01*
X166956073Y-86486519D01*
X166944447Y-86495142D01*
X166932031Y-86502583D01*
X166918946Y-86508772D01*
X166905317Y-86513649D01*
X166891276Y-86517166D01*
X166876958Y-86519290D01*
X166862500Y-86520000D01*
X166567500Y-86520000D01*
X166553042Y-86519290D01*
X166538724Y-86517166D01*
X166524683Y-86513649D01*
X166511054Y-86508772D01*
X166497969Y-86502583D01*
X166485553Y-86495142D01*
X166473927Y-86486519D01*
X166463202Y-86476798D01*
X166453481Y-86466073D01*
X166444858Y-86454447D01*
X166437417Y-86442031D01*
X166431228Y-86428946D01*
X166426351Y-86415317D01*
X166422834Y-86401276D01*
X166420710Y-86386958D01*
X166420000Y-86372500D01*
X166420000Y-86027500D01*
X166420710Y-86013042D01*
X166422834Y-85998724D01*
X166426351Y-85984683D01*
X166431228Y-85971054D01*
X166437417Y-85957969D01*
X166444858Y-85945553D01*
X166453481Y-85933927D01*
X166463202Y-85923202D01*
X166473927Y-85913481D01*
X166485553Y-85904858D01*
X166497969Y-85897417D01*
X166511054Y-85891228D01*
X166524683Y-85886351D01*
X166538724Y-85882834D01*
X166553042Y-85880710D01*
X166567500Y-85880000D01*
X166862500Y-85880000D01*
X166876958Y-85880710D01*
X166876958Y-85880710D01*
G37*
D17*
X166715000Y-86200000D03*
D16*
G36*
X170146958Y-85880710D02*
G01*
X170161276Y-85882834D01*
X170175317Y-85886351D01*
X170188946Y-85891228D01*
X170202031Y-85897417D01*
X170214447Y-85904858D01*
X170226073Y-85913481D01*
X170236798Y-85923202D01*
X170246519Y-85933927D01*
X170255142Y-85945553D01*
X170262583Y-85957969D01*
X170268772Y-85971054D01*
X170273649Y-85984683D01*
X170277166Y-85998724D01*
X170279290Y-86013042D01*
X170280000Y-86027500D01*
X170280000Y-86372500D01*
X170279290Y-86386958D01*
X170277166Y-86401276D01*
X170273649Y-86415317D01*
X170268772Y-86428946D01*
X170262583Y-86442031D01*
X170255142Y-86454447D01*
X170246519Y-86466073D01*
X170236798Y-86476798D01*
X170226073Y-86486519D01*
X170214447Y-86495142D01*
X170202031Y-86502583D01*
X170188946Y-86508772D01*
X170175317Y-86513649D01*
X170161276Y-86517166D01*
X170146958Y-86519290D01*
X170132500Y-86520000D01*
X169837500Y-86520000D01*
X169823042Y-86519290D01*
X169808724Y-86517166D01*
X169794683Y-86513649D01*
X169781054Y-86508772D01*
X169767969Y-86502583D01*
X169755553Y-86495142D01*
X169743927Y-86486519D01*
X169733202Y-86476798D01*
X169723481Y-86466073D01*
X169714858Y-86454447D01*
X169707417Y-86442031D01*
X169701228Y-86428946D01*
X169696351Y-86415317D01*
X169692834Y-86401276D01*
X169690710Y-86386958D01*
X169690000Y-86372500D01*
X169690000Y-86027500D01*
X169690710Y-86013042D01*
X169692834Y-85998724D01*
X169696351Y-85984683D01*
X169701228Y-85971054D01*
X169707417Y-85957969D01*
X169714858Y-85945553D01*
X169723481Y-85933927D01*
X169733202Y-85923202D01*
X169743927Y-85913481D01*
X169755553Y-85904858D01*
X169767969Y-85897417D01*
X169781054Y-85891228D01*
X169794683Y-85886351D01*
X169808724Y-85882834D01*
X169823042Y-85880710D01*
X169837500Y-85880000D01*
X170132500Y-85880000D01*
X170146958Y-85880710D01*
X170146958Y-85880710D01*
G37*
D17*
X169985000Y-86200000D03*
D16*
G36*
X169176958Y-85880710D02*
G01*
X169191276Y-85882834D01*
X169205317Y-85886351D01*
X169218946Y-85891228D01*
X169232031Y-85897417D01*
X169244447Y-85904858D01*
X169256073Y-85913481D01*
X169266798Y-85923202D01*
X169276519Y-85933927D01*
X169285142Y-85945553D01*
X169292583Y-85957969D01*
X169298772Y-85971054D01*
X169303649Y-85984683D01*
X169307166Y-85998724D01*
X169309290Y-86013042D01*
X169310000Y-86027500D01*
X169310000Y-86372500D01*
X169309290Y-86386958D01*
X169307166Y-86401276D01*
X169303649Y-86415317D01*
X169298772Y-86428946D01*
X169292583Y-86442031D01*
X169285142Y-86454447D01*
X169276519Y-86466073D01*
X169266798Y-86476798D01*
X169256073Y-86486519D01*
X169244447Y-86495142D01*
X169232031Y-86502583D01*
X169218946Y-86508772D01*
X169205317Y-86513649D01*
X169191276Y-86517166D01*
X169176958Y-86519290D01*
X169162500Y-86520000D01*
X168867500Y-86520000D01*
X168853042Y-86519290D01*
X168838724Y-86517166D01*
X168824683Y-86513649D01*
X168811054Y-86508772D01*
X168797969Y-86502583D01*
X168785553Y-86495142D01*
X168773927Y-86486519D01*
X168763202Y-86476798D01*
X168753481Y-86466073D01*
X168744858Y-86454447D01*
X168737417Y-86442031D01*
X168731228Y-86428946D01*
X168726351Y-86415317D01*
X168722834Y-86401276D01*
X168720710Y-86386958D01*
X168720000Y-86372500D01*
X168720000Y-86027500D01*
X168720710Y-86013042D01*
X168722834Y-85998724D01*
X168726351Y-85984683D01*
X168731228Y-85971054D01*
X168737417Y-85957969D01*
X168744858Y-85945553D01*
X168753481Y-85933927D01*
X168763202Y-85923202D01*
X168773927Y-85913481D01*
X168785553Y-85904858D01*
X168797969Y-85897417D01*
X168811054Y-85891228D01*
X168824683Y-85886351D01*
X168838724Y-85882834D01*
X168853042Y-85880710D01*
X168867500Y-85880000D01*
X169162500Y-85880000D01*
X169176958Y-85880710D01*
X169176958Y-85880710D01*
G37*
D17*
X169015000Y-86200000D03*
D16*
G36*
X139006958Y-96200710D02*
G01*
X139021276Y-96202834D01*
X139035317Y-96206351D01*
X139048946Y-96211228D01*
X139062031Y-96217417D01*
X139074447Y-96224858D01*
X139086073Y-96233481D01*
X139096798Y-96243202D01*
X139106519Y-96253927D01*
X139115142Y-96265553D01*
X139122583Y-96277969D01*
X139128772Y-96291054D01*
X139133649Y-96304683D01*
X139137166Y-96318724D01*
X139139290Y-96333042D01*
X139140000Y-96347500D01*
X139140000Y-96692500D01*
X139139290Y-96706958D01*
X139137166Y-96721276D01*
X139133649Y-96735317D01*
X139128772Y-96748946D01*
X139122583Y-96762031D01*
X139115142Y-96774447D01*
X139106519Y-96786073D01*
X139096798Y-96796798D01*
X139086073Y-96806519D01*
X139074447Y-96815142D01*
X139062031Y-96822583D01*
X139048946Y-96828772D01*
X139035317Y-96833649D01*
X139021276Y-96837166D01*
X139006958Y-96839290D01*
X138992500Y-96840000D01*
X138697500Y-96840000D01*
X138683042Y-96839290D01*
X138668724Y-96837166D01*
X138654683Y-96833649D01*
X138641054Y-96828772D01*
X138627969Y-96822583D01*
X138615553Y-96815142D01*
X138603927Y-96806519D01*
X138593202Y-96796798D01*
X138583481Y-96786073D01*
X138574858Y-96774447D01*
X138567417Y-96762031D01*
X138561228Y-96748946D01*
X138556351Y-96735317D01*
X138552834Y-96721276D01*
X138550710Y-96706958D01*
X138550000Y-96692500D01*
X138550000Y-96347500D01*
X138550710Y-96333042D01*
X138552834Y-96318724D01*
X138556351Y-96304683D01*
X138561228Y-96291054D01*
X138567417Y-96277969D01*
X138574858Y-96265553D01*
X138583481Y-96253927D01*
X138593202Y-96243202D01*
X138603927Y-96233481D01*
X138615553Y-96224858D01*
X138627969Y-96217417D01*
X138641054Y-96211228D01*
X138654683Y-96206351D01*
X138668724Y-96202834D01*
X138683042Y-96200710D01*
X138697500Y-96200000D01*
X138992500Y-96200000D01*
X139006958Y-96200710D01*
X139006958Y-96200710D01*
G37*
D17*
X138845000Y-96520000D03*
D16*
G36*
X139976958Y-96200710D02*
G01*
X139991276Y-96202834D01*
X140005317Y-96206351D01*
X140018946Y-96211228D01*
X140032031Y-96217417D01*
X140044447Y-96224858D01*
X140056073Y-96233481D01*
X140066798Y-96243202D01*
X140076519Y-96253927D01*
X140085142Y-96265553D01*
X140092583Y-96277969D01*
X140098772Y-96291054D01*
X140103649Y-96304683D01*
X140107166Y-96318724D01*
X140109290Y-96333042D01*
X140110000Y-96347500D01*
X140110000Y-96692500D01*
X140109290Y-96706958D01*
X140107166Y-96721276D01*
X140103649Y-96735317D01*
X140098772Y-96748946D01*
X140092583Y-96762031D01*
X140085142Y-96774447D01*
X140076519Y-96786073D01*
X140066798Y-96796798D01*
X140056073Y-96806519D01*
X140044447Y-96815142D01*
X140032031Y-96822583D01*
X140018946Y-96828772D01*
X140005317Y-96833649D01*
X139991276Y-96837166D01*
X139976958Y-96839290D01*
X139962500Y-96840000D01*
X139667500Y-96840000D01*
X139653042Y-96839290D01*
X139638724Y-96837166D01*
X139624683Y-96833649D01*
X139611054Y-96828772D01*
X139597969Y-96822583D01*
X139585553Y-96815142D01*
X139573927Y-96806519D01*
X139563202Y-96796798D01*
X139553481Y-96786073D01*
X139544858Y-96774447D01*
X139537417Y-96762031D01*
X139531228Y-96748946D01*
X139526351Y-96735317D01*
X139522834Y-96721276D01*
X139520710Y-96706958D01*
X139520000Y-96692500D01*
X139520000Y-96347500D01*
X139520710Y-96333042D01*
X139522834Y-96318724D01*
X139526351Y-96304683D01*
X139531228Y-96291054D01*
X139537417Y-96277969D01*
X139544858Y-96265553D01*
X139553481Y-96253927D01*
X139563202Y-96243202D01*
X139573927Y-96233481D01*
X139585553Y-96224858D01*
X139597969Y-96217417D01*
X139611054Y-96211228D01*
X139624683Y-96206351D01*
X139638724Y-96202834D01*
X139653042Y-96200710D01*
X139667500Y-96200000D01*
X139962500Y-96200000D01*
X139976958Y-96200710D01*
X139976958Y-96200710D01*
G37*
D17*
X139815000Y-96520000D03*
D16*
G36*
X137776958Y-90760710D02*
G01*
X137791276Y-90762834D01*
X137805317Y-90766351D01*
X137818946Y-90771228D01*
X137832031Y-90777417D01*
X137844447Y-90784858D01*
X137856073Y-90793481D01*
X137866798Y-90803202D01*
X137876519Y-90813927D01*
X137885142Y-90825553D01*
X137892583Y-90837969D01*
X137898772Y-90851054D01*
X137903649Y-90864683D01*
X137907166Y-90878724D01*
X137909290Y-90893042D01*
X137910000Y-90907500D01*
X137910000Y-91252500D01*
X137909290Y-91266958D01*
X137907166Y-91281276D01*
X137903649Y-91295317D01*
X137898772Y-91308946D01*
X137892583Y-91322031D01*
X137885142Y-91334447D01*
X137876519Y-91346073D01*
X137866798Y-91356798D01*
X137856073Y-91366519D01*
X137844447Y-91375142D01*
X137832031Y-91382583D01*
X137818946Y-91388772D01*
X137805317Y-91393649D01*
X137791276Y-91397166D01*
X137776958Y-91399290D01*
X137762500Y-91400000D01*
X137467500Y-91400000D01*
X137453042Y-91399290D01*
X137438724Y-91397166D01*
X137424683Y-91393649D01*
X137411054Y-91388772D01*
X137397969Y-91382583D01*
X137385553Y-91375142D01*
X137373927Y-91366519D01*
X137363202Y-91356798D01*
X137353481Y-91346073D01*
X137344858Y-91334447D01*
X137337417Y-91322031D01*
X137331228Y-91308946D01*
X137326351Y-91295317D01*
X137322834Y-91281276D01*
X137320710Y-91266958D01*
X137320000Y-91252500D01*
X137320000Y-90907500D01*
X137320710Y-90893042D01*
X137322834Y-90878724D01*
X137326351Y-90864683D01*
X137331228Y-90851054D01*
X137337417Y-90837969D01*
X137344858Y-90825553D01*
X137353481Y-90813927D01*
X137363202Y-90803202D01*
X137373927Y-90793481D01*
X137385553Y-90784858D01*
X137397969Y-90777417D01*
X137411054Y-90771228D01*
X137424683Y-90766351D01*
X137438724Y-90762834D01*
X137453042Y-90760710D01*
X137467500Y-90760000D01*
X137762500Y-90760000D01*
X137776958Y-90760710D01*
X137776958Y-90760710D01*
G37*
D17*
X137615000Y-91080000D03*
D16*
G36*
X136806958Y-90760710D02*
G01*
X136821276Y-90762834D01*
X136835317Y-90766351D01*
X136848946Y-90771228D01*
X136862031Y-90777417D01*
X136874447Y-90784858D01*
X136886073Y-90793481D01*
X136896798Y-90803202D01*
X136906519Y-90813927D01*
X136915142Y-90825553D01*
X136922583Y-90837969D01*
X136928772Y-90851054D01*
X136933649Y-90864683D01*
X136937166Y-90878724D01*
X136939290Y-90893042D01*
X136940000Y-90907500D01*
X136940000Y-91252500D01*
X136939290Y-91266958D01*
X136937166Y-91281276D01*
X136933649Y-91295317D01*
X136928772Y-91308946D01*
X136922583Y-91322031D01*
X136915142Y-91334447D01*
X136906519Y-91346073D01*
X136896798Y-91356798D01*
X136886073Y-91366519D01*
X136874447Y-91375142D01*
X136862031Y-91382583D01*
X136848946Y-91388772D01*
X136835317Y-91393649D01*
X136821276Y-91397166D01*
X136806958Y-91399290D01*
X136792500Y-91400000D01*
X136497500Y-91400000D01*
X136483042Y-91399290D01*
X136468724Y-91397166D01*
X136454683Y-91393649D01*
X136441054Y-91388772D01*
X136427969Y-91382583D01*
X136415553Y-91375142D01*
X136403927Y-91366519D01*
X136393202Y-91356798D01*
X136383481Y-91346073D01*
X136374858Y-91334447D01*
X136367417Y-91322031D01*
X136361228Y-91308946D01*
X136356351Y-91295317D01*
X136352834Y-91281276D01*
X136350710Y-91266958D01*
X136350000Y-91252500D01*
X136350000Y-90907500D01*
X136350710Y-90893042D01*
X136352834Y-90878724D01*
X136356351Y-90864683D01*
X136361228Y-90851054D01*
X136367417Y-90837969D01*
X136374858Y-90825553D01*
X136383481Y-90813927D01*
X136393202Y-90803202D01*
X136403927Y-90793481D01*
X136415553Y-90784858D01*
X136427969Y-90777417D01*
X136441054Y-90771228D01*
X136454683Y-90766351D01*
X136468724Y-90762834D01*
X136483042Y-90760710D01*
X136497500Y-90760000D01*
X136792500Y-90760000D01*
X136806958Y-90760710D01*
X136806958Y-90760710D01*
G37*
D17*
X136645000Y-91080000D03*
D16*
G36*
X139106958Y-90760710D02*
G01*
X139121276Y-90762834D01*
X139135317Y-90766351D01*
X139148946Y-90771228D01*
X139162031Y-90777417D01*
X139174447Y-90784858D01*
X139186073Y-90793481D01*
X139196798Y-90803202D01*
X139206519Y-90813927D01*
X139215142Y-90825553D01*
X139222583Y-90837969D01*
X139228772Y-90851054D01*
X139233649Y-90864683D01*
X139237166Y-90878724D01*
X139239290Y-90893042D01*
X139240000Y-90907500D01*
X139240000Y-91252500D01*
X139239290Y-91266958D01*
X139237166Y-91281276D01*
X139233649Y-91295317D01*
X139228772Y-91308946D01*
X139222583Y-91322031D01*
X139215142Y-91334447D01*
X139206519Y-91346073D01*
X139196798Y-91356798D01*
X139186073Y-91366519D01*
X139174447Y-91375142D01*
X139162031Y-91382583D01*
X139148946Y-91388772D01*
X139135317Y-91393649D01*
X139121276Y-91397166D01*
X139106958Y-91399290D01*
X139092500Y-91400000D01*
X138797500Y-91400000D01*
X138783042Y-91399290D01*
X138768724Y-91397166D01*
X138754683Y-91393649D01*
X138741054Y-91388772D01*
X138727969Y-91382583D01*
X138715553Y-91375142D01*
X138703927Y-91366519D01*
X138693202Y-91356798D01*
X138683481Y-91346073D01*
X138674858Y-91334447D01*
X138667417Y-91322031D01*
X138661228Y-91308946D01*
X138656351Y-91295317D01*
X138652834Y-91281276D01*
X138650710Y-91266958D01*
X138650000Y-91252500D01*
X138650000Y-90907500D01*
X138650710Y-90893042D01*
X138652834Y-90878724D01*
X138656351Y-90864683D01*
X138661228Y-90851054D01*
X138667417Y-90837969D01*
X138674858Y-90825553D01*
X138683481Y-90813927D01*
X138693202Y-90803202D01*
X138703927Y-90793481D01*
X138715553Y-90784858D01*
X138727969Y-90777417D01*
X138741054Y-90771228D01*
X138754683Y-90766351D01*
X138768724Y-90762834D01*
X138783042Y-90760710D01*
X138797500Y-90760000D01*
X139092500Y-90760000D01*
X139106958Y-90760710D01*
X139106958Y-90760710D01*
G37*
D17*
X138945000Y-91080000D03*
D16*
G36*
X140076958Y-90760710D02*
G01*
X140091276Y-90762834D01*
X140105317Y-90766351D01*
X140118946Y-90771228D01*
X140132031Y-90777417D01*
X140144447Y-90784858D01*
X140156073Y-90793481D01*
X140166798Y-90803202D01*
X140176519Y-90813927D01*
X140185142Y-90825553D01*
X140192583Y-90837969D01*
X140198772Y-90851054D01*
X140203649Y-90864683D01*
X140207166Y-90878724D01*
X140209290Y-90893042D01*
X140210000Y-90907500D01*
X140210000Y-91252500D01*
X140209290Y-91266958D01*
X140207166Y-91281276D01*
X140203649Y-91295317D01*
X140198772Y-91308946D01*
X140192583Y-91322031D01*
X140185142Y-91334447D01*
X140176519Y-91346073D01*
X140166798Y-91356798D01*
X140156073Y-91366519D01*
X140144447Y-91375142D01*
X140132031Y-91382583D01*
X140118946Y-91388772D01*
X140105317Y-91393649D01*
X140091276Y-91397166D01*
X140076958Y-91399290D01*
X140062500Y-91400000D01*
X139767500Y-91400000D01*
X139753042Y-91399290D01*
X139738724Y-91397166D01*
X139724683Y-91393649D01*
X139711054Y-91388772D01*
X139697969Y-91382583D01*
X139685553Y-91375142D01*
X139673927Y-91366519D01*
X139663202Y-91356798D01*
X139653481Y-91346073D01*
X139644858Y-91334447D01*
X139637417Y-91322031D01*
X139631228Y-91308946D01*
X139626351Y-91295317D01*
X139622834Y-91281276D01*
X139620710Y-91266958D01*
X139620000Y-91252500D01*
X139620000Y-90907500D01*
X139620710Y-90893042D01*
X139622834Y-90878724D01*
X139626351Y-90864683D01*
X139631228Y-90851054D01*
X139637417Y-90837969D01*
X139644858Y-90825553D01*
X139653481Y-90813927D01*
X139663202Y-90803202D01*
X139673927Y-90793481D01*
X139685553Y-90784858D01*
X139697969Y-90777417D01*
X139711054Y-90771228D01*
X139724683Y-90766351D01*
X139738724Y-90762834D01*
X139753042Y-90760710D01*
X139767500Y-90760000D01*
X140062500Y-90760000D01*
X140076958Y-90760710D01*
X140076958Y-90760710D01*
G37*
D17*
X139915000Y-91080000D03*
D18*
X168600000Y-82400000D03*
X167650000Y-84400000D03*
X169550000Y-84400000D03*
D19*
X137630000Y-94080000D03*
X139630000Y-95030000D03*
X139630000Y-93130000D03*
D16*
G36*
X165886958Y-82805710D02*
G01*
X165901276Y-82807834D01*
X165915317Y-82811351D01*
X165928946Y-82816228D01*
X165942031Y-82822417D01*
X165954447Y-82829858D01*
X165966073Y-82838481D01*
X165976798Y-82848202D01*
X165986519Y-82858927D01*
X165995142Y-82870553D01*
X166002583Y-82882969D01*
X166008772Y-82896054D01*
X166013649Y-82909683D01*
X166017166Y-82923724D01*
X166019290Y-82938042D01*
X166020000Y-82952500D01*
X166020000Y-83247500D01*
X166019290Y-83261958D01*
X166017166Y-83276276D01*
X166013649Y-83290317D01*
X166008772Y-83303946D01*
X166002583Y-83317031D01*
X165995142Y-83329447D01*
X165986519Y-83341073D01*
X165976798Y-83351798D01*
X165966073Y-83361519D01*
X165954447Y-83370142D01*
X165942031Y-83377583D01*
X165928946Y-83383772D01*
X165915317Y-83388649D01*
X165901276Y-83392166D01*
X165886958Y-83394290D01*
X165872500Y-83395000D01*
X165527500Y-83395000D01*
X165513042Y-83394290D01*
X165498724Y-83392166D01*
X165484683Y-83388649D01*
X165471054Y-83383772D01*
X165457969Y-83377583D01*
X165445553Y-83370142D01*
X165433927Y-83361519D01*
X165423202Y-83351798D01*
X165413481Y-83341073D01*
X165404858Y-83329447D01*
X165397417Y-83317031D01*
X165391228Y-83303946D01*
X165386351Y-83290317D01*
X165382834Y-83276276D01*
X165380710Y-83261958D01*
X165380000Y-83247500D01*
X165380000Y-82952500D01*
X165380710Y-82938042D01*
X165382834Y-82923724D01*
X165386351Y-82909683D01*
X165391228Y-82896054D01*
X165397417Y-82882969D01*
X165404858Y-82870553D01*
X165413481Y-82858927D01*
X165423202Y-82848202D01*
X165433927Y-82838481D01*
X165445553Y-82829858D01*
X165457969Y-82822417D01*
X165471054Y-82816228D01*
X165484683Y-82811351D01*
X165498724Y-82807834D01*
X165513042Y-82805710D01*
X165527500Y-82805000D01*
X165872500Y-82805000D01*
X165886958Y-82805710D01*
X165886958Y-82805710D01*
G37*
D17*
X165700000Y-83100000D03*
D16*
G36*
X165886958Y-81835710D02*
G01*
X165901276Y-81837834D01*
X165915317Y-81841351D01*
X165928946Y-81846228D01*
X165942031Y-81852417D01*
X165954447Y-81859858D01*
X165966073Y-81868481D01*
X165976798Y-81878202D01*
X165986519Y-81888927D01*
X165995142Y-81900553D01*
X166002583Y-81912969D01*
X166008772Y-81926054D01*
X166013649Y-81939683D01*
X166017166Y-81953724D01*
X166019290Y-81968042D01*
X166020000Y-81982500D01*
X166020000Y-82277500D01*
X166019290Y-82291958D01*
X166017166Y-82306276D01*
X166013649Y-82320317D01*
X166008772Y-82333946D01*
X166002583Y-82347031D01*
X165995142Y-82359447D01*
X165986519Y-82371073D01*
X165976798Y-82381798D01*
X165966073Y-82391519D01*
X165954447Y-82400142D01*
X165942031Y-82407583D01*
X165928946Y-82413772D01*
X165915317Y-82418649D01*
X165901276Y-82422166D01*
X165886958Y-82424290D01*
X165872500Y-82425000D01*
X165527500Y-82425000D01*
X165513042Y-82424290D01*
X165498724Y-82422166D01*
X165484683Y-82418649D01*
X165471054Y-82413772D01*
X165457969Y-82407583D01*
X165445553Y-82400142D01*
X165433927Y-82391519D01*
X165423202Y-82381798D01*
X165413481Y-82371073D01*
X165404858Y-82359447D01*
X165397417Y-82347031D01*
X165391228Y-82333946D01*
X165386351Y-82320317D01*
X165382834Y-82306276D01*
X165380710Y-82291958D01*
X165380000Y-82277500D01*
X165380000Y-81982500D01*
X165380710Y-81968042D01*
X165382834Y-81953724D01*
X165386351Y-81939683D01*
X165391228Y-81926054D01*
X165397417Y-81912969D01*
X165404858Y-81900553D01*
X165413481Y-81888927D01*
X165423202Y-81878202D01*
X165433927Y-81868481D01*
X165445553Y-81859858D01*
X165457969Y-81852417D01*
X165471054Y-81846228D01*
X165484683Y-81841351D01*
X165498724Y-81837834D01*
X165513042Y-81835710D01*
X165527500Y-81835000D01*
X165872500Y-81835000D01*
X165886958Y-81835710D01*
X165886958Y-81835710D01*
G37*
D17*
X165700000Y-82130000D03*
D16*
G36*
X137806958Y-96200710D02*
G01*
X137821276Y-96202834D01*
X137835317Y-96206351D01*
X137848946Y-96211228D01*
X137862031Y-96217417D01*
X137874447Y-96224858D01*
X137886073Y-96233481D01*
X137896798Y-96243202D01*
X137906519Y-96253927D01*
X137915142Y-96265553D01*
X137922583Y-96277969D01*
X137928772Y-96291054D01*
X137933649Y-96304683D01*
X137937166Y-96318724D01*
X137939290Y-96333042D01*
X137940000Y-96347500D01*
X137940000Y-96692500D01*
X137939290Y-96706958D01*
X137937166Y-96721276D01*
X137933649Y-96735317D01*
X137928772Y-96748946D01*
X137922583Y-96762031D01*
X137915142Y-96774447D01*
X137906519Y-96786073D01*
X137896798Y-96796798D01*
X137886073Y-96806519D01*
X137874447Y-96815142D01*
X137862031Y-96822583D01*
X137848946Y-96828772D01*
X137835317Y-96833649D01*
X137821276Y-96837166D01*
X137806958Y-96839290D01*
X137792500Y-96840000D01*
X137497500Y-96840000D01*
X137483042Y-96839290D01*
X137468724Y-96837166D01*
X137454683Y-96833649D01*
X137441054Y-96828772D01*
X137427969Y-96822583D01*
X137415553Y-96815142D01*
X137403927Y-96806519D01*
X137393202Y-96796798D01*
X137383481Y-96786073D01*
X137374858Y-96774447D01*
X137367417Y-96762031D01*
X137361228Y-96748946D01*
X137356351Y-96735317D01*
X137352834Y-96721276D01*
X137350710Y-96706958D01*
X137350000Y-96692500D01*
X137350000Y-96347500D01*
X137350710Y-96333042D01*
X137352834Y-96318724D01*
X137356351Y-96304683D01*
X137361228Y-96291054D01*
X137367417Y-96277969D01*
X137374858Y-96265553D01*
X137383481Y-96253927D01*
X137393202Y-96243202D01*
X137403927Y-96233481D01*
X137415553Y-96224858D01*
X137427969Y-96217417D01*
X137441054Y-96211228D01*
X137454683Y-96206351D01*
X137468724Y-96202834D01*
X137483042Y-96200710D01*
X137497500Y-96200000D01*
X137792500Y-96200000D01*
X137806958Y-96200710D01*
X137806958Y-96200710D01*
G37*
D17*
X137645000Y-96520000D03*
D16*
G36*
X136836958Y-96200710D02*
G01*
X136851276Y-96202834D01*
X136865317Y-96206351D01*
X136878946Y-96211228D01*
X136892031Y-96217417D01*
X136904447Y-96224858D01*
X136916073Y-96233481D01*
X136926798Y-96243202D01*
X136936519Y-96253927D01*
X136945142Y-96265553D01*
X136952583Y-96277969D01*
X136958772Y-96291054D01*
X136963649Y-96304683D01*
X136967166Y-96318724D01*
X136969290Y-96333042D01*
X136970000Y-96347500D01*
X136970000Y-96692500D01*
X136969290Y-96706958D01*
X136967166Y-96721276D01*
X136963649Y-96735317D01*
X136958772Y-96748946D01*
X136952583Y-96762031D01*
X136945142Y-96774447D01*
X136936519Y-96786073D01*
X136926798Y-96796798D01*
X136916073Y-96806519D01*
X136904447Y-96815142D01*
X136892031Y-96822583D01*
X136878946Y-96828772D01*
X136865317Y-96833649D01*
X136851276Y-96837166D01*
X136836958Y-96839290D01*
X136822500Y-96840000D01*
X136527500Y-96840000D01*
X136513042Y-96839290D01*
X136498724Y-96837166D01*
X136484683Y-96833649D01*
X136471054Y-96828772D01*
X136457969Y-96822583D01*
X136445553Y-96815142D01*
X136433927Y-96806519D01*
X136423202Y-96796798D01*
X136413481Y-96786073D01*
X136404858Y-96774447D01*
X136397417Y-96762031D01*
X136391228Y-96748946D01*
X136386351Y-96735317D01*
X136382834Y-96721276D01*
X136380710Y-96706958D01*
X136380000Y-96692500D01*
X136380000Y-96347500D01*
X136380710Y-96333042D01*
X136382834Y-96318724D01*
X136386351Y-96304683D01*
X136391228Y-96291054D01*
X136397417Y-96277969D01*
X136404858Y-96265553D01*
X136413481Y-96253927D01*
X136423202Y-96243202D01*
X136433927Y-96233481D01*
X136445553Y-96224858D01*
X136457969Y-96217417D01*
X136471054Y-96211228D01*
X136484683Y-96206351D01*
X136498724Y-96202834D01*
X136513042Y-96200710D01*
X136527500Y-96200000D01*
X136822500Y-96200000D01*
X136836958Y-96200710D01*
X136836958Y-96200710D01*
G37*
D17*
X136675000Y-96520000D03*
D20*
X137900000Y-97500000D03*
X164400000Y-83100000D03*
X165800000Y-90000000D03*
X165800000Y-87400000D03*
X121000000Y-97000000D03*
X121000000Y-100000000D03*
X128000000Y-108000000D03*
X136000000Y-108000000D03*
X142000000Y-93000000D03*
X147000000Y-93000000D03*
X138000000Y-82000000D03*
X149000000Y-82000000D03*
X177000000Y-80000000D03*
X177000000Y-94000000D03*
X155000000Y-87000000D03*
X168400000Y-83600000D03*
X167000000Y-80000000D03*
X126000000Y-93000000D03*
X128000000Y-95000000D03*
X142000000Y-99000000D03*
X142000000Y-101000000D03*
X137400000Y-101400000D03*
X160000000Y-85400000D03*
X133900000Y-89900000D03*
X128000000Y-87700000D03*
X126600000Y-85100000D03*
X139700000Y-97790000D03*
X164400000Y-84300000D03*
D21*
X126900000Y-100825000D02*
X136645000Y-91080000D01*
X126900000Y-105200000D02*
X126900000Y-100825000D01*
X119070000Y-113030000D02*
X126900000Y-105200000D01*
X116840000Y-113030000D02*
X119070000Y-113030000D01*
X119070000Y-113030000D02*
X140170000Y-113030000D01*
X147150000Y-106050000D02*
X153150000Y-106050000D01*
X140170000Y-113030000D02*
X147150000Y-106050000D01*
X153300000Y-106200000D02*
X153300000Y-107550000D01*
X153150000Y-106050000D02*
X153300000Y-106200000D01*
X137900000Y-96775000D02*
X137645000Y-96520000D01*
X137900000Y-97500000D02*
X137900000Y-96775000D01*
X136645000Y-91500000D02*
X136645000Y-91080000D01*
X136645000Y-95100000D02*
X136645000Y-91500000D01*
X137645000Y-96100000D02*
X136645000Y-95100000D01*
X137645000Y-96520000D02*
X137645000Y-96100000D01*
X164400000Y-83100000D02*
X165700000Y-83100000D01*
X163300000Y-83100000D02*
X164400000Y-83100000D01*
X162500000Y-83900000D02*
X163300000Y-83100000D01*
X166715000Y-86200000D02*
X163500000Y-86200000D01*
X162500000Y-85200000D02*
X162500000Y-83900000D01*
X163500000Y-86200000D02*
X162500000Y-85200000D01*
X153300000Y-106050000D02*
X153300000Y-102500000D01*
X153300000Y-102500000D02*
X165800000Y-90000000D01*
X165800000Y-87115000D02*
X166715000Y-86200000D01*
X165800000Y-87400000D02*
X165800000Y-87115000D01*
D22*
X167650000Y-84350000D02*
X168400000Y-83600000D01*
X167650000Y-84400000D02*
X167650000Y-84350000D01*
X154300000Y-107960000D02*
X161240000Y-114900000D01*
X154300000Y-107550000D02*
X154300000Y-107960000D01*
X173200000Y-113600000D02*
X171900000Y-114900000D01*
X161240000Y-114900000D02*
X171900000Y-114900000D01*
X173200000Y-113600000D02*
X173200000Y-109400000D01*
X129630000Y-90170000D02*
X116840000Y-90170000D01*
X131200000Y-88600000D02*
X129630000Y-90170000D01*
X138945000Y-91080000D02*
X136465000Y-88600000D01*
X167603232Y-88600000D02*
X136100000Y-88600000D01*
X169650832Y-86552400D02*
X167603232Y-88600000D01*
X169650832Y-86534168D02*
X169650832Y-86552400D01*
X136465000Y-88600000D02*
X136100000Y-88600000D01*
X169985000Y-86200000D02*
X169650832Y-86534168D01*
X136100000Y-88600000D02*
X131200000Y-88600000D01*
X115149999Y-91019999D02*
X114300000Y-90170000D01*
X115475001Y-91345001D02*
X115149999Y-91019999D01*
X132454999Y-91345001D02*
X115475001Y-91345001D01*
X133900000Y-89900000D02*
X132454999Y-91345001D01*
X127930000Y-87630000D02*
X116840000Y-87630000D01*
X128000000Y-87700000D02*
X127930000Y-87630000D01*
X126590000Y-85090000D02*
X116840000Y-85090000D01*
X126600000Y-85100000D02*
X126590000Y-85090000D01*
X155850000Y-106550000D02*
X158700000Y-109400000D01*
X154300000Y-106550000D02*
X155850000Y-106550000D01*
X154300000Y-105640000D02*
X154300000Y-106050000D01*
X155540000Y-104400000D02*
X154300000Y-105640000D01*
X158700000Y-104400000D02*
X155540000Y-104400000D01*
X158700000Y-104400000D02*
X158700000Y-101100000D01*
X158700000Y-101100000D02*
X171300000Y-88500000D01*
X171300000Y-88500000D02*
X171300000Y-81900000D01*
X115149999Y-78319999D02*
X114300000Y-77470000D01*
X115664999Y-78834999D02*
X115149999Y-78319999D01*
X168234999Y-78834999D02*
X115664999Y-78834999D01*
X171300000Y-81900000D02*
X168234999Y-78834999D01*
X139815000Y-97675000D02*
X139815000Y-96520000D01*
X139700000Y-97790000D02*
X139815000Y-97675000D01*
X164515000Y-84415000D02*
X165700000Y-84415000D01*
X164400000Y-84300000D02*
X164515000Y-84415000D01*
X138845000Y-96520000D02*
X138845000Y-96245000D01*
X137630000Y-95030000D02*
X137630000Y-94080000D01*
X138845000Y-96245000D02*
X137630000Y-95030000D01*
X139630000Y-93130000D02*
X139630000Y-92570000D01*
X139915000Y-92285000D02*
X139915000Y-91080000D01*
X139630000Y-92570000D02*
X139915000Y-92285000D01*
X137615000Y-91080000D02*
X137615000Y-92115000D01*
X138630000Y-93130000D02*
X139630000Y-93130000D01*
X137615000Y-92115000D02*
X138630000Y-93130000D01*
X165700000Y-85385000D02*
X166015000Y-85385000D01*
X166015000Y-85385000D02*
X166800000Y-84600000D01*
X166800000Y-84600000D02*
X166800000Y-83000000D01*
X167400000Y-82400000D02*
X168600000Y-82400000D01*
X166800000Y-83000000D02*
X167400000Y-82400000D01*
X169550000Y-84400000D02*
X169550000Y-84850000D01*
X169015000Y-85385000D02*
X169015000Y-86200000D01*
X169550000Y-84850000D02*
X169015000Y-85385000D01*
X167685000Y-86200000D02*
X169015000Y-86200000D01*
D23*
G36*
X180950001Y-114910000D02*
G01*
X172964801Y-114910000D01*
X173711004Y-114163798D01*
X173740001Y-114140001D01*
X173834974Y-114024276D01*
X173905546Y-113892247D01*
X173949003Y-113748986D01*
X173960000Y-113637333D01*
X173960000Y-113637325D01*
X173963676Y-113600000D01*
X173960000Y-113562675D01*
X173960000Y-110854909D01*
X173974463Y-110848918D01*
X174242252Y-110669987D01*
X174469987Y-110442252D01*
X174648918Y-110174463D01*
X174772168Y-109876912D01*
X174835000Y-109561033D01*
X174835000Y-109238967D01*
X174772168Y-108923088D01*
X174648918Y-108625537D01*
X174469987Y-108357748D01*
X174242252Y-108130013D01*
X173974463Y-107951082D01*
X173676912Y-107827832D01*
X173361033Y-107765000D01*
X173038967Y-107765000D01*
X172723088Y-107827832D01*
X172425537Y-107951082D01*
X172157748Y-108130013D01*
X171930013Y-108357748D01*
X171751082Y-108625537D01*
X171627832Y-108923088D01*
X171565000Y-109238967D01*
X171565000Y-109561033D01*
X171627832Y-109876912D01*
X171751082Y-110174463D01*
X171930013Y-110442252D01*
X172157748Y-110669987D01*
X172425537Y-110848918D01*
X172440001Y-110854909D01*
X172440000Y-113285198D01*
X171585199Y-114140000D01*
X161554802Y-114140000D01*
X158914802Y-111500000D01*
X163961928Y-111500000D01*
X163961928Y-113500000D01*
X163974188Y-113624482D01*
X164010498Y-113744180D01*
X164069463Y-113854494D01*
X164148815Y-113951185D01*
X164245506Y-114030537D01*
X164355820Y-114089502D01*
X164475518Y-114125812D01*
X164600000Y-114138072D01*
X167800000Y-114138072D01*
X167924482Y-114125812D01*
X168044180Y-114089502D01*
X168154494Y-114030537D01*
X168251185Y-113951185D01*
X168330537Y-113854494D01*
X168389502Y-113744180D01*
X168425812Y-113624482D01*
X168438072Y-113500000D01*
X168438072Y-111500000D01*
X168425812Y-111375518D01*
X168389502Y-111255820D01*
X168330537Y-111145506D01*
X168251185Y-111048815D01*
X168154494Y-110969463D01*
X168044180Y-110910498D01*
X167924482Y-110874188D01*
X167800000Y-110861928D01*
X164600000Y-110861928D01*
X164475518Y-110874188D01*
X164355820Y-110910498D01*
X164245506Y-110969463D01*
X164148815Y-111048815D01*
X164069463Y-111145506D01*
X164010498Y-111255820D01*
X163974188Y-111375518D01*
X163961928Y-111500000D01*
X158914802Y-111500000D01*
X158427662Y-111012860D01*
X158538967Y-111035000D01*
X158861033Y-111035000D01*
X159176912Y-110972168D01*
X159474463Y-110848918D01*
X159742252Y-110669987D01*
X159969987Y-110442252D01*
X160148918Y-110174463D01*
X160272168Y-109876912D01*
X160335000Y-109561033D01*
X160335000Y-109238967D01*
X160272168Y-108923088D01*
X160148918Y-108625537D01*
X159969987Y-108357748D01*
X159742252Y-108130013D01*
X159645065Y-108065075D01*
X159655808Y-108035413D01*
X158700000Y-107079605D01*
X158685858Y-107093748D01*
X158506253Y-106914143D01*
X158520395Y-106900000D01*
X158506253Y-106885858D01*
X158685858Y-106706253D01*
X158700000Y-106720395D01*
X158714143Y-106706253D01*
X158893748Y-106885858D01*
X158879605Y-106900000D01*
X159835413Y-107855808D01*
X160099814Y-107760044D01*
X160240704Y-107470429D01*
X160322384Y-107158892D01*
X160341718Y-106837405D01*
X160297961Y-106518325D01*
X160192795Y-106213912D01*
X160099814Y-106039956D01*
X159950777Y-105985976D01*
X160054494Y-105930537D01*
X160151185Y-105851185D01*
X160230537Y-105754494D01*
X160289502Y-105644180D01*
X160322496Y-105535413D01*
X172244192Y-105535413D01*
X172339956Y-105799814D01*
X172629571Y-105940704D01*
X172941108Y-106022384D01*
X173262595Y-106041718D01*
X173581675Y-105997961D01*
X173886088Y-105892795D01*
X174060044Y-105799814D01*
X174155808Y-105535413D01*
X173200000Y-104579605D01*
X172244192Y-105535413D01*
X160322496Y-105535413D01*
X160325812Y-105524482D01*
X160338072Y-105400000D01*
X160338072Y-104462595D01*
X171558282Y-104462595D01*
X171602039Y-104781675D01*
X171707205Y-105086088D01*
X171800186Y-105260044D01*
X172064587Y-105355808D01*
X173020395Y-104400000D01*
X173379605Y-104400000D01*
X174335413Y-105355808D01*
X174599814Y-105260044D01*
X174740704Y-104970429D01*
X174822384Y-104658892D01*
X174841718Y-104337405D01*
X174797961Y-104018325D01*
X174692795Y-103713912D01*
X174599814Y-103539956D01*
X174335413Y-103444192D01*
X173379605Y-104400000D01*
X173020395Y-104400000D01*
X172064587Y-103444192D01*
X171800186Y-103539956D01*
X171659296Y-103829571D01*
X171577616Y-104141108D01*
X171558282Y-104462595D01*
X160338072Y-104462595D01*
X160338072Y-103400000D01*
X160325812Y-103275518D01*
X160322497Y-103264587D01*
X172244192Y-103264587D01*
X173200000Y-104220395D01*
X174155808Y-103264587D01*
X174060044Y-103000186D01*
X173770429Y-102859296D01*
X173458892Y-102777616D01*
X173137405Y-102758282D01*
X172818325Y-102802039D01*
X172513912Y-102907205D01*
X172339956Y-103000186D01*
X172244192Y-103264587D01*
X160322497Y-103264587D01*
X160289502Y-103155820D01*
X160230537Y-103045506D01*
X160151185Y-102948815D01*
X160054494Y-102869463D01*
X159944180Y-102810498D01*
X159824482Y-102774188D01*
X159700000Y-102761928D01*
X159460000Y-102761928D01*
X159460000Y-101414801D01*
X160574801Y-100300000D01*
X163961928Y-100300000D01*
X163961928Y-102300000D01*
X163974188Y-102424482D01*
X164010498Y-102544180D01*
X164069463Y-102654494D01*
X164148815Y-102751185D01*
X164245506Y-102830537D01*
X164355820Y-102889502D01*
X164475518Y-102925812D01*
X164600000Y-102938072D01*
X167800000Y-102938072D01*
X167924482Y-102925812D01*
X168044180Y-102889502D01*
X168154494Y-102830537D01*
X168251185Y-102751185D01*
X168330537Y-102654494D01*
X168389502Y-102544180D01*
X168425812Y-102424482D01*
X168438072Y-102300000D01*
X168438072Y-100300000D01*
X168425812Y-100175518D01*
X168389502Y-100055820D01*
X168330537Y-99945506D01*
X168251185Y-99848815D01*
X168154494Y-99769463D01*
X168044180Y-99710498D01*
X167924482Y-99674188D01*
X167800000Y-99661928D01*
X164600000Y-99661928D01*
X164475518Y-99674188D01*
X164355820Y-99710498D01*
X164245506Y-99769463D01*
X164148815Y-99848815D01*
X164069463Y-99945506D01*
X164010498Y-100055820D01*
X163974188Y-100175518D01*
X163961928Y-100300000D01*
X160574801Y-100300000D01*
X171811004Y-89063798D01*
X171840001Y-89040001D01*
X171901553Y-88965000D01*
X171934974Y-88924277D01*
X172005546Y-88792247D01*
X172005803Y-88791401D01*
X172049003Y-88648986D01*
X172060000Y-88537333D01*
X172060000Y-88537323D01*
X172063676Y-88500000D01*
X172060000Y-88462677D01*
X172060000Y-81937322D01*
X172063676Y-81900000D01*
X172060000Y-81862677D01*
X172060000Y-81862667D01*
X172049003Y-81751014D01*
X172005546Y-81607753D01*
X171947317Y-81498815D01*
X171934974Y-81475723D01*
X171863799Y-81388997D01*
X171840001Y-81359999D01*
X171811003Y-81336201D01*
X168798803Y-78324002D01*
X168775000Y-78294998D01*
X168659275Y-78200025D01*
X168527246Y-78129453D01*
X168383985Y-78085996D01*
X168272332Y-78074999D01*
X168272321Y-78074999D01*
X168234999Y-78071323D01*
X168197677Y-78074999D01*
X118328072Y-78074999D01*
X118328072Y-76620000D01*
X118315812Y-76495518D01*
X118279502Y-76375820D01*
X118220537Y-76265506D01*
X118141185Y-76168815D01*
X118044494Y-76089463D01*
X117934180Y-76030498D01*
X117814482Y-75994188D01*
X117690000Y-75981928D01*
X115990000Y-75981928D01*
X115865518Y-75994188D01*
X115745820Y-76030498D01*
X115635506Y-76089463D01*
X115538815Y-76168815D01*
X115459463Y-76265506D01*
X115400498Y-76375820D01*
X115379607Y-76444687D01*
X115355134Y-76414866D01*
X115129014Y-76229294D01*
X114871034Y-76091401D01*
X114591111Y-76006487D01*
X114372950Y-75985000D01*
X114227050Y-75985000D01*
X114008889Y-76006487D01*
X113728966Y-76091401D01*
X113470986Y-76229294D01*
X113244866Y-76414866D01*
X113059294Y-76640986D01*
X112921401Y-76898966D01*
X112836487Y-77178889D01*
X112807815Y-77470000D01*
X112836487Y-77761111D01*
X112921401Y-78041034D01*
X113059294Y-78299014D01*
X113244866Y-78525134D01*
X113470986Y-78710706D01*
X113525791Y-78740000D01*
X113470986Y-78769294D01*
X113244866Y-78954866D01*
X113059294Y-79180986D01*
X112921401Y-79438966D01*
X112836487Y-79718889D01*
X112807815Y-80010000D01*
X112836487Y-80301111D01*
X112921401Y-80581034D01*
X113059294Y-80839014D01*
X113244866Y-81065134D01*
X113470986Y-81250706D01*
X113525791Y-81280000D01*
X113470986Y-81309294D01*
X113244866Y-81494866D01*
X113059294Y-81720986D01*
X112921401Y-81978966D01*
X112836487Y-82258889D01*
X112807815Y-82550000D01*
X112836487Y-82841111D01*
X112921401Y-83121034D01*
X113059294Y-83379014D01*
X113244866Y-83605134D01*
X113470986Y-83790706D01*
X113525791Y-83820000D01*
X113470986Y-83849294D01*
X113244866Y-84034866D01*
X113059294Y-84260986D01*
X112921401Y-84518966D01*
X112836487Y-84798889D01*
X112807815Y-85090000D01*
X112836487Y-85381111D01*
X112921401Y-85661034D01*
X113059294Y-85919014D01*
X113244866Y-86145134D01*
X113470986Y-86330706D01*
X113525791Y-86360000D01*
X113470986Y-86389294D01*
X113244866Y-86574866D01*
X113059294Y-86800986D01*
X112921401Y-87058966D01*
X112836487Y-87338889D01*
X112807815Y-87630000D01*
X112836487Y-87921111D01*
X112921401Y-88201034D01*
X113059294Y-88459014D01*
X113244866Y-88685134D01*
X113470986Y-88870706D01*
X113525791Y-88900000D01*
X113470986Y-88929294D01*
X113244866Y-89114866D01*
X113059294Y-89340986D01*
X112921401Y-89598966D01*
X112836487Y-89878889D01*
X112807815Y-90170000D01*
X112836487Y-90461111D01*
X112921401Y-90741034D01*
X113059294Y-90999014D01*
X113244866Y-91225134D01*
X113470986Y-91410706D01*
X113525791Y-91440000D01*
X113470986Y-91469294D01*
X113244866Y-91654866D01*
X113059294Y-91880986D01*
X112921401Y-92138966D01*
X112836487Y-92418889D01*
X112807815Y-92710000D01*
X112836487Y-93001111D01*
X112921401Y-93281034D01*
X113059294Y-93539014D01*
X113244866Y-93765134D01*
X113470986Y-93950706D01*
X113525791Y-93980000D01*
X113470986Y-94009294D01*
X113244866Y-94194866D01*
X113059294Y-94420986D01*
X112921401Y-94678966D01*
X112836487Y-94958889D01*
X112807815Y-95250000D01*
X112836487Y-95541111D01*
X112921401Y-95821034D01*
X113059294Y-96079014D01*
X113244866Y-96305134D01*
X113470986Y-96490706D01*
X113525791Y-96520000D01*
X113470986Y-96549294D01*
X113244866Y-96734866D01*
X113059294Y-96960986D01*
X112921401Y-97218966D01*
X112836487Y-97498889D01*
X112807815Y-97790000D01*
X112836487Y-98081111D01*
X112921401Y-98361034D01*
X113059294Y-98619014D01*
X113244866Y-98845134D01*
X113470986Y-99030706D01*
X113525791Y-99060000D01*
X113470986Y-99089294D01*
X113244866Y-99274866D01*
X113059294Y-99500986D01*
X112921401Y-99758966D01*
X112836487Y-100038889D01*
X112807815Y-100330000D01*
X112836487Y-100621111D01*
X112921401Y-100901034D01*
X113059294Y-101159014D01*
X113244866Y-101385134D01*
X113470986Y-101570706D01*
X113525791Y-101600000D01*
X113470986Y-101629294D01*
X113244866Y-101814866D01*
X113059294Y-102040986D01*
X112921401Y-102298966D01*
X112836487Y-102578889D01*
X112807815Y-102870000D01*
X112836487Y-103161111D01*
X112921401Y-103441034D01*
X113059294Y-103699014D01*
X113244866Y-103925134D01*
X113470986Y-104110706D01*
X113525791Y-104140000D01*
X113470986Y-104169294D01*
X113244866Y-104354866D01*
X113059294Y-104580986D01*
X112921401Y-104838966D01*
X112836487Y-105118889D01*
X112807815Y-105410000D01*
X112836487Y-105701111D01*
X112921401Y-105981034D01*
X113059294Y-106239014D01*
X113244866Y-106465134D01*
X113470986Y-106650706D01*
X113525791Y-106680000D01*
X113470986Y-106709294D01*
X113244866Y-106894866D01*
X113059294Y-107120986D01*
X112921401Y-107378966D01*
X112836487Y-107658889D01*
X112807815Y-107950000D01*
X112836487Y-108241111D01*
X112921401Y-108521034D01*
X113059294Y-108779014D01*
X113244866Y-109005134D01*
X113470986Y-109190706D01*
X113525791Y-109220000D01*
X113470986Y-109249294D01*
X113244866Y-109434866D01*
X113059294Y-109660986D01*
X112921401Y-109918966D01*
X112836487Y-110198889D01*
X112807815Y-110490000D01*
X112836487Y-110781111D01*
X112921401Y-111061034D01*
X113059294Y-111319014D01*
X113244866Y-111545134D01*
X113470986Y-111730706D01*
X113535523Y-111765201D01*
X113418645Y-111834822D01*
X113202412Y-112029731D01*
X113028359Y-112263080D01*
X112903175Y-112525901D01*
X112858524Y-112673110D01*
X112979845Y-112903000D01*
X114173000Y-112903000D01*
X114173000Y-112883000D01*
X114427000Y-112883000D01*
X114427000Y-112903000D01*
X114447000Y-112903000D01*
X114447000Y-113157000D01*
X114427000Y-113157000D01*
X114427000Y-114350814D01*
X114656891Y-114471481D01*
X114931252Y-114374157D01*
X115181355Y-114225178D01*
X115397588Y-114030269D01*
X115568416Y-113801244D01*
X115599294Y-113859014D01*
X115784866Y-114085134D01*
X116010986Y-114270706D01*
X116268966Y-114408599D01*
X116548889Y-114493513D01*
X116767050Y-114515000D01*
X116912950Y-114515000D01*
X117131111Y-114493513D01*
X117411034Y-114408599D01*
X117669014Y-114270706D01*
X117895134Y-114085134D01*
X118034759Y-113915000D01*
X119026531Y-113915000D01*
X119070000Y-113919281D01*
X119113469Y-113915000D01*
X140126531Y-113915000D01*
X140170000Y-113919281D01*
X140213469Y-113915000D01*
X140213477Y-113915000D01*
X140343490Y-113902195D01*
X140510313Y-113851589D01*
X140664059Y-113769411D01*
X140798817Y-113658817D01*
X140826534Y-113625044D01*
X147516579Y-106935000D01*
X152411928Y-106935000D01*
X152411928Y-107210000D01*
X152415001Y-107241199D01*
X152415001Y-107358800D01*
X152411928Y-107390000D01*
X152411928Y-107710000D01*
X152424188Y-107834482D01*
X152460498Y-107954180D01*
X152519463Y-108064494D01*
X152598815Y-108161185D01*
X152695506Y-108240537D01*
X152805820Y-108299502D01*
X152849756Y-108312830D01*
X152959688Y-108371589D01*
X153126511Y-108422195D01*
X153300000Y-108439282D01*
X153473490Y-108422195D01*
X153640313Y-108371589D01*
X153654260Y-108364134D01*
X153665026Y-108384276D01*
X153759999Y-108500001D01*
X153789002Y-108523803D01*
X160175198Y-114910000D01*
X112420000Y-114910000D01*
X112420000Y-113386890D01*
X112858524Y-113386890D01*
X112903175Y-113534099D01*
X113028359Y-113796920D01*
X113202412Y-114030269D01*
X113418645Y-114225178D01*
X113668748Y-114374157D01*
X113943109Y-114471481D01*
X114173000Y-114350814D01*
X114173000Y-113157000D01*
X112979845Y-113157000D01*
X112858524Y-113386890D01*
X112420000Y-113386890D01*
X112420000Y-75590000D01*
X180950000Y-75590000D01*
X180950001Y-114910000D01*
X180950001Y-114910000D01*
G37*
X180950001Y-114910000D02*
X172964801Y-114910000D01*
X173711004Y-114163798D01*
X173740001Y-114140001D01*
X173834974Y-114024276D01*
X173905546Y-113892247D01*
X173949003Y-113748986D01*
X173960000Y-113637333D01*
X173960000Y-113637325D01*
X173963676Y-113600000D01*
X173960000Y-113562675D01*
X173960000Y-110854909D01*
X173974463Y-110848918D01*
X174242252Y-110669987D01*
X174469987Y-110442252D01*
X174648918Y-110174463D01*
X174772168Y-109876912D01*
X174835000Y-109561033D01*
X174835000Y-109238967D01*
X174772168Y-108923088D01*
X174648918Y-108625537D01*
X174469987Y-108357748D01*
X174242252Y-108130013D01*
X173974463Y-107951082D01*
X173676912Y-107827832D01*
X173361033Y-107765000D01*
X173038967Y-107765000D01*
X172723088Y-107827832D01*
X172425537Y-107951082D01*
X172157748Y-108130013D01*
X171930013Y-108357748D01*
X171751082Y-108625537D01*
X171627832Y-108923088D01*
X171565000Y-109238967D01*
X171565000Y-109561033D01*
X171627832Y-109876912D01*
X171751082Y-110174463D01*
X171930013Y-110442252D01*
X172157748Y-110669987D01*
X172425537Y-110848918D01*
X172440001Y-110854909D01*
X172440000Y-113285198D01*
X171585199Y-114140000D01*
X161554802Y-114140000D01*
X158914802Y-111500000D01*
X163961928Y-111500000D01*
X163961928Y-113500000D01*
X163974188Y-113624482D01*
X164010498Y-113744180D01*
X164069463Y-113854494D01*
X164148815Y-113951185D01*
X164245506Y-114030537D01*
X164355820Y-114089502D01*
X164475518Y-114125812D01*
X164600000Y-114138072D01*
X167800000Y-114138072D01*
X167924482Y-114125812D01*
X168044180Y-114089502D01*
X168154494Y-114030537D01*
X168251185Y-113951185D01*
X168330537Y-113854494D01*
X168389502Y-113744180D01*
X168425812Y-113624482D01*
X168438072Y-113500000D01*
X168438072Y-111500000D01*
X168425812Y-111375518D01*
X168389502Y-111255820D01*
X168330537Y-111145506D01*
X168251185Y-111048815D01*
X168154494Y-110969463D01*
X168044180Y-110910498D01*
X167924482Y-110874188D01*
X167800000Y-110861928D01*
X164600000Y-110861928D01*
X164475518Y-110874188D01*
X164355820Y-110910498D01*
X164245506Y-110969463D01*
X164148815Y-111048815D01*
X164069463Y-111145506D01*
X164010498Y-111255820D01*
X163974188Y-111375518D01*
X163961928Y-111500000D01*
X158914802Y-111500000D01*
X158427662Y-111012860D01*
X158538967Y-111035000D01*
X158861033Y-111035000D01*
X159176912Y-110972168D01*
X159474463Y-110848918D01*
X159742252Y-110669987D01*
X159969987Y-110442252D01*
X160148918Y-110174463D01*
X160272168Y-109876912D01*
X160335000Y-109561033D01*
X160335000Y-109238967D01*
X160272168Y-108923088D01*
X160148918Y-108625537D01*
X159969987Y-108357748D01*
X159742252Y-108130013D01*
X159645065Y-108065075D01*
X159655808Y-108035413D01*
X158700000Y-107079605D01*
X158685858Y-107093748D01*
X158506253Y-106914143D01*
X158520395Y-106900000D01*
X158506253Y-106885858D01*
X158685858Y-106706253D01*
X158700000Y-106720395D01*
X158714143Y-106706253D01*
X158893748Y-106885858D01*
X158879605Y-106900000D01*
X159835413Y-107855808D01*
X160099814Y-107760044D01*
X160240704Y-107470429D01*
X160322384Y-107158892D01*
X160341718Y-106837405D01*
X160297961Y-106518325D01*
X160192795Y-106213912D01*
X160099814Y-106039956D01*
X159950777Y-105985976D01*
X160054494Y-105930537D01*
X160151185Y-105851185D01*
X160230537Y-105754494D01*
X160289502Y-105644180D01*
X160322496Y-105535413D01*
X172244192Y-105535413D01*
X172339956Y-105799814D01*
X172629571Y-105940704D01*
X172941108Y-106022384D01*
X173262595Y-106041718D01*
X173581675Y-105997961D01*
X173886088Y-105892795D01*
X174060044Y-105799814D01*
X174155808Y-105535413D01*
X173200000Y-104579605D01*
X172244192Y-105535413D01*
X160322496Y-105535413D01*
X160325812Y-105524482D01*
X160338072Y-105400000D01*
X160338072Y-104462595D01*
X171558282Y-104462595D01*
X171602039Y-104781675D01*
X171707205Y-105086088D01*
X171800186Y-105260044D01*
X172064587Y-105355808D01*
X173020395Y-104400000D01*
X173379605Y-104400000D01*
X174335413Y-105355808D01*
X174599814Y-105260044D01*
X174740704Y-104970429D01*
X174822384Y-104658892D01*
X174841718Y-104337405D01*
X174797961Y-104018325D01*
X174692795Y-103713912D01*
X174599814Y-103539956D01*
X174335413Y-103444192D01*
X173379605Y-104400000D01*
X173020395Y-104400000D01*
X172064587Y-103444192D01*
X171800186Y-103539956D01*
X171659296Y-103829571D01*
X171577616Y-104141108D01*
X171558282Y-104462595D01*
X160338072Y-104462595D01*
X160338072Y-103400000D01*
X160325812Y-103275518D01*
X160322497Y-103264587D01*
X172244192Y-103264587D01*
X173200000Y-104220395D01*
X174155808Y-103264587D01*
X174060044Y-103000186D01*
X173770429Y-102859296D01*
X173458892Y-102777616D01*
X173137405Y-102758282D01*
X172818325Y-102802039D01*
X172513912Y-102907205D01*
X172339956Y-103000186D01*
X172244192Y-103264587D01*
X160322497Y-103264587D01*
X160289502Y-103155820D01*
X160230537Y-103045506D01*
X160151185Y-102948815D01*
X160054494Y-102869463D01*
X159944180Y-102810498D01*
X159824482Y-102774188D01*
X159700000Y-102761928D01*
X159460000Y-102761928D01*
X159460000Y-101414801D01*
X160574801Y-100300000D01*
X163961928Y-100300000D01*
X163961928Y-102300000D01*
X163974188Y-102424482D01*
X164010498Y-102544180D01*
X164069463Y-102654494D01*
X164148815Y-102751185D01*
X164245506Y-102830537D01*
X164355820Y-102889502D01*
X164475518Y-102925812D01*
X164600000Y-102938072D01*
X167800000Y-102938072D01*
X167924482Y-102925812D01*
X168044180Y-102889502D01*
X168154494Y-102830537D01*
X168251185Y-102751185D01*
X168330537Y-102654494D01*
X168389502Y-102544180D01*
X168425812Y-102424482D01*
X168438072Y-102300000D01*
X168438072Y-100300000D01*
X168425812Y-100175518D01*
X168389502Y-100055820D01*
X168330537Y-99945506D01*
X168251185Y-99848815D01*
X168154494Y-99769463D01*
X168044180Y-99710498D01*
X167924482Y-99674188D01*
X167800000Y-99661928D01*
X164600000Y-99661928D01*
X164475518Y-99674188D01*
X164355820Y-99710498D01*
X164245506Y-99769463D01*
X164148815Y-99848815D01*
X164069463Y-99945506D01*
X164010498Y-100055820D01*
X163974188Y-100175518D01*
X163961928Y-100300000D01*
X160574801Y-100300000D01*
X171811004Y-89063798D01*
X171840001Y-89040001D01*
X171901553Y-88965000D01*
X171934974Y-88924277D01*
X172005546Y-88792247D01*
X172005803Y-88791401D01*
X172049003Y-88648986D01*
X172060000Y-88537333D01*
X172060000Y-88537323D01*
X172063676Y-88500000D01*
X172060000Y-88462677D01*
X172060000Y-81937322D01*
X172063676Y-81900000D01*
X172060000Y-81862677D01*
X172060000Y-81862667D01*
X172049003Y-81751014D01*
X172005546Y-81607753D01*
X171947317Y-81498815D01*
X171934974Y-81475723D01*
X171863799Y-81388997D01*
X171840001Y-81359999D01*
X171811003Y-81336201D01*
X168798803Y-78324002D01*
X168775000Y-78294998D01*
X168659275Y-78200025D01*
X168527246Y-78129453D01*
X168383985Y-78085996D01*
X168272332Y-78074999D01*
X168272321Y-78074999D01*
X168234999Y-78071323D01*
X168197677Y-78074999D01*
X118328072Y-78074999D01*
X118328072Y-76620000D01*
X118315812Y-76495518D01*
X118279502Y-76375820D01*
X118220537Y-76265506D01*
X118141185Y-76168815D01*
X118044494Y-76089463D01*
X117934180Y-76030498D01*
X117814482Y-75994188D01*
X117690000Y-75981928D01*
X115990000Y-75981928D01*
X115865518Y-75994188D01*
X115745820Y-76030498D01*
X115635506Y-76089463D01*
X115538815Y-76168815D01*
X115459463Y-76265506D01*
X115400498Y-76375820D01*
X115379607Y-76444687D01*
X115355134Y-76414866D01*
X115129014Y-76229294D01*
X114871034Y-76091401D01*
X114591111Y-76006487D01*
X114372950Y-75985000D01*
X114227050Y-75985000D01*
X114008889Y-76006487D01*
X113728966Y-76091401D01*
X113470986Y-76229294D01*
X113244866Y-76414866D01*
X113059294Y-76640986D01*
X112921401Y-76898966D01*
X112836487Y-77178889D01*
X112807815Y-77470000D01*
X112836487Y-77761111D01*
X112921401Y-78041034D01*
X113059294Y-78299014D01*
X113244866Y-78525134D01*
X113470986Y-78710706D01*
X113525791Y-78740000D01*
X113470986Y-78769294D01*
X113244866Y-78954866D01*
X113059294Y-79180986D01*
X112921401Y-79438966D01*
X112836487Y-79718889D01*
X112807815Y-80010000D01*
X112836487Y-80301111D01*
X112921401Y-80581034D01*
X113059294Y-80839014D01*
X113244866Y-81065134D01*
X113470986Y-81250706D01*
X113525791Y-81280000D01*
X113470986Y-81309294D01*
X113244866Y-81494866D01*
X113059294Y-81720986D01*
X112921401Y-81978966D01*
X112836487Y-82258889D01*
X112807815Y-82550000D01*
X112836487Y-82841111D01*
X112921401Y-83121034D01*
X113059294Y-83379014D01*
X113244866Y-83605134D01*
X113470986Y-83790706D01*
X113525791Y-83820000D01*
X113470986Y-83849294D01*
X113244866Y-84034866D01*
X113059294Y-84260986D01*
X112921401Y-84518966D01*
X112836487Y-84798889D01*
X112807815Y-85090000D01*
X112836487Y-85381111D01*
X112921401Y-85661034D01*
X113059294Y-85919014D01*
X113244866Y-86145134D01*
X113470986Y-86330706D01*
X113525791Y-86360000D01*
X113470986Y-86389294D01*
X113244866Y-86574866D01*
X113059294Y-86800986D01*
X112921401Y-87058966D01*
X112836487Y-87338889D01*
X112807815Y-87630000D01*
X112836487Y-87921111D01*
X112921401Y-88201034D01*
X113059294Y-88459014D01*
X113244866Y-88685134D01*
X113470986Y-88870706D01*
X113525791Y-88900000D01*
X113470986Y-88929294D01*
X113244866Y-89114866D01*
X113059294Y-89340986D01*
X112921401Y-89598966D01*
X112836487Y-89878889D01*
X112807815Y-90170000D01*
X112836487Y-90461111D01*
X112921401Y-90741034D01*
X113059294Y-90999014D01*
X113244866Y-91225134D01*
X113470986Y-91410706D01*
X113525791Y-91440000D01*
X113470986Y-91469294D01*
X113244866Y-91654866D01*
X113059294Y-91880986D01*
X112921401Y-92138966D01*
X112836487Y-92418889D01*
X112807815Y-92710000D01*
X112836487Y-93001111D01*
X112921401Y-93281034D01*
X113059294Y-93539014D01*
X113244866Y-93765134D01*
X113470986Y-93950706D01*
X113525791Y-93980000D01*
X113470986Y-94009294D01*
X113244866Y-94194866D01*
X113059294Y-94420986D01*
X112921401Y-94678966D01*
X112836487Y-94958889D01*
X112807815Y-95250000D01*
X112836487Y-95541111D01*
X112921401Y-95821034D01*
X113059294Y-96079014D01*
X113244866Y-96305134D01*
X113470986Y-96490706D01*
X113525791Y-96520000D01*
X113470986Y-96549294D01*
X113244866Y-96734866D01*
X113059294Y-96960986D01*
X112921401Y-97218966D01*
X112836487Y-97498889D01*
X112807815Y-97790000D01*
X112836487Y-98081111D01*
X112921401Y-98361034D01*
X113059294Y-98619014D01*
X113244866Y-98845134D01*
X113470986Y-99030706D01*
X113525791Y-99060000D01*
X113470986Y-99089294D01*
X113244866Y-99274866D01*
X113059294Y-99500986D01*
X112921401Y-99758966D01*
X112836487Y-100038889D01*
X112807815Y-100330000D01*
X112836487Y-100621111D01*
X112921401Y-100901034D01*
X113059294Y-101159014D01*
X113244866Y-101385134D01*
X113470986Y-101570706D01*
X113525791Y-101600000D01*
X113470986Y-101629294D01*
X113244866Y-101814866D01*
X113059294Y-102040986D01*
X112921401Y-102298966D01*
X112836487Y-102578889D01*
X112807815Y-102870000D01*
X112836487Y-103161111D01*
X112921401Y-103441034D01*
X113059294Y-103699014D01*
X113244866Y-103925134D01*
X113470986Y-104110706D01*
X113525791Y-104140000D01*
X113470986Y-104169294D01*
X113244866Y-104354866D01*
X113059294Y-104580986D01*
X112921401Y-104838966D01*
X112836487Y-105118889D01*
X112807815Y-105410000D01*
X112836487Y-105701111D01*
X112921401Y-105981034D01*
X113059294Y-106239014D01*
X113244866Y-106465134D01*
X113470986Y-106650706D01*
X113525791Y-106680000D01*
X113470986Y-106709294D01*
X113244866Y-106894866D01*
X113059294Y-107120986D01*
X112921401Y-107378966D01*
X112836487Y-107658889D01*
X112807815Y-107950000D01*
X112836487Y-108241111D01*
X112921401Y-108521034D01*
X113059294Y-108779014D01*
X113244866Y-109005134D01*
X113470986Y-109190706D01*
X113525791Y-109220000D01*
X113470986Y-109249294D01*
X113244866Y-109434866D01*
X113059294Y-109660986D01*
X112921401Y-109918966D01*
X112836487Y-110198889D01*
X112807815Y-110490000D01*
X112836487Y-110781111D01*
X112921401Y-111061034D01*
X113059294Y-111319014D01*
X113244866Y-111545134D01*
X113470986Y-111730706D01*
X113535523Y-111765201D01*
X113418645Y-111834822D01*
X113202412Y-112029731D01*
X113028359Y-112263080D01*
X112903175Y-112525901D01*
X112858524Y-112673110D01*
X112979845Y-112903000D01*
X114173000Y-112903000D01*
X114173000Y-112883000D01*
X114427000Y-112883000D01*
X114427000Y-112903000D01*
X114447000Y-112903000D01*
X114447000Y-113157000D01*
X114427000Y-113157000D01*
X114427000Y-114350814D01*
X114656891Y-114471481D01*
X114931252Y-114374157D01*
X115181355Y-114225178D01*
X115397588Y-114030269D01*
X115568416Y-113801244D01*
X115599294Y-113859014D01*
X115784866Y-114085134D01*
X116010986Y-114270706D01*
X116268966Y-114408599D01*
X116548889Y-114493513D01*
X116767050Y-114515000D01*
X116912950Y-114515000D01*
X117131111Y-114493513D01*
X117411034Y-114408599D01*
X117669014Y-114270706D01*
X117895134Y-114085134D01*
X118034759Y-113915000D01*
X119026531Y-113915000D01*
X119070000Y-113919281D01*
X119113469Y-113915000D01*
X140126531Y-113915000D01*
X140170000Y-113919281D01*
X140213469Y-113915000D01*
X140213477Y-113915000D01*
X140343490Y-113902195D01*
X140510313Y-113851589D01*
X140664059Y-113769411D01*
X140798817Y-113658817D01*
X140826534Y-113625044D01*
X147516579Y-106935000D01*
X152411928Y-106935000D01*
X152411928Y-107210000D01*
X152415001Y-107241199D01*
X152415001Y-107358800D01*
X152411928Y-107390000D01*
X152411928Y-107710000D01*
X152424188Y-107834482D01*
X152460498Y-107954180D01*
X152519463Y-108064494D01*
X152598815Y-108161185D01*
X152695506Y-108240537D01*
X152805820Y-108299502D01*
X152849756Y-108312830D01*
X152959688Y-108371589D01*
X153126511Y-108422195D01*
X153300000Y-108439282D01*
X153473490Y-108422195D01*
X153640313Y-108371589D01*
X153654260Y-108364134D01*
X153665026Y-108384276D01*
X153759999Y-108500001D01*
X153789002Y-108523803D01*
X160175198Y-114910000D01*
X112420000Y-114910000D01*
X112420000Y-113386890D01*
X112858524Y-113386890D01*
X112903175Y-113534099D01*
X113028359Y-113796920D01*
X113202412Y-114030269D01*
X113418645Y-114225178D01*
X113668748Y-114374157D01*
X113943109Y-114471481D01*
X114173000Y-114350814D01*
X114173000Y-113157000D01*
X112979845Y-113157000D01*
X112858524Y-113386890D01*
X112420000Y-113386890D01*
X112420000Y-75590000D01*
X180950000Y-75590000D01*
X180950001Y-114910000D01*
G36*
X136925196Y-90134998D02*
G01*
X136792500Y-90121928D01*
X136497500Y-90121928D01*
X136344243Y-90137023D01*
X136196875Y-90181726D01*
X136061060Y-90254321D01*
X135942017Y-90352017D01*
X135844321Y-90471060D01*
X135771726Y-90606875D01*
X135730439Y-90742982D01*
X126304952Y-100168470D01*
X126271184Y-100196183D01*
X126243471Y-100229951D01*
X126243468Y-100229954D01*
X126160590Y-100330941D01*
X126078412Y-100484687D01*
X126027805Y-100651510D01*
X126010719Y-100825000D01*
X126015001Y-100868479D01*
X126015000Y-104833421D01*
X118703422Y-112145000D01*
X118034759Y-112145000D01*
X117895134Y-111974866D01*
X117669014Y-111789294D01*
X117614209Y-111760000D01*
X117669014Y-111730706D01*
X117895134Y-111545134D01*
X118080706Y-111319014D01*
X118218599Y-111061034D01*
X118303513Y-110781111D01*
X118332185Y-110490000D01*
X118303513Y-110198889D01*
X118218599Y-109918966D01*
X118080706Y-109660986D01*
X117895134Y-109434866D01*
X117669014Y-109249294D01*
X117614209Y-109220000D01*
X117669014Y-109190706D01*
X117895134Y-109005134D01*
X118080706Y-108779014D01*
X118218599Y-108521034D01*
X118303513Y-108241111D01*
X118332185Y-107950000D01*
X118303513Y-107658889D01*
X118218599Y-107378966D01*
X118080706Y-107120986D01*
X117895134Y-106894866D01*
X117669014Y-106709294D01*
X117614209Y-106680000D01*
X117669014Y-106650706D01*
X117895134Y-106465134D01*
X118080706Y-106239014D01*
X118218599Y-105981034D01*
X118303513Y-105701111D01*
X118332185Y-105410000D01*
X118303513Y-105118889D01*
X118218599Y-104838966D01*
X118080706Y-104580986D01*
X117895134Y-104354866D01*
X117669014Y-104169294D01*
X117614209Y-104140000D01*
X117669014Y-104110706D01*
X117895134Y-103925134D01*
X118080706Y-103699014D01*
X118218599Y-103441034D01*
X118303513Y-103161111D01*
X118332185Y-102870000D01*
X118303513Y-102578889D01*
X118218599Y-102298966D01*
X118080706Y-102040986D01*
X117895134Y-101814866D01*
X117669014Y-101629294D01*
X117614209Y-101600000D01*
X117669014Y-101570706D01*
X117895134Y-101385134D01*
X118080706Y-101159014D01*
X118218599Y-100901034D01*
X118303513Y-100621111D01*
X118332185Y-100330000D01*
X118303513Y-100038889D01*
X118218599Y-99758966D01*
X118080706Y-99500986D01*
X117895134Y-99274866D01*
X117669014Y-99089294D01*
X117614209Y-99060000D01*
X117669014Y-99030706D01*
X117895134Y-98845134D01*
X118080706Y-98619014D01*
X118218599Y-98361034D01*
X118303513Y-98081111D01*
X118332185Y-97790000D01*
X118303513Y-97498889D01*
X118218599Y-97218966D01*
X118080706Y-96960986D01*
X117895134Y-96734866D01*
X117669014Y-96549294D01*
X117614209Y-96520000D01*
X117669014Y-96490706D01*
X117895134Y-96305134D01*
X118080706Y-96079014D01*
X118218599Y-95821034D01*
X118303513Y-95541111D01*
X118332185Y-95250000D01*
X118303513Y-94958889D01*
X118218599Y-94678966D01*
X118080706Y-94420986D01*
X117895134Y-94194866D01*
X117669014Y-94009294D01*
X117614209Y-93980000D01*
X117669014Y-93950706D01*
X117895134Y-93765134D01*
X118080706Y-93539014D01*
X118218599Y-93281034D01*
X118303513Y-93001111D01*
X118332185Y-92710000D01*
X118303513Y-92418889D01*
X118218599Y-92138966D01*
X118200444Y-92105001D01*
X132417677Y-92105001D01*
X132454999Y-92108677D01*
X132492321Y-92105001D01*
X132492332Y-92105001D01*
X132603985Y-92094004D01*
X132747246Y-92050547D01*
X132879275Y-91979975D01*
X132995000Y-91885002D01*
X133018803Y-91855998D01*
X133939802Y-90935000D01*
X134001939Y-90935000D01*
X134201898Y-90895226D01*
X134390256Y-90817205D01*
X134559774Y-90703937D01*
X134703937Y-90559774D01*
X134817205Y-90390256D01*
X134895226Y-90201898D01*
X134935000Y-90001939D01*
X134935000Y-89798061D01*
X134895226Y-89598102D01*
X134817205Y-89409744D01*
X134783967Y-89360000D01*
X136150199Y-89360000D01*
X136925196Y-90134998D01*
X136925196Y-90134998D01*
G37*
X136925196Y-90134998D02*
X136792500Y-90121928D01*
X136497500Y-90121928D01*
X136344243Y-90137023D01*
X136196875Y-90181726D01*
X136061060Y-90254321D01*
X135942017Y-90352017D01*
X135844321Y-90471060D01*
X135771726Y-90606875D01*
X135730439Y-90742982D01*
X126304952Y-100168470D01*
X126271184Y-100196183D01*
X126243471Y-100229951D01*
X126243468Y-100229954D01*
X126160590Y-100330941D01*
X126078412Y-100484687D01*
X126027805Y-100651510D01*
X126010719Y-100825000D01*
X126015001Y-100868479D01*
X126015000Y-104833421D01*
X118703422Y-112145000D01*
X118034759Y-112145000D01*
X117895134Y-111974866D01*
X117669014Y-111789294D01*
X117614209Y-111760000D01*
X117669014Y-111730706D01*
X117895134Y-111545134D01*
X118080706Y-111319014D01*
X118218599Y-111061034D01*
X118303513Y-110781111D01*
X118332185Y-110490000D01*
X118303513Y-110198889D01*
X118218599Y-109918966D01*
X118080706Y-109660986D01*
X117895134Y-109434866D01*
X117669014Y-109249294D01*
X117614209Y-109220000D01*
X117669014Y-109190706D01*
X117895134Y-109005134D01*
X118080706Y-108779014D01*
X118218599Y-108521034D01*
X118303513Y-108241111D01*
X118332185Y-107950000D01*
X118303513Y-107658889D01*
X118218599Y-107378966D01*
X118080706Y-107120986D01*
X117895134Y-106894866D01*
X117669014Y-106709294D01*
X117614209Y-106680000D01*
X117669014Y-106650706D01*
X117895134Y-106465134D01*
X118080706Y-106239014D01*
X118218599Y-105981034D01*
X118303513Y-105701111D01*
X118332185Y-105410000D01*
X118303513Y-105118889D01*
X118218599Y-104838966D01*
X118080706Y-104580986D01*
X117895134Y-104354866D01*
X117669014Y-104169294D01*
X117614209Y-104140000D01*
X117669014Y-104110706D01*
X117895134Y-103925134D01*
X118080706Y-103699014D01*
X118218599Y-103441034D01*
X118303513Y-103161111D01*
X118332185Y-102870000D01*
X118303513Y-102578889D01*
X118218599Y-102298966D01*
X118080706Y-102040986D01*
X117895134Y-101814866D01*
X117669014Y-101629294D01*
X117614209Y-101600000D01*
X117669014Y-101570706D01*
X117895134Y-101385134D01*
X118080706Y-101159014D01*
X118218599Y-100901034D01*
X118303513Y-100621111D01*
X118332185Y-100330000D01*
X118303513Y-100038889D01*
X118218599Y-99758966D01*
X118080706Y-99500986D01*
X117895134Y-99274866D01*
X117669014Y-99089294D01*
X117614209Y-99060000D01*
X117669014Y-99030706D01*
X117895134Y-98845134D01*
X118080706Y-98619014D01*
X118218599Y-98361034D01*
X118303513Y-98081111D01*
X118332185Y-97790000D01*
X118303513Y-97498889D01*
X118218599Y-97218966D01*
X118080706Y-96960986D01*
X117895134Y-96734866D01*
X117669014Y-96549294D01*
X117614209Y-96520000D01*
X117669014Y-96490706D01*
X117895134Y-96305134D01*
X118080706Y-96079014D01*
X118218599Y-95821034D01*
X118303513Y-95541111D01*
X118332185Y-95250000D01*
X118303513Y-94958889D01*
X118218599Y-94678966D01*
X118080706Y-94420986D01*
X117895134Y-94194866D01*
X117669014Y-94009294D01*
X117614209Y-93980000D01*
X117669014Y-93950706D01*
X117895134Y-93765134D01*
X118080706Y-93539014D01*
X118218599Y-93281034D01*
X118303513Y-93001111D01*
X118332185Y-92710000D01*
X118303513Y-92418889D01*
X118218599Y-92138966D01*
X118200444Y-92105001D01*
X132417677Y-92105001D01*
X132454999Y-92108677D01*
X132492321Y-92105001D01*
X132492332Y-92105001D01*
X132603985Y-92094004D01*
X132747246Y-92050547D01*
X132879275Y-91979975D01*
X132995000Y-91885002D01*
X133018803Y-91855998D01*
X133939802Y-90935000D01*
X134001939Y-90935000D01*
X134201898Y-90895226D01*
X134390256Y-90817205D01*
X134559774Y-90703937D01*
X134703937Y-90559774D01*
X134817205Y-90390256D01*
X134895226Y-90201898D01*
X134935000Y-90001939D01*
X134935000Y-89798061D01*
X134895226Y-89598102D01*
X134817205Y-89409744D01*
X134783967Y-89360000D01*
X136150199Y-89360000D01*
X136925196Y-90134998D01*
G36*
X164882795Y-89509744D02*
G01*
X164804774Y-89698102D01*
X164793465Y-89754956D01*
X152704952Y-101843470D01*
X152671184Y-101871183D01*
X152643471Y-101904951D01*
X152643468Y-101904954D01*
X152560590Y-102005941D01*
X152478412Y-102159687D01*
X152427805Y-102326510D01*
X152410719Y-102500000D01*
X152415001Y-102543479D01*
X152415000Y-105165000D01*
X147193469Y-105165000D01*
X147150000Y-105160719D01*
X147106531Y-105165000D01*
X147106523Y-105165000D01*
X146976510Y-105177805D01*
X146809686Y-105228411D01*
X146655941Y-105310589D01*
X146554953Y-105393468D01*
X146554951Y-105393470D01*
X146521183Y-105421183D01*
X146493470Y-105454951D01*
X139803422Y-112145000D01*
X121206578Y-112145000D01*
X127495051Y-105856528D01*
X127528817Y-105828817D01*
X127563691Y-105786324D01*
X127629660Y-105705941D01*
X127639411Y-105694059D01*
X127721589Y-105540313D01*
X127772195Y-105373490D01*
X127785000Y-105243477D01*
X127785000Y-105243467D01*
X127789281Y-105200001D01*
X127785000Y-105156535D01*
X127785000Y-101191578D01*
X132136578Y-96840000D01*
X135741928Y-96840000D01*
X135754188Y-96964482D01*
X135790498Y-97084180D01*
X135849463Y-97194494D01*
X135928815Y-97291185D01*
X136025506Y-97370537D01*
X136135820Y-97429502D01*
X136255518Y-97465812D01*
X136380000Y-97478072D01*
X136389250Y-97475000D01*
X136548000Y-97316250D01*
X136548000Y-96647000D01*
X135903750Y-96647000D01*
X135745000Y-96805750D01*
X135741928Y-96840000D01*
X132136578Y-96840000D01*
X135760001Y-93216578D01*
X135760000Y-95056531D01*
X135755719Y-95100000D01*
X135760000Y-95143469D01*
X135760000Y-95143476D01*
X135766623Y-95210718D01*
X135772805Y-95273490D01*
X135787596Y-95322247D01*
X135823411Y-95440312D01*
X135905589Y-95594058D01*
X135990828Y-95697922D01*
X135928815Y-95748815D01*
X135849463Y-95845506D01*
X135790498Y-95955820D01*
X135754188Y-96075518D01*
X135741928Y-96200000D01*
X135745000Y-96234250D01*
X135903750Y-96393000D01*
X136548000Y-96393000D01*
X136548000Y-96373000D01*
X136666421Y-96373000D01*
X136711928Y-96418507D01*
X136711928Y-96692500D01*
X136727023Y-96845757D01*
X136771726Y-96993125D01*
X136802000Y-97049763D01*
X136802000Y-97316250D01*
X136868121Y-97382371D01*
X136865000Y-97398061D01*
X136865000Y-97601939D01*
X136904774Y-97801898D01*
X136982795Y-97990256D01*
X137096063Y-98159774D01*
X137240226Y-98303937D01*
X137409744Y-98417205D01*
X137598102Y-98495226D01*
X137798061Y-98535000D01*
X138001939Y-98535000D01*
X138201898Y-98495226D01*
X138390256Y-98417205D01*
X138559774Y-98303937D01*
X138703937Y-98159774D01*
X138721810Y-98133026D01*
X138782795Y-98280256D01*
X138896063Y-98449774D01*
X139040226Y-98593937D01*
X139209744Y-98707205D01*
X139398102Y-98785226D01*
X139598061Y-98825000D01*
X139801939Y-98825000D01*
X140001898Y-98785226D01*
X140190256Y-98707205D01*
X140359774Y-98593937D01*
X140503937Y-98449774D01*
X140617205Y-98280256D01*
X140695226Y-98091898D01*
X140735000Y-97891939D01*
X140735000Y-97688061D01*
X140695226Y-97488102D01*
X140617205Y-97299744D01*
X140575000Y-97236580D01*
X140575000Y-97178508D01*
X140615679Y-97128940D01*
X140688274Y-96993125D01*
X140732977Y-96845757D01*
X140748072Y-96692500D01*
X140748072Y-96347500D01*
X140732977Y-96194243D01*
X140688274Y-96046875D01*
X140615679Y-95911060D01*
X140561173Y-95844644D01*
X140610537Y-95784494D01*
X140669502Y-95674180D01*
X140705812Y-95554482D01*
X140718072Y-95430000D01*
X140715000Y-95315750D01*
X140556250Y-95157000D01*
X139757000Y-95157000D01*
X139757000Y-95177000D01*
X139503000Y-95177000D01*
X139503000Y-95157000D01*
X139483000Y-95157000D01*
X139483000Y-94903000D01*
X139503000Y-94903000D01*
X139503000Y-94883000D01*
X139757000Y-94883000D01*
X139757000Y-94903000D01*
X140556250Y-94903000D01*
X140715000Y-94744250D01*
X140718072Y-94630000D01*
X140705812Y-94505518D01*
X140669502Y-94385820D01*
X140610537Y-94275506D01*
X140531185Y-94178815D01*
X140434494Y-94099463D01*
X140398082Y-94080000D01*
X140434494Y-94060537D01*
X140531185Y-93981185D01*
X140610537Y-93884494D01*
X140669502Y-93774180D01*
X140705812Y-93654482D01*
X140718072Y-93530000D01*
X140718072Y-92730000D01*
X140705812Y-92605518D01*
X140669502Y-92485820D01*
X140655963Y-92460491D01*
X140664003Y-92433986D01*
X140675000Y-92322333D01*
X140675000Y-92322323D01*
X140678676Y-92285000D01*
X140675000Y-92247677D01*
X140675000Y-91738508D01*
X140715679Y-91688940D01*
X140788274Y-91553125D01*
X140832977Y-91405757D01*
X140848072Y-91252500D01*
X140848072Y-90907500D01*
X140832977Y-90754243D01*
X140788274Y-90606875D01*
X140715679Y-90471060D01*
X140617983Y-90352017D01*
X140498940Y-90254321D01*
X140363125Y-90181726D01*
X140215757Y-90137023D01*
X140062500Y-90121928D01*
X139767500Y-90121928D01*
X139614243Y-90137023D01*
X139466875Y-90181726D01*
X139430000Y-90201436D01*
X139393125Y-90181726D01*
X139245757Y-90137023D01*
X139092500Y-90121928D01*
X139061730Y-90121928D01*
X138299802Y-89360000D01*
X164982850Y-89360000D01*
X164882795Y-89509744D01*
X164882795Y-89509744D01*
G37*
X164882795Y-89509744D02*
X164804774Y-89698102D01*
X164793465Y-89754956D01*
X152704952Y-101843470D01*
X152671184Y-101871183D01*
X152643471Y-101904951D01*
X152643468Y-101904954D01*
X152560590Y-102005941D01*
X152478412Y-102159687D01*
X152427805Y-102326510D01*
X152410719Y-102500000D01*
X152415001Y-102543479D01*
X152415000Y-105165000D01*
X147193469Y-105165000D01*
X147150000Y-105160719D01*
X147106531Y-105165000D01*
X147106523Y-105165000D01*
X146976510Y-105177805D01*
X146809686Y-105228411D01*
X146655941Y-105310589D01*
X146554953Y-105393468D01*
X146554951Y-105393470D01*
X146521183Y-105421183D01*
X146493470Y-105454951D01*
X139803422Y-112145000D01*
X121206578Y-112145000D01*
X127495051Y-105856528D01*
X127528817Y-105828817D01*
X127563691Y-105786324D01*
X127629660Y-105705941D01*
X127639411Y-105694059D01*
X127721589Y-105540313D01*
X127772195Y-105373490D01*
X127785000Y-105243477D01*
X127785000Y-105243467D01*
X127789281Y-105200001D01*
X127785000Y-105156535D01*
X127785000Y-101191578D01*
X132136578Y-96840000D01*
X135741928Y-96840000D01*
X135754188Y-96964482D01*
X135790498Y-97084180D01*
X135849463Y-97194494D01*
X135928815Y-97291185D01*
X136025506Y-97370537D01*
X136135820Y-97429502D01*
X136255518Y-97465812D01*
X136380000Y-97478072D01*
X136389250Y-97475000D01*
X136548000Y-97316250D01*
X136548000Y-96647000D01*
X135903750Y-96647000D01*
X135745000Y-96805750D01*
X135741928Y-96840000D01*
X132136578Y-96840000D01*
X135760001Y-93216578D01*
X135760000Y-95056531D01*
X135755719Y-95100000D01*
X135760000Y-95143469D01*
X135760000Y-95143476D01*
X135766623Y-95210718D01*
X135772805Y-95273490D01*
X135787596Y-95322247D01*
X135823411Y-95440312D01*
X135905589Y-95594058D01*
X135990828Y-95697922D01*
X135928815Y-95748815D01*
X135849463Y-95845506D01*
X135790498Y-95955820D01*
X135754188Y-96075518D01*
X135741928Y-96200000D01*
X135745000Y-96234250D01*
X135903750Y-96393000D01*
X136548000Y-96393000D01*
X136548000Y-96373000D01*
X136666421Y-96373000D01*
X136711928Y-96418507D01*
X136711928Y-96692500D01*
X136727023Y-96845757D01*
X136771726Y-96993125D01*
X136802000Y-97049763D01*
X136802000Y-97316250D01*
X136868121Y-97382371D01*
X136865000Y-97398061D01*
X136865000Y-97601939D01*
X136904774Y-97801898D01*
X136982795Y-97990256D01*
X137096063Y-98159774D01*
X137240226Y-98303937D01*
X137409744Y-98417205D01*
X137598102Y-98495226D01*
X137798061Y-98535000D01*
X138001939Y-98535000D01*
X138201898Y-98495226D01*
X138390256Y-98417205D01*
X138559774Y-98303937D01*
X138703937Y-98159774D01*
X138721810Y-98133026D01*
X138782795Y-98280256D01*
X138896063Y-98449774D01*
X139040226Y-98593937D01*
X139209744Y-98707205D01*
X139398102Y-98785226D01*
X139598061Y-98825000D01*
X139801939Y-98825000D01*
X140001898Y-98785226D01*
X140190256Y-98707205D01*
X140359774Y-98593937D01*
X140503937Y-98449774D01*
X140617205Y-98280256D01*
X140695226Y-98091898D01*
X140735000Y-97891939D01*
X140735000Y-97688061D01*
X140695226Y-97488102D01*
X140617205Y-97299744D01*
X140575000Y-97236580D01*
X140575000Y-97178508D01*
X140615679Y-97128940D01*
X140688274Y-96993125D01*
X140732977Y-96845757D01*
X140748072Y-96692500D01*
X140748072Y-96347500D01*
X140732977Y-96194243D01*
X140688274Y-96046875D01*
X140615679Y-95911060D01*
X140561173Y-95844644D01*
X140610537Y-95784494D01*
X140669502Y-95674180D01*
X140705812Y-95554482D01*
X140718072Y-95430000D01*
X140715000Y-95315750D01*
X140556250Y-95157000D01*
X139757000Y-95157000D01*
X139757000Y-95177000D01*
X139503000Y-95177000D01*
X139503000Y-95157000D01*
X139483000Y-95157000D01*
X139483000Y-94903000D01*
X139503000Y-94903000D01*
X139503000Y-94883000D01*
X139757000Y-94883000D01*
X139757000Y-94903000D01*
X140556250Y-94903000D01*
X140715000Y-94744250D01*
X140718072Y-94630000D01*
X140705812Y-94505518D01*
X140669502Y-94385820D01*
X140610537Y-94275506D01*
X140531185Y-94178815D01*
X140434494Y-94099463D01*
X140398082Y-94080000D01*
X140434494Y-94060537D01*
X140531185Y-93981185D01*
X140610537Y-93884494D01*
X140669502Y-93774180D01*
X140705812Y-93654482D01*
X140718072Y-93530000D01*
X140718072Y-92730000D01*
X140705812Y-92605518D01*
X140669502Y-92485820D01*
X140655963Y-92460491D01*
X140664003Y-92433986D01*
X140675000Y-92322333D01*
X140675000Y-92322323D01*
X140678676Y-92285000D01*
X140675000Y-92247677D01*
X140675000Y-91738508D01*
X140715679Y-91688940D01*
X140788274Y-91553125D01*
X140832977Y-91405757D01*
X140848072Y-91252500D01*
X140848072Y-90907500D01*
X140832977Y-90754243D01*
X140788274Y-90606875D01*
X140715679Y-90471060D01*
X140617983Y-90352017D01*
X140498940Y-90254321D01*
X140363125Y-90181726D01*
X140215757Y-90137023D01*
X140062500Y-90121928D01*
X139767500Y-90121928D01*
X139614243Y-90137023D01*
X139466875Y-90181726D01*
X139430000Y-90201436D01*
X139393125Y-90181726D01*
X139245757Y-90137023D01*
X139092500Y-90121928D01*
X139061730Y-90121928D01*
X138299802Y-89360000D01*
X164982850Y-89360000D01*
X164882795Y-89509744D01*
G36*
X170540001Y-82214803D02*
G01*
X170540001Y-83707464D01*
X170539502Y-83705820D01*
X170480537Y-83595506D01*
X170401185Y-83498815D01*
X170304494Y-83419463D01*
X170194180Y-83360498D01*
X170074482Y-83324188D01*
X169950000Y-83311928D01*
X169438095Y-83311928D01*
X169451185Y-83301185D01*
X169530537Y-83204494D01*
X169589502Y-83094180D01*
X169625812Y-82974482D01*
X169638072Y-82850000D01*
X169638072Y-81950000D01*
X169625812Y-81825518D01*
X169589502Y-81705820D01*
X169530537Y-81595506D01*
X169451185Y-81498815D01*
X169354494Y-81419463D01*
X169244180Y-81360498D01*
X169124482Y-81324188D01*
X169000000Y-81311928D01*
X168200000Y-81311928D01*
X168075518Y-81324188D01*
X167955820Y-81360498D01*
X167845506Y-81419463D01*
X167748815Y-81498815D01*
X167669463Y-81595506D01*
X167645680Y-81640000D01*
X167437322Y-81640000D01*
X167399999Y-81636324D01*
X167362676Y-81640000D01*
X167362667Y-81640000D01*
X167251014Y-81650997D01*
X167107753Y-81694454D01*
X166975723Y-81765026D01*
X166902014Y-81825518D01*
X166859999Y-81859999D01*
X166836200Y-81888998D01*
X166655000Y-82070198D01*
X166655000Y-82002998D01*
X166496252Y-82002998D01*
X166655000Y-81844250D01*
X166658072Y-81835000D01*
X166645812Y-81710518D01*
X166609502Y-81590820D01*
X166550537Y-81480506D01*
X166471185Y-81383815D01*
X166374494Y-81304463D01*
X166264180Y-81245498D01*
X166144482Y-81209188D01*
X166020000Y-81196928D01*
X165985750Y-81200000D01*
X165827000Y-81358750D01*
X165827000Y-82003000D01*
X165847000Y-82003000D01*
X165847000Y-82166928D01*
X165553000Y-82166928D01*
X165553000Y-82003000D01*
X165573000Y-82003000D01*
X165573000Y-81358750D01*
X165414250Y-81200000D01*
X165380000Y-81196928D01*
X165255518Y-81209188D01*
X165135820Y-81245498D01*
X165025506Y-81304463D01*
X164928815Y-81383815D01*
X164849463Y-81480506D01*
X164790498Y-81590820D01*
X164754188Y-81710518D01*
X164741928Y-81835000D01*
X164745000Y-81844250D01*
X164903748Y-82002998D01*
X164745000Y-82002998D01*
X164745000Y-82122628D01*
X164701898Y-82104774D01*
X164501939Y-82065000D01*
X164298061Y-82065000D01*
X164098102Y-82104774D01*
X163909744Y-82182795D01*
X163861546Y-82215000D01*
X163343469Y-82215000D01*
X163300000Y-82210719D01*
X163256531Y-82215000D01*
X163256523Y-82215000D01*
X163126510Y-82227805D01*
X162959687Y-82278411D01*
X162920567Y-82299321D01*
X162805941Y-82360589D01*
X162704953Y-82443468D01*
X162704951Y-82443470D01*
X162671183Y-82471183D01*
X162643470Y-82504951D01*
X161904951Y-83243471D01*
X161871184Y-83271183D01*
X161843471Y-83304951D01*
X161843468Y-83304954D01*
X161760590Y-83405941D01*
X161678412Y-83559687D01*
X161627805Y-83726510D01*
X161610719Y-83900000D01*
X161615001Y-83943478D01*
X161615000Y-85156530D01*
X161610719Y-85200000D01*
X161615000Y-85243469D01*
X161615000Y-85243476D01*
X161627805Y-85373489D01*
X161678411Y-85540312D01*
X161760589Y-85694058D01*
X161871183Y-85828817D01*
X161904956Y-85856534D01*
X162843468Y-86795047D01*
X162871183Y-86828817D01*
X162904951Y-86856530D01*
X162904953Y-86856532D01*
X163005941Y-86939411D01*
X163159686Y-87021589D01*
X163297527Y-87063403D01*
X163326510Y-87072195D01*
X163456523Y-87085000D01*
X163456531Y-87085000D01*
X163500000Y-87089281D01*
X163543469Y-87085000D01*
X164810201Y-87085000D01*
X164804774Y-87098102D01*
X164765000Y-87298061D01*
X164765000Y-87501939D01*
X164804774Y-87701898D01*
X164861978Y-87840000D01*
X136502322Y-87840000D01*
X136465000Y-87836324D01*
X136427678Y-87840000D01*
X131237322Y-87840000D01*
X131199999Y-87836324D01*
X131162676Y-87840000D01*
X131162667Y-87840000D01*
X131051014Y-87850997D01*
X130907753Y-87894454D01*
X130775724Y-87965026D01*
X130659999Y-88059999D01*
X130636201Y-88088997D01*
X129315199Y-89410000D01*
X118117595Y-89410000D01*
X118080706Y-89340986D01*
X117895134Y-89114866D01*
X117669014Y-88929294D01*
X117614209Y-88900000D01*
X117669014Y-88870706D01*
X117895134Y-88685134D01*
X118080706Y-88459014D01*
X118117595Y-88390000D01*
X127226289Y-88390000D01*
X127340226Y-88503937D01*
X127509744Y-88617205D01*
X127698102Y-88695226D01*
X127898061Y-88735000D01*
X128101939Y-88735000D01*
X128301898Y-88695226D01*
X128490256Y-88617205D01*
X128659774Y-88503937D01*
X128803937Y-88359774D01*
X128917205Y-88190256D01*
X128995226Y-88001898D01*
X129035000Y-87801939D01*
X129035000Y-87598061D01*
X128995226Y-87398102D01*
X128917205Y-87209744D01*
X128803937Y-87040226D01*
X128659774Y-86896063D01*
X128490256Y-86782795D01*
X128301898Y-86704774D01*
X128101939Y-86665000D01*
X127898061Y-86665000D01*
X127698102Y-86704774D01*
X127509744Y-86782795D01*
X127379232Y-86870000D01*
X118117595Y-86870000D01*
X118080706Y-86800986D01*
X117895134Y-86574866D01*
X117669014Y-86389294D01*
X117614209Y-86360000D01*
X117669014Y-86330706D01*
X117895134Y-86145134D01*
X118080706Y-85919014D01*
X118117595Y-85850000D01*
X125886289Y-85850000D01*
X125940226Y-85903937D01*
X126109744Y-86017205D01*
X126298102Y-86095226D01*
X126498061Y-86135000D01*
X126701939Y-86135000D01*
X126901898Y-86095226D01*
X127090256Y-86017205D01*
X127259774Y-85903937D01*
X127403937Y-85759774D01*
X127517205Y-85590256D01*
X127595226Y-85401898D01*
X127635000Y-85201939D01*
X127635000Y-84998061D01*
X127595226Y-84798102D01*
X127517205Y-84609744D01*
X127403937Y-84440226D01*
X127259774Y-84296063D01*
X127090256Y-84182795D01*
X126901898Y-84104774D01*
X126701939Y-84065000D01*
X126498061Y-84065000D01*
X126298102Y-84104774D01*
X126109744Y-84182795D01*
X125940226Y-84296063D01*
X125906289Y-84330000D01*
X118117595Y-84330000D01*
X118080706Y-84260986D01*
X117895134Y-84034866D01*
X117669014Y-83849294D01*
X117614209Y-83820000D01*
X117669014Y-83790706D01*
X117895134Y-83605134D01*
X118080706Y-83379014D01*
X118218599Y-83121034D01*
X118303513Y-82841111D01*
X118332185Y-82550000D01*
X118303513Y-82258889D01*
X118218599Y-81978966D01*
X118080706Y-81720986D01*
X117895134Y-81494866D01*
X117669014Y-81309294D01*
X117614209Y-81280000D01*
X117669014Y-81250706D01*
X117895134Y-81065134D01*
X118080706Y-80839014D01*
X118218599Y-80581034D01*
X118303513Y-80301111D01*
X118332185Y-80010000D01*
X118303513Y-79718889D01*
X118265931Y-79594999D01*
X167920198Y-79594999D01*
X170540001Y-82214803D01*
X170540001Y-82214803D01*
G37*
X170540001Y-82214803D02*
X170540001Y-83707464D01*
X170539502Y-83705820D01*
X170480537Y-83595506D01*
X170401185Y-83498815D01*
X170304494Y-83419463D01*
X170194180Y-83360498D01*
X170074482Y-83324188D01*
X169950000Y-83311928D01*
X169438095Y-83311928D01*
X169451185Y-83301185D01*
X169530537Y-83204494D01*
X169589502Y-83094180D01*
X169625812Y-82974482D01*
X169638072Y-82850000D01*
X169638072Y-81950000D01*
X169625812Y-81825518D01*
X169589502Y-81705820D01*
X169530537Y-81595506D01*
X169451185Y-81498815D01*
X169354494Y-81419463D01*
X169244180Y-81360498D01*
X169124482Y-81324188D01*
X169000000Y-81311928D01*
X168200000Y-81311928D01*
X168075518Y-81324188D01*
X167955820Y-81360498D01*
X167845506Y-81419463D01*
X167748815Y-81498815D01*
X167669463Y-81595506D01*
X167645680Y-81640000D01*
X167437322Y-81640000D01*
X167399999Y-81636324D01*
X167362676Y-81640000D01*
X167362667Y-81640000D01*
X167251014Y-81650997D01*
X167107753Y-81694454D01*
X166975723Y-81765026D01*
X166902014Y-81825518D01*
X166859999Y-81859999D01*
X166836200Y-81888998D01*
X166655000Y-82070198D01*
X166655000Y-82002998D01*
X166496252Y-82002998D01*
X166655000Y-81844250D01*
X166658072Y-81835000D01*
X166645812Y-81710518D01*
X166609502Y-81590820D01*
X166550537Y-81480506D01*
X166471185Y-81383815D01*
X166374494Y-81304463D01*
X166264180Y-81245498D01*
X166144482Y-81209188D01*
X166020000Y-81196928D01*
X165985750Y-81200000D01*
X165827000Y-81358750D01*
X165827000Y-82003000D01*
X165847000Y-82003000D01*
X165847000Y-82166928D01*
X165553000Y-82166928D01*
X165553000Y-82003000D01*
X165573000Y-82003000D01*
X165573000Y-81358750D01*
X165414250Y-81200000D01*
X165380000Y-81196928D01*
X165255518Y-81209188D01*
X165135820Y-81245498D01*
X165025506Y-81304463D01*
X164928815Y-81383815D01*
X164849463Y-81480506D01*
X164790498Y-81590820D01*
X164754188Y-81710518D01*
X164741928Y-81835000D01*
X164745000Y-81844250D01*
X164903748Y-82002998D01*
X164745000Y-82002998D01*
X164745000Y-82122628D01*
X164701898Y-82104774D01*
X164501939Y-82065000D01*
X164298061Y-82065000D01*
X164098102Y-82104774D01*
X163909744Y-82182795D01*
X163861546Y-82215000D01*
X163343469Y-82215000D01*
X163300000Y-82210719D01*
X163256531Y-82215000D01*
X163256523Y-82215000D01*
X163126510Y-82227805D01*
X162959687Y-82278411D01*
X162920567Y-82299321D01*
X162805941Y-82360589D01*
X162704953Y-82443468D01*
X162704951Y-82443470D01*
X162671183Y-82471183D01*
X162643470Y-82504951D01*
X161904951Y-83243471D01*
X161871184Y-83271183D01*
X161843471Y-83304951D01*
X161843468Y-83304954D01*
X161760590Y-83405941D01*
X161678412Y-83559687D01*
X161627805Y-83726510D01*
X161610719Y-83900000D01*
X161615001Y-83943478D01*
X161615000Y-85156530D01*
X161610719Y-85200000D01*
X161615000Y-85243469D01*
X161615000Y-85243476D01*
X161627805Y-85373489D01*
X161678411Y-85540312D01*
X161760589Y-85694058D01*
X161871183Y-85828817D01*
X161904956Y-85856534D01*
X162843468Y-86795047D01*
X162871183Y-86828817D01*
X162904951Y-86856530D01*
X162904953Y-86856532D01*
X163005941Y-86939411D01*
X163159686Y-87021589D01*
X163297527Y-87063403D01*
X163326510Y-87072195D01*
X163456523Y-87085000D01*
X163456531Y-87085000D01*
X163500000Y-87089281D01*
X163543469Y-87085000D01*
X164810201Y-87085000D01*
X164804774Y-87098102D01*
X164765000Y-87298061D01*
X164765000Y-87501939D01*
X164804774Y-87701898D01*
X164861978Y-87840000D01*
X136502322Y-87840000D01*
X136465000Y-87836324D01*
X136427678Y-87840000D01*
X131237322Y-87840000D01*
X131199999Y-87836324D01*
X131162676Y-87840000D01*
X131162667Y-87840000D01*
X131051014Y-87850997D01*
X130907753Y-87894454D01*
X130775724Y-87965026D01*
X130659999Y-88059999D01*
X130636201Y-88088997D01*
X129315199Y-89410000D01*
X118117595Y-89410000D01*
X118080706Y-89340986D01*
X117895134Y-89114866D01*
X117669014Y-88929294D01*
X117614209Y-88900000D01*
X117669014Y-88870706D01*
X117895134Y-88685134D01*
X118080706Y-88459014D01*
X118117595Y-88390000D01*
X127226289Y-88390000D01*
X127340226Y-88503937D01*
X127509744Y-88617205D01*
X127698102Y-88695226D01*
X127898061Y-88735000D01*
X128101939Y-88735000D01*
X128301898Y-88695226D01*
X128490256Y-88617205D01*
X128659774Y-88503937D01*
X128803937Y-88359774D01*
X128917205Y-88190256D01*
X128995226Y-88001898D01*
X129035000Y-87801939D01*
X129035000Y-87598061D01*
X128995226Y-87398102D01*
X128917205Y-87209744D01*
X128803937Y-87040226D01*
X128659774Y-86896063D01*
X128490256Y-86782795D01*
X128301898Y-86704774D01*
X128101939Y-86665000D01*
X127898061Y-86665000D01*
X127698102Y-86704774D01*
X127509744Y-86782795D01*
X127379232Y-86870000D01*
X118117595Y-86870000D01*
X118080706Y-86800986D01*
X117895134Y-86574866D01*
X117669014Y-86389294D01*
X117614209Y-86360000D01*
X117669014Y-86330706D01*
X117895134Y-86145134D01*
X118080706Y-85919014D01*
X118117595Y-85850000D01*
X125886289Y-85850000D01*
X125940226Y-85903937D01*
X126109744Y-86017205D01*
X126298102Y-86095226D01*
X126498061Y-86135000D01*
X126701939Y-86135000D01*
X126901898Y-86095226D01*
X127090256Y-86017205D01*
X127259774Y-85903937D01*
X127403937Y-85759774D01*
X127517205Y-85590256D01*
X127595226Y-85401898D01*
X127635000Y-85201939D01*
X127635000Y-84998061D01*
X127595226Y-84798102D01*
X127517205Y-84609744D01*
X127403937Y-84440226D01*
X127259774Y-84296063D01*
X127090256Y-84182795D01*
X126901898Y-84104774D01*
X126701939Y-84065000D01*
X126498061Y-84065000D01*
X126298102Y-84104774D01*
X126109744Y-84182795D01*
X125940226Y-84296063D01*
X125906289Y-84330000D01*
X118117595Y-84330000D01*
X118080706Y-84260986D01*
X117895134Y-84034866D01*
X117669014Y-83849294D01*
X117614209Y-83820000D01*
X117669014Y-83790706D01*
X117895134Y-83605134D01*
X118080706Y-83379014D01*
X118218599Y-83121034D01*
X118303513Y-82841111D01*
X118332185Y-82550000D01*
X118303513Y-82258889D01*
X118218599Y-81978966D01*
X118080706Y-81720986D01*
X117895134Y-81494866D01*
X117669014Y-81309294D01*
X117614209Y-81280000D01*
X117669014Y-81250706D01*
X117895134Y-81065134D01*
X118080706Y-80839014D01*
X118218599Y-80581034D01*
X118303513Y-80301111D01*
X118332185Y-80010000D01*
X118303513Y-79718889D01*
X118265931Y-79594999D01*
X167920198Y-79594999D01*
X170540001Y-82214803D01*
G36*
X167748815Y-83301185D02*
G01*
X167845506Y-83380537D01*
X167861607Y-83389143D01*
X167777000Y-83473750D01*
X167777000Y-84273000D01*
X167797000Y-84273000D01*
X167797000Y-84527000D01*
X167777000Y-84527000D01*
X167777000Y-84547000D01*
X167560000Y-84547000D01*
X167560000Y-83314801D01*
X167669844Y-83204958D01*
X167748815Y-83301185D01*
X167748815Y-83301185D01*
G37*
X167748815Y-83301185D02*
X167845506Y-83380537D01*
X167861607Y-83389143D01*
X167777000Y-83473750D01*
X167777000Y-84273000D01*
X167797000Y-84273000D01*
X167797000Y-84527000D01*
X167777000Y-84527000D01*
X167777000Y-84547000D01*
X167560000Y-84547000D01*
X167560000Y-83314801D01*
X167669844Y-83204958D01*
X167748815Y-83301185D01*
G36*
X168698815Y-83498815D02*
G01*
X168619463Y-83595506D01*
X168600000Y-83631918D01*
X168580537Y-83595506D01*
X168501185Y-83498815D01*
X168488095Y-83488072D01*
X168711905Y-83488072D01*
X168698815Y-83498815D01*
X168698815Y-83498815D01*
G37*
X168698815Y-83498815D02*
X168619463Y-83595506D01*
X168600000Y-83631918D01*
X168580537Y-83595506D01*
X168501185Y-83498815D01*
X168488095Y-83488072D01*
X168711905Y-83488072D01*
X168698815Y-83498815D01*
M02*
