M48
; DRILL file {KiCad 5.1.2+dfsg1-1} date 2019年08月07日 星期三 20时01分06秒
; FORMAT={-:-/ absolute / inch / decimal}
; #@! TF.CreationDate,2019-08-07T20:01:06+08:00
; #@! TF.GenerationSoftware,Kicad,Pcbnew,5.1.2+dfsg1-1
; #@! TF.FileFunction,Plated,1,2,PTH
FMAT,2
INCH
T1C0.0157
T2C0.0394
T3C0.0591
%
G90
G05
T1
X4.7638Y-3.8189
X4.7638Y-3.937
X4.9606Y-3.6614
X4.9843Y-3.3504
X5.0394Y-3.4528
X5.0394Y-3.7402
X5.0394Y-4.252
X5.2717Y-3.5394
X5.3543Y-4.252
X5.4094Y-3.9921
X5.4291Y-3.8386
X5.4331Y-3.2283
X5.5Y-3.85
X5.5906Y-3.6614
X5.5906Y-3.8976
X5.5906Y-3.9764
X5.7874Y-3.6614
X5.8661Y-3.2283
X6.1024Y-3.4252
X6.2992Y-3.3622
X6.4724Y-3.2717
X6.4724Y-3.3189
X6.5276Y-3.4409
X6.5276Y-3.5433
X6.5748Y-3.1496
X6.6299Y-3.2913
X6.9685Y-3.1496
X6.9685Y-3.7008
T2
X4.5Y-3.05
X4.5Y-3.15
X4.5Y-3.25
X4.5Y-3.35
X4.5Y-3.45
X4.5Y-3.55
X4.5Y-3.65
X4.5Y-3.75
X4.5Y-3.85
X4.5Y-3.95
X4.5Y-4.05
X4.5Y-4.15
X4.5Y-4.25
X4.5Y-4.35
X4.5Y-4.45
X4.6Y-3.05
X4.6Y-3.15
X4.6Y-3.25
X4.6Y-3.35
X4.6Y-3.45
X4.6Y-3.55
X4.6Y-3.65
X4.6Y-3.75
X4.6Y-3.85
X4.6Y-3.95
X4.6Y-4.05
X4.6Y-4.15
X4.6Y-4.25
X4.6Y-4.35
X4.6Y-4.45
X6.248Y-4.1102
X6.248Y-4.2087
X6.248Y-4.3071
X6.8189Y-4.1102
X6.8189Y-4.3071
T3
G00X6.5177Y-3.9882
M15
G01X6.5689Y-3.9882
M16
G05
G00X6.5177Y-4.4291
M15
G01X6.5689Y-4.4291
M16
G05
T0
M30
