G04 #@! TF.GenerationSoftware,KiCad,Pcbnew,5.1.2+dfsg1-1*
G04 #@! TF.CreationDate,2019-08-07T20:01:01+08:00*
G04 #@! TF.ProjectId,LCD_MINI,4c43445f-4d49-44e4-992e-6b696361645f,rev?*
G04 #@! TF.SameCoordinates,Original*
G04 #@! TF.FileFunction,Copper,L1,Top*
G04 #@! TF.FilePolarity,Positive*
%FSLAX46Y46*%
G04 Gerber Fmt 4.6, Leading zero omitted, Abs format (unit mm)*
G04 Created by KiCad (PCBNEW 5.1.2+dfsg1-1) date 2019-08-07 20:01:01*
%MOMM*%
%LPD*%
G04 APERTURE LIST*
%ADD10O,1.700000X1.700000*%
%ADD11R,1.700000X1.700000*%
%ADD12R,2.000000X2.000000*%
%ADD13C,2.000000*%
%ADD14R,3.200000X2.000000*%
%ADD15R,2.500000X0.350000*%
%ADD16R,0.350000X2.500000*%
%ADD17C,0.800000*%
%ADD18C,0.250000*%
%ADD19C,0.500000*%
%ADD20C,0.254000*%
G04 APERTURE END LIST*
D10*
X114300000Y-113030000D03*
X116840000Y-113030000D03*
X114300000Y-110490000D03*
X116840000Y-110490000D03*
X114300000Y-107950000D03*
X116840000Y-107950000D03*
X114300000Y-105410000D03*
X116840000Y-105410000D03*
X114300000Y-102870000D03*
X116840000Y-102870000D03*
X114300000Y-100330000D03*
X116840000Y-100330000D03*
X114300000Y-97790000D03*
X116840000Y-97790000D03*
X114300000Y-95250000D03*
X116840000Y-95250000D03*
X114300000Y-92710000D03*
X116840000Y-92710000D03*
X114300000Y-90170000D03*
X116840000Y-90170000D03*
X114300000Y-87630000D03*
X116840000Y-87630000D03*
X114300000Y-85090000D03*
X116840000Y-85090000D03*
X114300000Y-82550000D03*
X116840000Y-82550000D03*
X114300000Y-80010000D03*
X116840000Y-80010000D03*
X114300000Y-77470000D03*
D11*
X116840000Y-77470000D03*
D12*
X158700000Y-104400000D03*
D13*
X158700000Y-106900000D03*
X158700000Y-109400000D03*
D14*
X166200000Y-101300000D03*
X166200000Y-112500000D03*
D13*
X173200000Y-104400000D03*
X173200000Y-109400000D03*
D15*
X162179000Y-82038600D03*
X162179000Y-82738600D03*
X162179000Y-83438600D03*
X162179000Y-84138600D03*
X162179000Y-84838600D03*
X162179000Y-85538600D03*
X162179000Y-86238600D03*
X162179000Y-86938600D03*
X162179000Y-87638600D03*
X162179000Y-88338600D03*
X162179000Y-89038600D03*
X162179000Y-89738600D03*
X162179000Y-90438600D03*
D16*
X132757400Y-99682600D03*
X133457400Y-99682600D03*
X134157400Y-99682600D03*
X134857400Y-99682600D03*
X135557400Y-99682600D03*
X136257400Y-99682600D03*
X136957400Y-99682600D03*
X137657400Y-99682600D03*
X138357400Y-99682600D03*
X139057400Y-99682600D03*
X139757400Y-99682600D03*
X140457400Y-99682600D03*
D17*
X137900000Y-97500000D03*
X164400000Y-83100000D03*
X165800000Y-90000000D03*
X165800000Y-87400000D03*
X121000000Y-97000000D03*
X121000000Y-100000000D03*
X128000000Y-108000000D03*
X136000000Y-108000000D03*
X142000000Y-93000000D03*
X147000000Y-93000000D03*
X138000000Y-82000000D03*
X149000000Y-82000000D03*
X177000000Y-80000000D03*
X177000000Y-94000000D03*
X155000000Y-87000000D03*
X168400000Y-83600000D03*
X167000000Y-80000000D03*
X126000000Y-93000000D03*
X128000000Y-95000000D03*
X142000000Y-99000000D03*
X142000000Y-101000000D03*
X137400000Y-101400000D03*
X160000000Y-85400000D03*
X133900000Y-89900000D03*
X128000000Y-87700000D03*
X126600000Y-85100000D03*
X139700000Y-97790000D03*
X164400000Y-84300000D03*
D18*
X162179000Y-82738600D02*
X164038600Y-82738600D01*
X164038600Y-82738600D02*
X164400000Y-83100000D01*
D19*
X160429000Y-82738600D02*
X162179000Y-82738600D01*
X160100000Y-83067600D02*
X160429000Y-82738600D01*
X160100000Y-83594602D02*
X160100000Y-83067600D01*
X160643998Y-84138600D02*
X160100000Y-83594602D01*
X162179000Y-84138600D02*
X160643998Y-84138600D01*
X139057400Y-99682600D02*
X138357400Y-99682600D01*
X138357400Y-97957400D02*
X137900000Y-97500000D01*
X138357400Y-99682600D02*
X138357400Y-97957400D01*
X165800000Y-90000000D02*
X165800000Y-87400000D01*
D18*
X137400000Y-99940000D02*
X137657400Y-99682600D01*
X137400000Y-101600000D02*
X137400000Y-99940000D01*
X136957400Y-99682600D02*
X137657400Y-99682600D01*
X160138600Y-85538600D02*
X160000000Y-85400000D01*
X162179000Y-85538600D02*
X160138600Y-85538600D01*
X162179000Y-85538600D02*
X165461400Y-85538600D01*
X173200000Y-109400000D02*
X173200000Y-113600000D01*
X173200000Y-113600000D02*
X172200000Y-114600000D01*
X172200000Y-114600000D02*
X156500000Y-114600000D01*
X156500000Y-114600000D02*
X146900000Y-105000000D01*
X146900000Y-105000000D02*
X133100000Y-105000000D01*
X115475001Y-93885001D02*
X115149999Y-93559999D01*
X121985001Y-93885001D02*
X115475001Y-93885001D01*
X115149999Y-93559999D02*
X114300000Y-92710000D01*
X133100000Y-105000000D02*
X121985001Y-93885001D01*
X162179000Y-86238600D02*
X137861400Y-86238600D01*
X137861400Y-86238600D02*
X137561400Y-86238600D01*
X137561400Y-86238600D02*
X133900000Y-89900000D01*
X135557400Y-99682600D02*
X135557400Y-95257400D01*
X135557400Y-95257400D02*
X128000000Y-87700000D01*
X124400000Y-88900000D02*
X133457400Y-97957400D01*
X115570000Y-88900000D02*
X124400000Y-88900000D01*
X133457400Y-97957400D02*
X133457400Y-99682600D01*
X114300000Y-87630000D02*
X115570000Y-88900000D01*
X162179000Y-86938600D02*
X163838600Y-86938600D01*
X163838600Y-86938600D02*
X164500000Y-87600000D01*
X164500000Y-87600000D02*
X164500000Y-90900000D01*
X164500000Y-90900000D02*
X151000000Y-104400000D01*
X151000000Y-104400000D02*
X135100000Y-104400000D01*
X133457400Y-102757400D02*
X133457400Y-99682600D01*
X135100000Y-104400000D02*
X133457400Y-102757400D01*
X136257400Y-99682600D02*
X136257400Y-94757400D01*
X136257400Y-94757400D02*
X126600000Y-85100000D01*
X162179000Y-87638600D02*
X159461400Y-87638600D01*
X159461400Y-87638600D02*
X144900000Y-102200000D01*
X144900000Y-102200000D02*
X136700000Y-102200000D01*
X136257400Y-101757400D02*
X136257400Y-99682600D01*
X136700000Y-102200000D02*
X136257400Y-101757400D01*
X134157400Y-99682600D02*
X134157400Y-96657400D01*
X134157400Y-96657400D02*
X123900000Y-86400000D01*
X114300000Y-85300000D02*
X115400000Y-86400000D01*
X114300000Y-85090000D02*
X114300000Y-85300000D01*
X123900000Y-86400000D02*
X115400000Y-86400000D01*
X162179000Y-89038600D02*
X159761400Y-89038600D01*
X159761400Y-89038600D02*
X145100000Y-103700000D01*
X145100000Y-103700000D02*
X135300000Y-103700000D01*
X134157400Y-102557400D02*
X134157400Y-99682600D01*
X135300000Y-103700000D02*
X134157400Y-102557400D01*
X134857400Y-99682600D02*
X134857400Y-95857400D01*
X121550000Y-82550000D02*
X116840000Y-82550000D01*
X134857400Y-95857400D02*
X121550000Y-82550000D01*
X162179000Y-88338600D02*
X159661400Y-88338600D01*
X159661400Y-88338600D02*
X145100000Y-102900000D01*
X145100000Y-102900000D02*
X135200000Y-102900000D01*
X134857400Y-102557400D02*
X134857400Y-99682600D01*
X135200000Y-102900000D02*
X134857400Y-102557400D01*
X115475001Y-78834999D02*
X114300000Y-80010000D01*
X156300000Y-107000000D02*
X156300000Y-103500000D01*
X158700000Y-109400000D02*
X156300000Y-107000000D01*
X171300000Y-88500000D02*
X171300000Y-82000000D01*
X168134999Y-78834999D02*
X115475001Y-78834999D01*
X156300000Y-103500000D02*
X171300000Y-88500000D01*
X171300000Y-82000000D02*
X168134999Y-78834999D01*
X139757400Y-99682600D02*
X139757400Y-97847400D01*
X139757400Y-97847400D02*
X139700000Y-97790000D01*
X162179000Y-83438600D02*
X163538600Y-83438600D01*
X163538600Y-83438600D02*
X164400000Y-84300000D01*
D20*
G36*
X180950001Y-114910000D02*
G01*
X172964801Y-114910000D01*
X173711003Y-114163799D01*
X173740001Y-114140001D01*
X173834974Y-114024276D01*
X173905546Y-113892247D01*
X173949003Y-113748986D01*
X173960000Y-113637333D01*
X173963677Y-113600000D01*
X173960000Y-113562667D01*
X173960000Y-110854909D01*
X173974463Y-110848918D01*
X174242252Y-110669987D01*
X174469987Y-110442252D01*
X174648918Y-110174463D01*
X174772168Y-109876912D01*
X174835000Y-109561033D01*
X174835000Y-109238967D01*
X174772168Y-108923088D01*
X174648918Y-108625537D01*
X174469987Y-108357748D01*
X174242252Y-108130013D01*
X173974463Y-107951082D01*
X173676912Y-107827832D01*
X173361033Y-107765000D01*
X173038967Y-107765000D01*
X172723088Y-107827832D01*
X172425537Y-107951082D01*
X172157748Y-108130013D01*
X171930013Y-108357748D01*
X171751082Y-108625537D01*
X171627832Y-108923088D01*
X171565000Y-109238967D01*
X171565000Y-109561033D01*
X171627832Y-109876912D01*
X171751082Y-110174463D01*
X171930013Y-110442252D01*
X172157748Y-110669987D01*
X172425537Y-110848918D01*
X172440000Y-110854909D01*
X172440001Y-113285197D01*
X171885199Y-113840000D01*
X168338284Y-113840000D01*
X168389502Y-113744180D01*
X168425812Y-113624482D01*
X168438072Y-113500000D01*
X168438072Y-111500000D01*
X168425812Y-111375518D01*
X168389502Y-111255820D01*
X168330537Y-111145506D01*
X168251185Y-111048815D01*
X168154494Y-110969463D01*
X168044180Y-110910498D01*
X167924482Y-110874188D01*
X167800000Y-110861928D01*
X164600000Y-110861928D01*
X164475518Y-110874188D01*
X164355820Y-110910498D01*
X164245506Y-110969463D01*
X164148815Y-111048815D01*
X164069463Y-111145506D01*
X164010498Y-111255820D01*
X163974188Y-111375518D01*
X163961928Y-111500000D01*
X163961928Y-113500000D01*
X163974188Y-113624482D01*
X164010498Y-113744180D01*
X164061716Y-113840000D01*
X156814802Y-113840000D01*
X148134801Y-105160000D01*
X150962678Y-105160000D01*
X151000000Y-105163676D01*
X151037322Y-105160000D01*
X151037333Y-105160000D01*
X151148986Y-105149003D01*
X151292247Y-105105546D01*
X151424276Y-105034974D01*
X151540001Y-104940001D01*
X151563804Y-104910997D01*
X165011003Y-91463799D01*
X165040001Y-91440001D01*
X165129127Y-91331401D01*
X165134974Y-91324277D01*
X165205546Y-91192247D01*
X165220140Y-91144137D01*
X165249003Y-91048986D01*
X165260000Y-90937333D01*
X165260000Y-90937324D01*
X165263676Y-90900001D01*
X165262245Y-90885467D01*
X165309744Y-90917205D01*
X165498102Y-90995226D01*
X165698061Y-91035000D01*
X165901939Y-91035000D01*
X166101898Y-90995226D01*
X166290256Y-90917205D01*
X166459774Y-90803937D01*
X166603937Y-90659774D01*
X166717205Y-90490256D01*
X166795226Y-90301898D01*
X166835000Y-90101939D01*
X166835000Y-89898061D01*
X166795226Y-89698102D01*
X166717205Y-89509744D01*
X166685000Y-89461546D01*
X166685000Y-87938454D01*
X166717205Y-87890256D01*
X166795226Y-87701898D01*
X166835000Y-87501939D01*
X166835000Y-87298061D01*
X166795226Y-87098102D01*
X166717205Y-86909744D01*
X166603937Y-86740226D01*
X166459774Y-86596063D01*
X166290256Y-86482795D01*
X166101898Y-86404774D01*
X165901939Y-86365000D01*
X165698061Y-86365000D01*
X165498102Y-86404774D01*
X165309744Y-86482795D01*
X165140226Y-86596063D01*
X164996063Y-86740226D01*
X164883496Y-86908695D01*
X164402403Y-86427602D01*
X164378601Y-86398599D01*
X164262876Y-86303626D01*
X164130847Y-86233054D01*
X164067072Y-86213708D01*
X164067072Y-86063600D01*
X164054812Y-85939118D01*
X164039555Y-85888822D01*
X164053519Y-85844413D01*
X164064000Y-85745350D01*
X163905250Y-85586600D01*
X163848729Y-85586600D01*
X163790241Y-85538600D01*
X163848729Y-85490600D01*
X163905250Y-85490600D01*
X164064000Y-85331850D01*
X164058385Y-85278774D01*
X164098102Y-85295226D01*
X164298061Y-85335000D01*
X164501939Y-85335000D01*
X164701898Y-85295226D01*
X164890256Y-85217205D01*
X165059774Y-85103937D01*
X165203937Y-84959774D01*
X165317205Y-84790256D01*
X165395226Y-84601898D01*
X165435000Y-84401939D01*
X165435000Y-84198061D01*
X165395226Y-83998102D01*
X165317205Y-83809744D01*
X165243877Y-83700000D01*
X165317205Y-83590256D01*
X165395226Y-83401898D01*
X165435000Y-83201939D01*
X165435000Y-82998061D01*
X165395226Y-82798102D01*
X165317205Y-82609744D01*
X165203937Y-82440226D01*
X165059774Y-82296063D01*
X164890256Y-82182795D01*
X164701898Y-82104774D01*
X164501939Y-82065000D01*
X164390613Y-82065000D01*
X164330847Y-82033054D01*
X164187586Y-81989597D01*
X164075933Y-81978600D01*
X164075922Y-81978600D01*
X164064000Y-81977426D01*
X164064000Y-81911598D01*
X163984252Y-81911598D01*
X164064000Y-81831850D01*
X164053519Y-81732787D01*
X164015999Y-81613463D01*
X163955920Y-81503752D01*
X163875593Y-81407869D01*
X163778103Y-81329500D01*
X163667197Y-81271656D01*
X163547138Y-81236560D01*
X163422538Y-81225561D01*
X162464750Y-81228600D01*
X162306000Y-81387350D01*
X162306000Y-81861826D01*
X162222477Y-81853600D01*
X162052000Y-81853600D01*
X162052000Y-81387350D01*
X161893250Y-81228600D01*
X160935462Y-81225561D01*
X160810862Y-81236560D01*
X160690803Y-81271656D01*
X160579897Y-81329500D01*
X160482407Y-81407869D01*
X160402080Y-81503752D01*
X160342001Y-81613463D01*
X160304481Y-81732787D01*
X160294000Y-81831850D01*
X160322006Y-81859856D01*
X160255510Y-81866405D01*
X160088687Y-81917011D01*
X159934941Y-81999189D01*
X159800183Y-82109783D01*
X159772466Y-82143556D01*
X159504952Y-82411070D01*
X159471184Y-82438783D01*
X159443471Y-82472551D01*
X159443468Y-82472554D01*
X159379910Y-82550000D01*
X159360590Y-82573541D01*
X159278411Y-82727287D01*
X159227805Y-82894110D01*
X159215000Y-83024123D01*
X159215000Y-83024131D01*
X159210719Y-83067600D01*
X159215000Y-83111069D01*
X159215000Y-83551133D01*
X159210719Y-83594602D01*
X159215000Y-83638071D01*
X159215000Y-83638078D01*
X159227805Y-83768091D01*
X159278411Y-83934914D01*
X159360589Y-84088660D01*
X159471183Y-84223419D01*
X159504956Y-84251136D01*
X159987464Y-84733644D01*
X160015181Y-84767417D01*
X160149939Y-84878011D01*
X160290928Y-84953370D01*
X160290928Y-85013600D01*
X160303188Y-85138082D01*
X160318445Y-85188378D01*
X160304481Y-85232787D01*
X160294000Y-85331850D01*
X160373748Y-85411598D01*
X160294000Y-85411598D01*
X160294000Y-85478600D01*
X137598733Y-85478600D01*
X137561400Y-85474923D01*
X137524067Y-85478600D01*
X137412414Y-85489597D01*
X137269153Y-85533054D01*
X137137124Y-85603626D01*
X137021399Y-85698599D01*
X136997601Y-85727597D01*
X133860199Y-88865000D01*
X133798061Y-88865000D01*
X133598102Y-88904774D01*
X133409744Y-88982795D01*
X133240226Y-89096063D01*
X133096063Y-89240226D01*
X132982795Y-89409744D01*
X132904774Y-89598102D01*
X132865000Y-89798061D01*
X132865000Y-90001939D01*
X132904774Y-90201898D01*
X132982795Y-90390256D01*
X133018512Y-90443710D01*
X127635000Y-85060199D01*
X127635000Y-84998061D01*
X127595226Y-84798102D01*
X127517205Y-84609744D01*
X127403937Y-84440226D01*
X127259774Y-84296063D01*
X127090256Y-84182795D01*
X126901898Y-84104774D01*
X126701939Y-84065000D01*
X126498061Y-84065000D01*
X126298102Y-84104774D01*
X126109744Y-84182795D01*
X125940226Y-84296063D01*
X125796063Y-84440226D01*
X125682795Y-84609744D01*
X125604774Y-84798102D01*
X125565000Y-84998061D01*
X125565000Y-85201939D01*
X125604774Y-85401898D01*
X125682795Y-85590256D01*
X125718513Y-85643711D01*
X122113804Y-82039003D01*
X122090001Y-82009999D01*
X121974276Y-81915026D01*
X121842247Y-81844454D01*
X121698986Y-81800997D01*
X121587333Y-81790000D01*
X121587322Y-81790000D01*
X121550000Y-81786324D01*
X121512678Y-81790000D01*
X118117595Y-81790000D01*
X118080706Y-81720986D01*
X117895134Y-81494866D01*
X117669014Y-81309294D01*
X117614209Y-81280000D01*
X117669014Y-81250706D01*
X117895134Y-81065134D01*
X118080706Y-80839014D01*
X118218599Y-80581034D01*
X118303513Y-80301111D01*
X118332185Y-80010000D01*
X118303513Y-79718889D01*
X118265931Y-79594999D01*
X167820198Y-79594999D01*
X170540001Y-82314803D01*
X170540000Y-88185197D01*
X155788998Y-102936201D01*
X155760000Y-102959999D01*
X155736202Y-102988997D01*
X155736201Y-102988998D01*
X155665026Y-103075724D01*
X155594454Y-103207754D01*
X155550998Y-103351015D01*
X155536324Y-103500000D01*
X155540001Y-103537332D01*
X155540000Y-106962677D01*
X155536324Y-107000000D01*
X155540000Y-107037322D01*
X155540000Y-107037332D01*
X155550997Y-107148985D01*
X155591247Y-107281675D01*
X155594454Y-107292246D01*
X155665026Y-107424276D01*
X155702903Y-107470429D01*
X155759999Y-107540001D01*
X155789003Y-107563804D01*
X157133823Y-108908625D01*
X157127832Y-108923088D01*
X157065000Y-109238967D01*
X157065000Y-109561033D01*
X157127832Y-109876912D01*
X157251082Y-110174463D01*
X157430013Y-110442252D01*
X157657748Y-110669987D01*
X157925537Y-110848918D01*
X158223088Y-110972168D01*
X158538967Y-111035000D01*
X158861033Y-111035000D01*
X159176912Y-110972168D01*
X159474463Y-110848918D01*
X159742252Y-110669987D01*
X159969987Y-110442252D01*
X160148918Y-110174463D01*
X160272168Y-109876912D01*
X160335000Y-109561033D01*
X160335000Y-109238967D01*
X160272168Y-108923088D01*
X160148918Y-108625537D01*
X159969987Y-108357748D01*
X159742252Y-108130013D01*
X159645065Y-108065075D01*
X159655808Y-108035413D01*
X158700000Y-107079605D01*
X158685858Y-107093748D01*
X158506253Y-106914143D01*
X158520395Y-106900000D01*
X158506253Y-106885858D01*
X158685858Y-106706253D01*
X158700000Y-106720395D01*
X158714143Y-106706253D01*
X158893748Y-106885858D01*
X158879605Y-106900000D01*
X159835413Y-107855808D01*
X160099814Y-107760044D01*
X160240704Y-107470429D01*
X160322384Y-107158892D01*
X160341718Y-106837405D01*
X160297961Y-106518325D01*
X160192795Y-106213912D01*
X160099814Y-106039956D01*
X159950777Y-105985976D01*
X160054494Y-105930537D01*
X160151185Y-105851185D01*
X160230537Y-105754494D01*
X160289502Y-105644180D01*
X160322496Y-105535413D01*
X172244192Y-105535413D01*
X172339956Y-105799814D01*
X172629571Y-105940704D01*
X172941108Y-106022384D01*
X173262595Y-106041718D01*
X173581675Y-105997961D01*
X173886088Y-105892795D01*
X174060044Y-105799814D01*
X174155808Y-105535413D01*
X173200000Y-104579605D01*
X172244192Y-105535413D01*
X160322496Y-105535413D01*
X160325812Y-105524482D01*
X160338072Y-105400000D01*
X160338072Y-104462595D01*
X171558282Y-104462595D01*
X171602039Y-104781675D01*
X171707205Y-105086088D01*
X171800186Y-105260044D01*
X172064587Y-105355808D01*
X173020395Y-104400000D01*
X173379605Y-104400000D01*
X174335413Y-105355808D01*
X174599814Y-105260044D01*
X174740704Y-104970429D01*
X174822384Y-104658892D01*
X174841718Y-104337405D01*
X174797961Y-104018325D01*
X174692795Y-103713912D01*
X174599814Y-103539956D01*
X174335413Y-103444192D01*
X173379605Y-104400000D01*
X173020395Y-104400000D01*
X172064587Y-103444192D01*
X171800186Y-103539956D01*
X171659296Y-103829571D01*
X171577616Y-104141108D01*
X171558282Y-104462595D01*
X160338072Y-104462595D01*
X160338072Y-103400000D01*
X160325812Y-103275518D01*
X160322497Y-103264587D01*
X172244192Y-103264587D01*
X173200000Y-104220395D01*
X174155808Y-103264587D01*
X174060044Y-103000186D01*
X173770429Y-102859296D01*
X173458892Y-102777616D01*
X173137405Y-102758282D01*
X172818325Y-102802039D01*
X172513912Y-102907205D01*
X172339956Y-103000186D01*
X172244192Y-103264587D01*
X160322497Y-103264587D01*
X160289502Y-103155820D01*
X160230537Y-103045506D01*
X160151185Y-102948815D01*
X160054494Y-102869463D01*
X159944180Y-102810498D01*
X159824482Y-102774188D01*
X159700000Y-102761928D01*
X158112873Y-102761928D01*
X160574801Y-100300000D01*
X163961928Y-100300000D01*
X163961928Y-102300000D01*
X163974188Y-102424482D01*
X164010498Y-102544180D01*
X164069463Y-102654494D01*
X164148815Y-102751185D01*
X164245506Y-102830537D01*
X164355820Y-102889502D01*
X164475518Y-102925812D01*
X164600000Y-102938072D01*
X167800000Y-102938072D01*
X167924482Y-102925812D01*
X168044180Y-102889502D01*
X168154494Y-102830537D01*
X168251185Y-102751185D01*
X168330537Y-102654494D01*
X168389502Y-102544180D01*
X168425812Y-102424482D01*
X168438072Y-102300000D01*
X168438072Y-100300000D01*
X168425812Y-100175518D01*
X168389502Y-100055820D01*
X168330537Y-99945506D01*
X168251185Y-99848815D01*
X168154494Y-99769463D01*
X168044180Y-99710498D01*
X167924482Y-99674188D01*
X167800000Y-99661928D01*
X164600000Y-99661928D01*
X164475518Y-99674188D01*
X164355820Y-99710498D01*
X164245506Y-99769463D01*
X164148815Y-99848815D01*
X164069463Y-99945506D01*
X164010498Y-100055820D01*
X163974188Y-100175518D01*
X163961928Y-100300000D01*
X160574801Y-100300000D01*
X171811010Y-89063793D01*
X171840001Y-89040001D01*
X171863795Y-89011008D01*
X171863799Y-89011004D01*
X171930856Y-88929294D01*
X171934974Y-88924276D01*
X172005546Y-88792247D01*
X172049003Y-88648986D01*
X172060000Y-88537333D01*
X172060000Y-88537324D01*
X172063676Y-88500001D01*
X172060000Y-88462678D01*
X172060000Y-82037322D01*
X172063676Y-81999999D01*
X172060000Y-81962676D01*
X172060000Y-81962667D01*
X172049003Y-81851014D01*
X172005546Y-81707753D01*
X171934974Y-81575724D01*
X171840001Y-81459999D01*
X171811003Y-81436201D01*
X168698803Y-78324002D01*
X168675000Y-78294998D01*
X168559275Y-78200025D01*
X168427246Y-78129453D01*
X168283985Y-78085996D01*
X168172332Y-78074999D01*
X168172321Y-78074999D01*
X168134999Y-78071323D01*
X168097677Y-78074999D01*
X118328072Y-78074999D01*
X118328072Y-76620000D01*
X118315812Y-76495518D01*
X118279502Y-76375820D01*
X118220537Y-76265506D01*
X118141185Y-76168815D01*
X118044494Y-76089463D01*
X117934180Y-76030498D01*
X117814482Y-75994188D01*
X117690000Y-75981928D01*
X115990000Y-75981928D01*
X115865518Y-75994188D01*
X115745820Y-76030498D01*
X115635506Y-76089463D01*
X115538815Y-76168815D01*
X115459463Y-76265506D01*
X115400498Y-76375820D01*
X115379607Y-76444687D01*
X115355134Y-76414866D01*
X115129014Y-76229294D01*
X114871034Y-76091401D01*
X114591111Y-76006487D01*
X114372950Y-75985000D01*
X114227050Y-75985000D01*
X114008889Y-76006487D01*
X113728966Y-76091401D01*
X113470986Y-76229294D01*
X113244866Y-76414866D01*
X113059294Y-76640986D01*
X112921401Y-76898966D01*
X112836487Y-77178889D01*
X112807815Y-77470000D01*
X112836487Y-77761111D01*
X112921401Y-78041034D01*
X113059294Y-78299014D01*
X113244866Y-78525134D01*
X113470986Y-78710706D01*
X113525791Y-78740000D01*
X113470986Y-78769294D01*
X113244866Y-78954866D01*
X113059294Y-79180986D01*
X112921401Y-79438966D01*
X112836487Y-79718889D01*
X112807815Y-80010000D01*
X112836487Y-80301111D01*
X112921401Y-80581034D01*
X113059294Y-80839014D01*
X113244866Y-81065134D01*
X113470986Y-81250706D01*
X113525791Y-81280000D01*
X113470986Y-81309294D01*
X113244866Y-81494866D01*
X113059294Y-81720986D01*
X112921401Y-81978966D01*
X112836487Y-82258889D01*
X112807815Y-82550000D01*
X112836487Y-82841111D01*
X112921401Y-83121034D01*
X113059294Y-83379014D01*
X113244866Y-83605134D01*
X113470986Y-83790706D01*
X113525791Y-83820000D01*
X113470986Y-83849294D01*
X113244866Y-84034866D01*
X113059294Y-84260986D01*
X112921401Y-84518966D01*
X112836487Y-84798889D01*
X112807815Y-85090000D01*
X112836487Y-85381111D01*
X112921401Y-85661034D01*
X113059294Y-85919014D01*
X113244866Y-86145134D01*
X113470986Y-86330706D01*
X113525791Y-86360000D01*
X113470986Y-86389294D01*
X113244866Y-86574866D01*
X113059294Y-86800986D01*
X112921401Y-87058966D01*
X112836487Y-87338889D01*
X112807815Y-87630000D01*
X112836487Y-87921111D01*
X112921401Y-88201034D01*
X113059294Y-88459014D01*
X113244866Y-88685134D01*
X113470986Y-88870706D01*
X113525791Y-88900000D01*
X113470986Y-88929294D01*
X113244866Y-89114866D01*
X113059294Y-89340986D01*
X112921401Y-89598966D01*
X112836487Y-89878889D01*
X112807815Y-90170000D01*
X112836487Y-90461111D01*
X112921401Y-90741034D01*
X113059294Y-90999014D01*
X113244866Y-91225134D01*
X113470986Y-91410706D01*
X113525791Y-91440000D01*
X113470986Y-91469294D01*
X113244866Y-91654866D01*
X113059294Y-91880986D01*
X112921401Y-92138966D01*
X112836487Y-92418889D01*
X112807815Y-92710000D01*
X112836487Y-93001111D01*
X112921401Y-93281034D01*
X113059294Y-93539014D01*
X113244866Y-93765134D01*
X113470986Y-93950706D01*
X113525791Y-93980000D01*
X113470986Y-94009294D01*
X113244866Y-94194866D01*
X113059294Y-94420986D01*
X112921401Y-94678966D01*
X112836487Y-94958889D01*
X112807815Y-95250000D01*
X112836487Y-95541111D01*
X112921401Y-95821034D01*
X113059294Y-96079014D01*
X113244866Y-96305134D01*
X113470986Y-96490706D01*
X113525791Y-96520000D01*
X113470986Y-96549294D01*
X113244866Y-96734866D01*
X113059294Y-96960986D01*
X112921401Y-97218966D01*
X112836487Y-97498889D01*
X112807815Y-97790000D01*
X112836487Y-98081111D01*
X112921401Y-98361034D01*
X113059294Y-98619014D01*
X113244866Y-98845134D01*
X113470986Y-99030706D01*
X113525791Y-99060000D01*
X113470986Y-99089294D01*
X113244866Y-99274866D01*
X113059294Y-99500986D01*
X112921401Y-99758966D01*
X112836487Y-100038889D01*
X112807815Y-100330000D01*
X112836487Y-100621111D01*
X112921401Y-100901034D01*
X113059294Y-101159014D01*
X113244866Y-101385134D01*
X113470986Y-101570706D01*
X113525791Y-101600000D01*
X113470986Y-101629294D01*
X113244866Y-101814866D01*
X113059294Y-102040986D01*
X112921401Y-102298966D01*
X112836487Y-102578889D01*
X112807815Y-102870000D01*
X112836487Y-103161111D01*
X112921401Y-103441034D01*
X113059294Y-103699014D01*
X113244866Y-103925134D01*
X113470986Y-104110706D01*
X113525791Y-104140000D01*
X113470986Y-104169294D01*
X113244866Y-104354866D01*
X113059294Y-104580986D01*
X112921401Y-104838966D01*
X112836487Y-105118889D01*
X112807815Y-105410000D01*
X112836487Y-105701111D01*
X112921401Y-105981034D01*
X113059294Y-106239014D01*
X113244866Y-106465134D01*
X113470986Y-106650706D01*
X113525791Y-106680000D01*
X113470986Y-106709294D01*
X113244866Y-106894866D01*
X113059294Y-107120986D01*
X112921401Y-107378966D01*
X112836487Y-107658889D01*
X112807815Y-107950000D01*
X112836487Y-108241111D01*
X112921401Y-108521034D01*
X113059294Y-108779014D01*
X113244866Y-109005134D01*
X113470986Y-109190706D01*
X113525791Y-109220000D01*
X113470986Y-109249294D01*
X113244866Y-109434866D01*
X113059294Y-109660986D01*
X112921401Y-109918966D01*
X112836487Y-110198889D01*
X112807815Y-110490000D01*
X112836487Y-110781111D01*
X112921401Y-111061034D01*
X113059294Y-111319014D01*
X113244866Y-111545134D01*
X113470986Y-111730706D01*
X113535523Y-111765201D01*
X113418645Y-111834822D01*
X113202412Y-112029731D01*
X113028359Y-112263080D01*
X112903175Y-112525901D01*
X112858524Y-112673110D01*
X112979845Y-112903000D01*
X114173000Y-112903000D01*
X114173000Y-112883000D01*
X114427000Y-112883000D01*
X114427000Y-112903000D01*
X114447000Y-112903000D01*
X114447000Y-113157000D01*
X114427000Y-113157000D01*
X114427000Y-114350814D01*
X114656891Y-114471481D01*
X114931252Y-114374157D01*
X115181355Y-114225178D01*
X115397588Y-114030269D01*
X115568416Y-113801244D01*
X115599294Y-113859014D01*
X115784866Y-114085134D01*
X116010986Y-114270706D01*
X116268966Y-114408599D01*
X116548889Y-114493513D01*
X116767050Y-114515000D01*
X116912950Y-114515000D01*
X117131111Y-114493513D01*
X117411034Y-114408599D01*
X117669014Y-114270706D01*
X117895134Y-114085134D01*
X118080706Y-113859014D01*
X118218599Y-113601034D01*
X118303513Y-113321111D01*
X118332185Y-113030000D01*
X118303513Y-112738889D01*
X118218599Y-112458966D01*
X118080706Y-112200986D01*
X117895134Y-111974866D01*
X117669014Y-111789294D01*
X117614209Y-111760000D01*
X117669014Y-111730706D01*
X117895134Y-111545134D01*
X118080706Y-111319014D01*
X118218599Y-111061034D01*
X118303513Y-110781111D01*
X118332185Y-110490000D01*
X118303513Y-110198889D01*
X118218599Y-109918966D01*
X118080706Y-109660986D01*
X117895134Y-109434866D01*
X117669014Y-109249294D01*
X117614209Y-109220000D01*
X117669014Y-109190706D01*
X117895134Y-109005134D01*
X118080706Y-108779014D01*
X118218599Y-108521034D01*
X118303513Y-108241111D01*
X118332185Y-107950000D01*
X118303513Y-107658889D01*
X118218599Y-107378966D01*
X118080706Y-107120986D01*
X117895134Y-106894866D01*
X117669014Y-106709294D01*
X117614209Y-106680000D01*
X117669014Y-106650706D01*
X117895134Y-106465134D01*
X118080706Y-106239014D01*
X118218599Y-105981034D01*
X118303513Y-105701111D01*
X118332185Y-105410000D01*
X118303513Y-105118889D01*
X118218599Y-104838966D01*
X118080706Y-104580986D01*
X117895134Y-104354866D01*
X117669014Y-104169294D01*
X117614209Y-104140000D01*
X117669014Y-104110706D01*
X117895134Y-103925134D01*
X118080706Y-103699014D01*
X118218599Y-103441034D01*
X118303513Y-103161111D01*
X118332185Y-102870000D01*
X118303513Y-102578889D01*
X118218599Y-102298966D01*
X118080706Y-102040986D01*
X117895134Y-101814866D01*
X117669014Y-101629294D01*
X117614209Y-101600000D01*
X117669014Y-101570706D01*
X117895134Y-101385134D01*
X118080706Y-101159014D01*
X118218599Y-100901034D01*
X118303513Y-100621111D01*
X118332185Y-100330000D01*
X118303513Y-100038889D01*
X118218599Y-99758966D01*
X118080706Y-99500986D01*
X117895134Y-99274866D01*
X117669014Y-99089294D01*
X117614209Y-99060000D01*
X117669014Y-99030706D01*
X117895134Y-98845134D01*
X118080706Y-98619014D01*
X118218599Y-98361034D01*
X118303513Y-98081111D01*
X118332185Y-97790000D01*
X118303513Y-97498889D01*
X118218599Y-97218966D01*
X118080706Y-96960986D01*
X117895134Y-96734866D01*
X117669014Y-96549294D01*
X117614209Y-96520000D01*
X117669014Y-96490706D01*
X117895134Y-96305134D01*
X118080706Y-96079014D01*
X118218599Y-95821034D01*
X118303513Y-95541111D01*
X118332185Y-95250000D01*
X118303513Y-94958889D01*
X118218599Y-94678966D01*
X118200444Y-94645001D01*
X121670200Y-94645001D01*
X132536200Y-105511002D01*
X132559999Y-105540001D01*
X132675724Y-105634974D01*
X132807753Y-105705546D01*
X132951014Y-105749003D01*
X133062667Y-105760000D01*
X133062676Y-105760000D01*
X133099999Y-105763676D01*
X133137322Y-105760000D01*
X146585199Y-105760000D01*
X155735198Y-114910000D01*
X112420000Y-114910000D01*
X112420000Y-113386890D01*
X112858524Y-113386890D01*
X112903175Y-113534099D01*
X113028359Y-113796920D01*
X113202412Y-114030269D01*
X113418645Y-114225178D01*
X113668748Y-114374157D01*
X113943109Y-114471481D01*
X114173000Y-114350814D01*
X114173000Y-113157000D01*
X112979845Y-113157000D01*
X112858524Y-113386890D01*
X112420000Y-113386890D01*
X112420000Y-75590000D01*
X180950000Y-75590000D01*
X180950001Y-114910000D01*
X180950001Y-114910000D01*
G37*
X180950001Y-114910000D02*
X172964801Y-114910000D01*
X173711003Y-114163799D01*
X173740001Y-114140001D01*
X173834974Y-114024276D01*
X173905546Y-113892247D01*
X173949003Y-113748986D01*
X173960000Y-113637333D01*
X173963677Y-113600000D01*
X173960000Y-113562667D01*
X173960000Y-110854909D01*
X173974463Y-110848918D01*
X174242252Y-110669987D01*
X174469987Y-110442252D01*
X174648918Y-110174463D01*
X174772168Y-109876912D01*
X174835000Y-109561033D01*
X174835000Y-109238967D01*
X174772168Y-108923088D01*
X174648918Y-108625537D01*
X174469987Y-108357748D01*
X174242252Y-108130013D01*
X173974463Y-107951082D01*
X173676912Y-107827832D01*
X173361033Y-107765000D01*
X173038967Y-107765000D01*
X172723088Y-107827832D01*
X172425537Y-107951082D01*
X172157748Y-108130013D01*
X171930013Y-108357748D01*
X171751082Y-108625537D01*
X171627832Y-108923088D01*
X171565000Y-109238967D01*
X171565000Y-109561033D01*
X171627832Y-109876912D01*
X171751082Y-110174463D01*
X171930013Y-110442252D01*
X172157748Y-110669987D01*
X172425537Y-110848918D01*
X172440000Y-110854909D01*
X172440001Y-113285197D01*
X171885199Y-113840000D01*
X168338284Y-113840000D01*
X168389502Y-113744180D01*
X168425812Y-113624482D01*
X168438072Y-113500000D01*
X168438072Y-111500000D01*
X168425812Y-111375518D01*
X168389502Y-111255820D01*
X168330537Y-111145506D01*
X168251185Y-111048815D01*
X168154494Y-110969463D01*
X168044180Y-110910498D01*
X167924482Y-110874188D01*
X167800000Y-110861928D01*
X164600000Y-110861928D01*
X164475518Y-110874188D01*
X164355820Y-110910498D01*
X164245506Y-110969463D01*
X164148815Y-111048815D01*
X164069463Y-111145506D01*
X164010498Y-111255820D01*
X163974188Y-111375518D01*
X163961928Y-111500000D01*
X163961928Y-113500000D01*
X163974188Y-113624482D01*
X164010498Y-113744180D01*
X164061716Y-113840000D01*
X156814802Y-113840000D01*
X148134801Y-105160000D01*
X150962678Y-105160000D01*
X151000000Y-105163676D01*
X151037322Y-105160000D01*
X151037333Y-105160000D01*
X151148986Y-105149003D01*
X151292247Y-105105546D01*
X151424276Y-105034974D01*
X151540001Y-104940001D01*
X151563804Y-104910997D01*
X165011003Y-91463799D01*
X165040001Y-91440001D01*
X165129127Y-91331401D01*
X165134974Y-91324277D01*
X165205546Y-91192247D01*
X165220140Y-91144137D01*
X165249003Y-91048986D01*
X165260000Y-90937333D01*
X165260000Y-90937324D01*
X165263676Y-90900001D01*
X165262245Y-90885467D01*
X165309744Y-90917205D01*
X165498102Y-90995226D01*
X165698061Y-91035000D01*
X165901939Y-91035000D01*
X166101898Y-90995226D01*
X166290256Y-90917205D01*
X166459774Y-90803937D01*
X166603937Y-90659774D01*
X166717205Y-90490256D01*
X166795226Y-90301898D01*
X166835000Y-90101939D01*
X166835000Y-89898061D01*
X166795226Y-89698102D01*
X166717205Y-89509744D01*
X166685000Y-89461546D01*
X166685000Y-87938454D01*
X166717205Y-87890256D01*
X166795226Y-87701898D01*
X166835000Y-87501939D01*
X166835000Y-87298061D01*
X166795226Y-87098102D01*
X166717205Y-86909744D01*
X166603937Y-86740226D01*
X166459774Y-86596063D01*
X166290256Y-86482795D01*
X166101898Y-86404774D01*
X165901939Y-86365000D01*
X165698061Y-86365000D01*
X165498102Y-86404774D01*
X165309744Y-86482795D01*
X165140226Y-86596063D01*
X164996063Y-86740226D01*
X164883496Y-86908695D01*
X164402403Y-86427602D01*
X164378601Y-86398599D01*
X164262876Y-86303626D01*
X164130847Y-86233054D01*
X164067072Y-86213708D01*
X164067072Y-86063600D01*
X164054812Y-85939118D01*
X164039555Y-85888822D01*
X164053519Y-85844413D01*
X164064000Y-85745350D01*
X163905250Y-85586600D01*
X163848729Y-85586600D01*
X163790241Y-85538600D01*
X163848729Y-85490600D01*
X163905250Y-85490600D01*
X164064000Y-85331850D01*
X164058385Y-85278774D01*
X164098102Y-85295226D01*
X164298061Y-85335000D01*
X164501939Y-85335000D01*
X164701898Y-85295226D01*
X164890256Y-85217205D01*
X165059774Y-85103937D01*
X165203937Y-84959774D01*
X165317205Y-84790256D01*
X165395226Y-84601898D01*
X165435000Y-84401939D01*
X165435000Y-84198061D01*
X165395226Y-83998102D01*
X165317205Y-83809744D01*
X165243877Y-83700000D01*
X165317205Y-83590256D01*
X165395226Y-83401898D01*
X165435000Y-83201939D01*
X165435000Y-82998061D01*
X165395226Y-82798102D01*
X165317205Y-82609744D01*
X165203937Y-82440226D01*
X165059774Y-82296063D01*
X164890256Y-82182795D01*
X164701898Y-82104774D01*
X164501939Y-82065000D01*
X164390613Y-82065000D01*
X164330847Y-82033054D01*
X164187586Y-81989597D01*
X164075933Y-81978600D01*
X164075922Y-81978600D01*
X164064000Y-81977426D01*
X164064000Y-81911598D01*
X163984252Y-81911598D01*
X164064000Y-81831850D01*
X164053519Y-81732787D01*
X164015999Y-81613463D01*
X163955920Y-81503752D01*
X163875593Y-81407869D01*
X163778103Y-81329500D01*
X163667197Y-81271656D01*
X163547138Y-81236560D01*
X163422538Y-81225561D01*
X162464750Y-81228600D01*
X162306000Y-81387350D01*
X162306000Y-81861826D01*
X162222477Y-81853600D01*
X162052000Y-81853600D01*
X162052000Y-81387350D01*
X161893250Y-81228600D01*
X160935462Y-81225561D01*
X160810862Y-81236560D01*
X160690803Y-81271656D01*
X160579897Y-81329500D01*
X160482407Y-81407869D01*
X160402080Y-81503752D01*
X160342001Y-81613463D01*
X160304481Y-81732787D01*
X160294000Y-81831850D01*
X160322006Y-81859856D01*
X160255510Y-81866405D01*
X160088687Y-81917011D01*
X159934941Y-81999189D01*
X159800183Y-82109783D01*
X159772466Y-82143556D01*
X159504952Y-82411070D01*
X159471184Y-82438783D01*
X159443471Y-82472551D01*
X159443468Y-82472554D01*
X159379910Y-82550000D01*
X159360590Y-82573541D01*
X159278411Y-82727287D01*
X159227805Y-82894110D01*
X159215000Y-83024123D01*
X159215000Y-83024131D01*
X159210719Y-83067600D01*
X159215000Y-83111069D01*
X159215000Y-83551133D01*
X159210719Y-83594602D01*
X159215000Y-83638071D01*
X159215000Y-83638078D01*
X159227805Y-83768091D01*
X159278411Y-83934914D01*
X159360589Y-84088660D01*
X159471183Y-84223419D01*
X159504956Y-84251136D01*
X159987464Y-84733644D01*
X160015181Y-84767417D01*
X160149939Y-84878011D01*
X160290928Y-84953370D01*
X160290928Y-85013600D01*
X160303188Y-85138082D01*
X160318445Y-85188378D01*
X160304481Y-85232787D01*
X160294000Y-85331850D01*
X160373748Y-85411598D01*
X160294000Y-85411598D01*
X160294000Y-85478600D01*
X137598733Y-85478600D01*
X137561400Y-85474923D01*
X137524067Y-85478600D01*
X137412414Y-85489597D01*
X137269153Y-85533054D01*
X137137124Y-85603626D01*
X137021399Y-85698599D01*
X136997601Y-85727597D01*
X133860199Y-88865000D01*
X133798061Y-88865000D01*
X133598102Y-88904774D01*
X133409744Y-88982795D01*
X133240226Y-89096063D01*
X133096063Y-89240226D01*
X132982795Y-89409744D01*
X132904774Y-89598102D01*
X132865000Y-89798061D01*
X132865000Y-90001939D01*
X132904774Y-90201898D01*
X132982795Y-90390256D01*
X133018512Y-90443710D01*
X127635000Y-85060199D01*
X127635000Y-84998061D01*
X127595226Y-84798102D01*
X127517205Y-84609744D01*
X127403937Y-84440226D01*
X127259774Y-84296063D01*
X127090256Y-84182795D01*
X126901898Y-84104774D01*
X126701939Y-84065000D01*
X126498061Y-84065000D01*
X126298102Y-84104774D01*
X126109744Y-84182795D01*
X125940226Y-84296063D01*
X125796063Y-84440226D01*
X125682795Y-84609744D01*
X125604774Y-84798102D01*
X125565000Y-84998061D01*
X125565000Y-85201939D01*
X125604774Y-85401898D01*
X125682795Y-85590256D01*
X125718513Y-85643711D01*
X122113804Y-82039003D01*
X122090001Y-82009999D01*
X121974276Y-81915026D01*
X121842247Y-81844454D01*
X121698986Y-81800997D01*
X121587333Y-81790000D01*
X121587322Y-81790000D01*
X121550000Y-81786324D01*
X121512678Y-81790000D01*
X118117595Y-81790000D01*
X118080706Y-81720986D01*
X117895134Y-81494866D01*
X117669014Y-81309294D01*
X117614209Y-81280000D01*
X117669014Y-81250706D01*
X117895134Y-81065134D01*
X118080706Y-80839014D01*
X118218599Y-80581034D01*
X118303513Y-80301111D01*
X118332185Y-80010000D01*
X118303513Y-79718889D01*
X118265931Y-79594999D01*
X167820198Y-79594999D01*
X170540001Y-82314803D01*
X170540000Y-88185197D01*
X155788998Y-102936201D01*
X155760000Y-102959999D01*
X155736202Y-102988997D01*
X155736201Y-102988998D01*
X155665026Y-103075724D01*
X155594454Y-103207754D01*
X155550998Y-103351015D01*
X155536324Y-103500000D01*
X155540001Y-103537332D01*
X155540000Y-106962677D01*
X155536324Y-107000000D01*
X155540000Y-107037322D01*
X155540000Y-107037332D01*
X155550997Y-107148985D01*
X155591247Y-107281675D01*
X155594454Y-107292246D01*
X155665026Y-107424276D01*
X155702903Y-107470429D01*
X155759999Y-107540001D01*
X155789003Y-107563804D01*
X157133823Y-108908625D01*
X157127832Y-108923088D01*
X157065000Y-109238967D01*
X157065000Y-109561033D01*
X157127832Y-109876912D01*
X157251082Y-110174463D01*
X157430013Y-110442252D01*
X157657748Y-110669987D01*
X157925537Y-110848918D01*
X158223088Y-110972168D01*
X158538967Y-111035000D01*
X158861033Y-111035000D01*
X159176912Y-110972168D01*
X159474463Y-110848918D01*
X159742252Y-110669987D01*
X159969987Y-110442252D01*
X160148918Y-110174463D01*
X160272168Y-109876912D01*
X160335000Y-109561033D01*
X160335000Y-109238967D01*
X160272168Y-108923088D01*
X160148918Y-108625537D01*
X159969987Y-108357748D01*
X159742252Y-108130013D01*
X159645065Y-108065075D01*
X159655808Y-108035413D01*
X158700000Y-107079605D01*
X158685858Y-107093748D01*
X158506253Y-106914143D01*
X158520395Y-106900000D01*
X158506253Y-106885858D01*
X158685858Y-106706253D01*
X158700000Y-106720395D01*
X158714143Y-106706253D01*
X158893748Y-106885858D01*
X158879605Y-106900000D01*
X159835413Y-107855808D01*
X160099814Y-107760044D01*
X160240704Y-107470429D01*
X160322384Y-107158892D01*
X160341718Y-106837405D01*
X160297961Y-106518325D01*
X160192795Y-106213912D01*
X160099814Y-106039956D01*
X159950777Y-105985976D01*
X160054494Y-105930537D01*
X160151185Y-105851185D01*
X160230537Y-105754494D01*
X160289502Y-105644180D01*
X160322496Y-105535413D01*
X172244192Y-105535413D01*
X172339956Y-105799814D01*
X172629571Y-105940704D01*
X172941108Y-106022384D01*
X173262595Y-106041718D01*
X173581675Y-105997961D01*
X173886088Y-105892795D01*
X174060044Y-105799814D01*
X174155808Y-105535413D01*
X173200000Y-104579605D01*
X172244192Y-105535413D01*
X160322496Y-105535413D01*
X160325812Y-105524482D01*
X160338072Y-105400000D01*
X160338072Y-104462595D01*
X171558282Y-104462595D01*
X171602039Y-104781675D01*
X171707205Y-105086088D01*
X171800186Y-105260044D01*
X172064587Y-105355808D01*
X173020395Y-104400000D01*
X173379605Y-104400000D01*
X174335413Y-105355808D01*
X174599814Y-105260044D01*
X174740704Y-104970429D01*
X174822384Y-104658892D01*
X174841718Y-104337405D01*
X174797961Y-104018325D01*
X174692795Y-103713912D01*
X174599814Y-103539956D01*
X174335413Y-103444192D01*
X173379605Y-104400000D01*
X173020395Y-104400000D01*
X172064587Y-103444192D01*
X171800186Y-103539956D01*
X171659296Y-103829571D01*
X171577616Y-104141108D01*
X171558282Y-104462595D01*
X160338072Y-104462595D01*
X160338072Y-103400000D01*
X160325812Y-103275518D01*
X160322497Y-103264587D01*
X172244192Y-103264587D01*
X173200000Y-104220395D01*
X174155808Y-103264587D01*
X174060044Y-103000186D01*
X173770429Y-102859296D01*
X173458892Y-102777616D01*
X173137405Y-102758282D01*
X172818325Y-102802039D01*
X172513912Y-102907205D01*
X172339956Y-103000186D01*
X172244192Y-103264587D01*
X160322497Y-103264587D01*
X160289502Y-103155820D01*
X160230537Y-103045506D01*
X160151185Y-102948815D01*
X160054494Y-102869463D01*
X159944180Y-102810498D01*
X159824482Y-102774188D01*
X159700000Y-102761928D01*
X158112873Y-102761928D01*
X160574801Y-100300000D01*
X163961928Y-100300000D01*
X163961928Y-102300000D01*
X163974188Y-102424482D01*
X164010498Y-102544180D01*
X164069463Y-102654494D01*
X164148815Y-102751185D01*
X164245506Y-102830537D01*
X164355820Y-102889502D01*
X164475518Y-102925812D01*
X164600000Y-102938072D01*
X167800000Y-102938072D01*
X167924482Y-102925812D01*
X168044180Y-102889502D01*
X168154494Y-102830537D01*
X168251185Y-102751185D01*
X168330537Y-102654494D01*
X168389502Y-102544180D01*
X168425812Y-102424482D01*
X168438072Y-102300000D01*
X168438072Y-100300000D01*
X168425812Y-100175518D01*
X168389502Y-100055820D01*
X168330537Y-99945506D01*
X168251185Y-99848815D01*
X168154494Y-99769463D01*
X168044180Y-99710498D01*
X167924482Y-99674188D01*
X167800000Y-99661928D01*
X164600000Y-99661928D01*
X164475518Y-99674188D01*
X164355820Y-99710498D01*
X164245506Y-99769463D01*
X164148815Y-99848815D01*
X164069463Y-99945506D01*
X164010498Y-100055820D01*
X163974188Y-100175518D01*
X163961928Y-100300000D01*
X160574801Y-100300000D01*
X171811010Y-89063793D01*
X171840001Y-89040001D01*
X171863795Y-89011008D01*
X171863799Y-89011004D01*
X171930856Y-88929294D01*
X171934974Y-88924276D01*
X172005546Y-88792247D01*
X172049003Y-88648986D01*
X172060000Y-88537333D01*
X172060000Y-88537324D01*
X172063676Y-88500001D01*
X172060000Y-88462678D01*
X172060000Y-82037322D01*
X172063676Y-81999999D01*
X172060000Y-81962676D01*
X172060000Y-81962667D01*
X172049003Y-81851014D01*
X172005546Y-81707753D01*
X171934974Y-81575724D01*
X171840001Y-81459999D01*
X171811003Y-81436201D01*
X168698803Y-78324002D01*
X168675000Y-78294998D01*
X168559275Y-78200025D01*
X168427246Y-78129453D01*
X168283985Y-78085996D01*
X168172332Y-78074999D01*
X168172321Y-78074999D01*
X168134999Y-78071323D01*
X168097677Y-78074999D01*
X118328072Y-78074999D01*
X118328072Y-76620000D01*
X118315812Y-76495518D01*
X118279502Y-76375820D01*
X118220537Y-76265506D01*
X118141185Y-76168815D01*
X118044494Y-76089463D01*
X117934180Y-76030498D01*
X117814482Y-75994188D01*
X117690000Y-75981928D01*
X115990000Y-75981928D01*
X115865518Y-75994188D01*
X115745820Y-76030498D01*
X115635506Y-76089463D01*
X115538815Y-76168815D01*
X115459463Y-76265506D01*
X115400498Y-76375820D01*
X115379607Y-76444687D01*
X115355134Y-76414866D01*
X115129014Y-76229294D01*
X114871034Y-76091401D01*
X114591111Y-76006487D01*
X114372950Y-75985000D01*
X114227050Y-75985000D01*
X114008889Y-76006487D01*
X113728966Y-76091401D01*
X113470986Y-76229294D01*
X113244866Y-76414866D01*
X113059294Y-76640986D01*
X112921401Y-76898966D01*
X112836487Y-77178889D01*
X112807815Y-77470000D01*
X112836487Y-77761111D01*
X112921401Y-78041034D01*
X113059294Y-78299014D01*
X113244866Y-78525134D01*
X113470986Y-78710706D01*
X113525791Y-78740000D01*
X113470986Y-78769294D01*
X113244866Y-78954866D01*
X113059294Y-79180986D01*
X112921401Y-79438966D01*
X112836487Y-79718889D01*
X112807815Y-80010000D01*
X112836487Y-80301111D01*
X112921401Y-80581034D01*
X113059294Y-80839014D01*
X113244866Y-81065134D01*
X113470986Y-81250706D01*
X113525791Y-81280000D01*
X113470986Y-81309294D01*
X113244866Y-81494866D01*
X113059294Y-81720986D01*
X112921401Y-81978966D01*
X112836487Y-82258889D01*
X112807815Y-82550000D01*
X112836487Y-82841111D01*
X112921401Y-83121034D01*
X113059294Y-83379014D01*
X113244866Y-83605134D01*
X113470986Y-83790706D01*
X113525791Y-83820000D01*
X113470986Y-83849294D01*
X113244866Y-84034866D01*
X113059294Y-84260986D01*
X112921401Y-84518966D01*
X112836487Y-84798889D01*
X112807815Y-85090000D01*
X112836487Y-85381111D01*
X112921401Y-85661034D01*
X113059294Y-85919014D01*
X113244866Y-86145134D01*
X113470986Y-86330706D01*
X113525791Y-86360000D01*
X113470986Y-86389294D01*
X113244866Y-86574866D01*
X113059294Y-86800986D01*
X112921401Y-87058966D01*
X112836487Y-87338889D01*
X112807815Y-87630000D01*
X112836487Y-87921111D01*
X112921401Y-88201034D01*
X113059294Y-88459014D01*
X113244866Y-88685134D01*
X113470986Y-88870706D01*
X113525791Y-88900000D01*
X113470986Y-88929294D01*
X113244866Y-89114866D01*
X113059294Y-89340986D01*
X112921401Y-89598966D01*
X112836487Y-89878889D01*
X112807815Y-90170000D01*
X112836487Y-90461111D01*
X112921401Y-90741034D01*
X113059294Y-90999014D01*
X113244866Y-91225134D01*
X113470986Y-91410706D01*
X113525791Y-91440000D01*
X113470986Y-91469294D01*
X113244866Y-91654866D01*
X113059294Y-91880986D01*
X112921401Y-92138966D01*
X112836487Y-92418889D01*
X112807815Y-92710000D01*
X112836487Y-93001111D01*
X112921401Y-93281034D01*
X113059294Y-93539014D01*
X113244866Y-93765134D01*
X113470986Y-93950706D01*
X113525791Y-93980000D01*
X113470986Y-94009294D01*
X113244866Y-94194866D01*
X113059294Y-94420986D01*
X112921401Y-94678966D01*
X112836487Y-94958889D01*
X112807815Y-95250000D01*
X112836487Y-95541111D01*
X112921401Y-95821034D01*
X113059294Y-96079014D01*
X113244866Y-96305134D01*
X113470986Y-96490706D01*
X113525791Y-96520000D01*
X113470986Y-96549294D01*
X113244866Y-96734866D01*
X113059294Y-96960986D01*
X112921401Y-97218966D01*
X112836487Y-97498889D01*
X112807815Y-97790000D01*
X112836487Y-98081111D01*
X112921401Y-98361034D01*
X113059294Y-98619014D01*
X113244866Y-98845134D01*
X113470986Y-99030706D01*
X113525791Y-99060000D01*
X113470986Y-99089294D01*
X113244866Y-99274866D01*
X113059294Y-99500986D01*
X112921401Y-99758966D01*
X112836487Y-100038889D01*
X112807815Y-100330000D01*
X112836487Y-100621111D01*
X112921401Y-100901034D01*
X113059294Y-101159014D01*
X113244866Y-101385134D01*
X113470986Y-101570706D01*
X113525791Y-101600000D01*
X113470986Y-101629294D01*
X113244866Y-101814866D01*
X113059294Y-102040986D01*
X112921401Y-102298966D01*
X112836487Y-102578889D01*
X112807815Y-102870000D01*
X112836487Y-103161111D01*
X112921401Y-103441034D01*
X113059294Y-103699014D01*
X113244866Y-103925134D01*
X113470986Y-104110706D01*
X113525791Y-104140000D01*
X113470986Y-104169294D01*
X113244866Y-104354866D01*
X113059294Y-104580986D01*
X112921401Y-104838966D01*
X112836487Y-105118889D01*
X112807815Y-105410000D01*
X112836487Y-105701111D01*
X112921401Y-105981034D01*
X113059294Y-106239014D01*
X113244866Y-106465134D01*
X113470986Y-106650706D01*
X113525791Y-106680000D01*
X113470986Y-106709294D01*
X113244866Y-106894866D01*
X113059294Y-107120986D01*
X112921401Y-107378966D01*
X112836487Y-107658889D01*
X112807815Y-107950000D01*
X112836487Y-108241111D01*
X112921401Y-108521034D01*
X113059294Y-108779014D01*
X113244866Y-109005134D01*
X113470986Y-109190706D01*
X113525791Y-109220000D01*
X113470986Y-109249294D01*
X113244866Y-109434866D01*
X113059294Y-109660986D01*
X112921401Y-109918966D01*
X112836487Y-110198889D01*
X112807815Y-110490000D01*
X112836487Y-110781111D01*
X112921401Y-111061034D01*
X113059294Y-111319014D01*
X113244866Y-111545134D01*
X113470986Y-111730706D01*
X113535523Y-111765201D01*
X113418645Y-111834822D01*
X113202412Y-112029731D01*
X113028359Y-112263080D01*
X112903175Y-112525901D01*
X112858524Y-112673110D01*
X112979845Y-112903000D01*
X114173000Y-112903000D01*
X114173000Y-112883000D01*
X114427000Y-112883000D01*
X114427000Y-112903000D01*
X114447000Y-112903000D01*
X114447000Y-113157000D01*
X114427000Y-113157000D01*
X114427000Y-114350814D01*
X114656891Y-114471481D01*
X114931252Y-114374157D01*
X115181355Y-114225178D01*
X115397588Y-114030269D01*
X115568416Y-113801244D01*
X115599294Y-113859014D01*
X115784866Y-114085134D01*
X116010986Y-114270706D01*
X116268966Y-114408599D01*
X116548889Y-114493513D01*
X116767050Y-114515000D01*
X116912950Y-114515000D01*
X117131111Y-114493513D01*
X117411034Y-114408599D01*
X117669014Y-114270706D01*
X117895134Y-114085134D01*
X118080706Y-113859014D01*
X118218599Y-113601034D01*
X118303513Y-113321111D01*
X118332185Y-113030000D01*
X118303513Y-112738889D01*
X118218599Y-112458966D01*
X118080706Y-112200986D01*
X117895134Y-111974866D01*
X117669014Y-111789294D01*
X117614209Y-111760000D01*
X117669014Y-111730706D01*
X117895134Y-111545134D01*
X118080706Y-111319014D01*
X118218599Y-111061034D01*
X118303513Y-110781111D01*
X118332185Y-110490000D01*
X118303513Y-110198889D01*
X118218599Y-109918966D01*
X118080706Y-109660986D01*
X117895134Y-109434866D01*
X117669014Y-109249294D01*
X117614209Y-109220000D01*
X117669014Y-109190706D01*
X117895134Y-109005134D01*
X118080706Y-108779014D01*
X118218599Y-108521034D01*
X118303513Y-108241111D01*
X118332185Y-107950000D01*
X118303513Y-107658889D01*
X118218599Y-107378966D01*
X118080706Y-107120986D01*
X117895134Y-106894866D01*
X117669014Y-106709294D01*
X117614209Y-106680000D01*
X117669014Y-106650706D01*
X117895134Y-106465134D01*
X118080706Y-106239014D01*
X118218599Y-105981034D01*
X118303513Y-105701111D01*
X118332185Y-105410000D01*
X118303513Y-105118889D01*
X118218599Y-104838966D01*
X118080706Y-104580986D01*
X117895134Y-104354866D01*
X117669014Y-104169294D01*
X117614209Y-104140000D01*
X117669014Y-104110706D01*
X117895134Y-103925134D01*
X118080706Y-103699014D01*
X118218599Y-103441034D01*
X118303513Y-103161111D01*
X118332185Y-102870000D01*
X118303513Y-102578889D01*
X118218599Y-102298966D01*
X118080706Y-102040986D01*
X117895134Y-101814866D01*
X117669014Y-101629294D01*
X117614209Y-101600000D01*
X117669014Y-101570706D01*
X117895134Y-101385134D01*
X118080706Y-101159014D01*
X118218599Y-100901034D01*
X118303513Y-100621111D01*
X118332185Y-100330000D01*
X118303513Y-100038889D01*
X118218599Y-99758966D01*
X118080706Y-99500986D01*
X117895134Y-99274866D01*
X117669014Y-99089294D01*
X117614209Y-99060000D01*
X117669014Y-99030706D01*
X117895134Y-98845134D01*
X118080706Y-98619014D01*
X118218599Y-98361034D01*
X118303513Y-98081111D01*
X118332185Y-97790000D01*
X118303513Y-97498889D01*
X118218599Y-97218966D01*
X118080706Y-96960986D01*
X117895134Y-96734866D01*
X117669014Y-96549294D01*
X117614209Y-96520000D01*
X117669014Y-96490706D01*
X117895134Y-96305134D01*
X118080706Y-96079014D01*
X118218599Y-95821034D01*
X118303513Y-95541111D01*
X118332185Y-95250000D01*
X118303513Y-94958889D01*
X118218599Y-94678966D01*
X118200444Y-94645001D01*
X121670200Y-94645001D01*
X132536200Y-105511002D01*
X132559999Y-105540001D01*
X132675724Y-105634974D01*
X132807753Y-105705546D01*
X132951014Y-105749003D01*
X133062667Y-105760000D01*
X133062676Y-105760000D01*
X133099999Y-105763676D01*
X133137322Y-105760000D01*
X146585199Y-105760000D01*
X155735198Y-114910000D01*
X112420000Y-114910000D01*
X112420000Y-113386890D01*
X112858524Y-113386890D01*
X112903175Y-113534099D01*
X113028359Y-113796920D01*
X113202412Y-114030269D01*
X113418645Y-114225178D01*
X113668748Y-114374157D01*
X113943109Y-114471481D01*
X114173000Y-114350814D01*
X114173000Y-113157000D01*
X112979845Y-113157000D01*
X112858524Y-113386890D01*
X112420000Y-113386890D01*
X112420000Y-75590000D01*
X180950000Y-75590000D01*
X180950001Y-114910000D01*
G36*
X132292548Y-97867350D02*
G01*
X132222552Y-97905680D01*
X132126669Y-97986007D01*
X132048300Y-98083497D01*
X131990456Y-98194403D01*
X131955360Y-98314462D01*
X131944361Y-98439062D01*
X131947400Y-99396850D01*
X132106150Y-99555600D01*
X132644328Y-99555600D01*
X132644328Y-99809600D01*
X132106150Y-99809600D01*
X131947400Y-99968350D01*
X131944361Y-100926138D01*
X131955360Y-101050738D01*
X131990456Y-101170797D01*
X132048300Y-101281703D01*
X132126669Y-101379193D01*
X132222552Y-101459520D01*
X132332263Y-101519599D01*
X132451587Y-101557119D01*
X132550650Y-101567600D01*
X132630398Y-101487852D01*
X132630398Y-101567600D01*
X132697400Y-101567600D01*
X132697400Y-102720077D01*
X132693724Y-102757400D01*
X132697400Y-102794722D01*
X132697400Y-102794732D01*
X132708397Y-102906385D01*
X132724661Y-102960000D01*
X132751854Y-103049646D01*
X132822426Y-103181676D01*
X132831206Y-103192374D01*
X132917399Y-103297401D01*
X132946403Y-103321204D01*
X133865198Y-104240000D01*
X133414802Y-104240000D01*
X122548805Y-93374004D01*
X122525002Y-93345000D01*
X122409277Y-93250027D01*
X122277248Y-93179455D01*
X122133987Y-93135998D01*
X122022334Y-93125001D01*
X122022323Y-93125001D01*
X121985001Y-93121325D01*
X121947679Y-93125001D01*
X118265931Y-93125001D01*
X118303513Y-93001111D01*
X118332185Y-92710000D01*
X118303513Y-92418889D01*
X118218599Y-92138966D01*
X118080706Y-91880986D01*
X117895134Y-91654866D01*
X117669014Y-91469294D01*
X117614209Y-91440000D01*
X117669014Y-91410706D01*
X117895134Y-91225134D01*
X118080706Y-90999014D01*
X118218599Y-90741034D01*
X118303513Y-90461111D01*
X118332185Y-90170000D01*
X118303513Y-89878889D01*
X118237114Y-89660000D01*
X124085199Y-89660000D01*
X132292548Y-97867350D01*
X132292548Y-97867350D01*
G37*
X132292548Y-97867350D02*
X132222552Y-97905680D01*
X132126669Y-97986007D01*
X132048300Y-98083497D01*
X131990456Y-98194403D01*
X131955360Y-98314462D01*
X131944361Y-98439062D01*
X131947400Y-99396850D01*
X132106150Y-99555600D01*
X132644328Y-99555600D01*
X132644328Y-99809600D01*
X132106150Y-99809600D01*
X131947400Y-99968350D01*
X131944361Y-100926138D01*
X131955360Y-101050738D01*
X131990456Y-101170797D01*
X132048300Y-101281703D01*
X132126669Y-101379193D01*
X132222552Y-101459520D01*
X132332263Y-101519599D01*
X132451587Y-101557119D01*
X132550650Y-101567600D01*
X132630398Y-101487852D01*
X132630398Y-101567600D01*
X132697400Y-101567600D01*
X132697400Y-102720077D01*
X132693724Y-102757400D01*
X132697400Y-102794722D01*
X132697400Y-102794732D01*
X132708397Y-102906385D01*
X132724661Y-102960000D01*
X132751854Y-103049646D01*
X132822426Y-103181676D01*
X132831206Y-103192374D01*
X132917399Y-103297401D01*
X132946403Y-103321204D01*
X133865198Y-104240000D01*
X133414802Y-104240000D01*
X122548805Y-93374004D01*
X122525002Y-93345000D01*
X122409277Y-93250027D01*
X122277248Y-93179455D01*
X122133987Y-93135998D01*
X122022334Y-93125001D01*
X122022323Y-93125001D01*
X121985001Y-93121325D01*
X121947679Y-93125001D01*
X118265931Y-93125001D01*
X118303513Y-93001111D01*
X118332185Y-92710000D01*
X118303513Y-92418889D01*
X118218599Y-92138966D01*
X118080706Y-91880986D01*
X117895134Y-91654866D01*
X117669014Y-91469294D01*
X117614209Y-91440000D01*
X117669014Y-91410706D01*
X117895134Y-91225134D01*
X118080706Y-90999014D01*
X118218599Y-90741034D01*
X118303513Y-90461111D01*
X118332185Y-90170000D01*
X118303513Y-89878889D01*
X118237114Y-89660000D01*
X124085199Y-89660000D01*
X132292548Y-97867350D01*
G36*
X159037124Y-87003626D02*
G01*
X158921399Y-87098599D01*
X158897601Y-87127597D01*
X144585199Y-101440000D01*
X141015548Y-101440000D01*
X141088131Y-101379193D01*
X141166500Y-101281703D01*
X141224344Y-101170797D01*
X141259440Y-101050738D01*
X141270439Y-100926138D01*
X141267400Y-99968350D01*
X141108650Y-99809600D01*
X140570472Y-99809600D01*
X140570472Y-99555600D01*
X141108650Y-99555600D01*
X141267400Y-99396850D01*
X141270439Y-98439062D01*
X141259440Y-98314462D01*
X141224344Y-98194403D01*
X141166500Y-98083497D01*
X141088131Y-97986007D01*
X140992248Y-97905680D01*
X140882537Y-97845601D01*
X140763213Y-97808081D01*
X140735000Y-97805096D01*
X140735000Y-97688061D01*
X140695226Y-97488102D01*
X140617205Y-97299744D01*
X140503937Y-97130226D01*
X140359774Y-96986063D01*
X140190256Y-96872795D01*
X140001898Y-96794774D01*
X139801939Y-96755000D01*
X139598061Y-96755000D01*
X139398102Y-96794774D01*
X139209744Y-96872795D01*
X139040226Y-96986063D01*
X138896063Y-97130226D01*
X138878190Y-97156974D01*
X138817205Y-97009744D01*
X138703937Y-96840226D01*
X138559774Y-96696063D01*
X138390256Y-96582795D01*
X138201898Y-96504774D01*
X138001939Y-96465000D01*
X137798061Y-96465000D01*
X137598102Y-96504774D01*
X137409744Y-96582795D01*
X137240226Y-96696063D01*
X137096063Y-96840226D01*
X137017400Y-96957954D01*
X137017400Y-94794722D01*
X137021076Y-94757399D01*
X137017400Y-94720076D01*
X137017400Y-94720067D01*
X137006403Y-94608414D01*
X136962946Y-94465153D01*
X136925984Y-94396003D01*
X136892374Y-94333123D01*
X136821199Y-94246397D01*
X136797401Y-94217399D01*
X136768403Y-94193601D01*
X133356290Y-90781488D01*
X133409744Y-90817205D01*
X133598102Y-90895226D01*
X133798061Y-90935000D01*
X134001939Y-90935000D01*
X134201898Y-90895226D01*
X134390256Y-90817205D01*
X134559774Y-90703937D01*
X134703937Y-90559774D01*
X134817205Y-90390256D01*
X134895226Y-90201898D01*
X134935000Y-90001939D01*
X134935000Y-89939801D01*
X137876202Y-86998600D01*
X159046527Y-86998600D01*
X159037124Y-87003626D01*
X159037124Y-87003626D01*
G37*
X159037124Y-87003626D02*
X158921399Y-87098599D01*
X158897601Y-87127597D01*
X144585199Y-101440000D01*
X141015548Y-101440000D01*
X141088131Y-101379193D01*
X141166500Y-101281703D01*
X141224344Y-101170797D01*
X141259440Y-101050738D01*
X141270439Y-100926138D01*
X141267400Y-99968350D01*
X141108650Y-99809600D01*
X140570472Y-99809600D01*
X140570472Y-99555600D01*
X141108650Y-99555600D01*
X141267400Y-99396850D01*
X141270439Y-98439062D01*
X141259440Y-98314462D01*
X141224344Y-98194403D01*
X141166500Y-98083497D01*
X141088131Y-97986007D01*
X140992248Y-97905680D01*
X140882537Y-97845601D01*
X140763213Y-97808081D01*
X140735000Y-97805096D01*
X140735000Y-97688061D01*
X140695226Y-97488102D01*
X140617205Y-97299744D01*
X140503937Y-97130226D01*
X140359774Y-96986063D01*
X140190256Y-96872795D01*
X140001898Y-96794774D01*
X139801939Y-96755000D01*
X139598061Y-96755000D01*
X139398102Y-96794774D01*
X139209744Y-96872795D01*
X139040226Y-96986063D01*
X138896063Y-97130226D01*
X138878190Y-97156974D01*
X138817205Y-97009744D01*
X138703937Y-96840226D01*
X138559774Y-96696063D01*
X138390256Y-96582795D01*
X138201898Y-96504774D01*
X138001939Y-96465000D01*
X137798061Y-96465000D01*
X137598102Y-96504774D01*
X137409744Y-96582795D01*
X137240226Y-96696063D01*
X137096063Y-96840226D01*
X137017400Y-96957954D01*
X137017400Y-94794722D01*
X137021076Y-94757399D01*
X137017400Y-94720076D01*
X137017400Y-94720067D01*
X137006403Y-94608414D01*
X136962946Y-94465153D01*
X136925984Y-94396003D01*
X136892374Y-94333123D01*
X136821199Y-94246397D01*
X136797401Y-94217399D01*
X136768403Y-94193601D01*
X133356290Y-90781488D01*
X133409744Y-90817205D01*
X133598102Y-90895226D01*
X133798061Y-90935000D01*
X134001939Y-90935000D01*
X134201898Y-90895226D01*
X134390256Y-90817205D01*
X134559774Y-90703937D01*
X134703937Y-90559774D01*
X134817205Y-90390256D01*
X134895226Y-90201898D01*
X134935000Y-90001939D01*
X134935000Y-89939801D01*
X137876202Y-86998600D01*
X159046527Y-86998600D01*
X159037124Y-87003626D01*
M02*
