<?xml version="1.0" encoding="utf-8"?><!DOCTYPE svg PUBLIC "-//W3C//DTD SVG 1.1//EN" "http://www.w3.org/Graphics/SVG/1.1/DTD/svg11.dtd"><svg id="exclam" width="128" height="128" style="width:128px;height:128px;" version="1.1" xmlns="http://www.w3.org/2000/svg" viewBox="0 0 1024 1024" enable-background="new 0 0 1024 1024" xml:space="preserve"><path fill="#666" d="M1017 521.85 q0 -52.56 0 -92.75 q0 -40.19 -16.49 -89.66 q-57.71 -159.73 -190.65 -255.06 q-132.94 -95.33 -219.51 -82.96 q-86.57 12.37 -86.57 45.34 q112.33 49.47 174.68 91.21 q62.35 41.74 156.13 129.33 q49.47 69.05 85.54 125.73 q36.07 56.68 63.89 133.98 l32.98 -5.16 ZM823.25 791.86 q19.59 0 37.63 4.12 q18.03 4.12 34.51 -4.12 q57.72 -38.13 63.39 -90.69 q5.66 -52.56 -13.92 -108.21 q-46.37 -154.58 -149.95 -281.34 q-103.57 -126.76 -253 -192.72 q-80.38 -39.16 -161.79 -53.07 q-81.42 -13.91 -147.38 69.56 q-8.24 13.4 -4.12 31.44 q4.12 18.04 4.12 34.53 q57.72 16.49 113.37 23.71 q55.65 7.22 113.36 25.76 q176.22 72.13 263.31 215.9 q87.08 143.76 100.47 325.14 ZM161.64 85.93 q-44.32 51.52 -74.72 94.81 q-30.4 43.28 -53.07 109.25 q-74.2 270 56.68 481.26 q130.88 211.26 410.16 252.49 q132.94 3.1 239.09 -29.88 q106.15 -32.98 205.08 -124.7 l-27.82 -26.79 q-112.34 93.78 -231.37 129.33 q-119.02 35.56 -265.36 -2.57 q-289.59 -93.79 -358.64 -363.28 q-69.05 -269.49 31.95 -381.31 q101 -111.82 68.02 -138.61 ZM752.15 896.98 q2.06 -36.07 6.18 -71.63 q4.12 -35.56 4.12 -71.63 q-8.24 -141.19 -92.23 -262.8 q-83.99 -121.6 -210.75 -179.31 q-55.65 -27.83 -138.1 -45.35 q-82.44 -17.52 -143.25 23.71 q-80.38 62.86 -88.63 153.03 q-8.25 90.18 77.29 156.13 q54.62 38.14 61.84 25.77 q7.22 -12.37 81.42 18.55 q77.29 38.13 88.62 105.63 q11.34 67.5 -22.67 136.55 q52.56 42.25 62.35 44.83 q9.79 2.58 81.93 5.67 q36.07 -121.61 22.15 -212.81 q-13.91 -91.21 -115.93 -184.99 q-22.67 -19.58 -57.2 -36.07 q-34.52 -16.49 -64.41 -24.73 q-14.42 -3.09 -27.82 -1.55 q-13.4 1.55 -27.83 -3.61 q-8.24 -3.1 -10.81 -11.34 q-2.58 -8.24 -4.13 -12.37 q-1.55 -4.13 16.48 -23.7 q18.03 -19.58 78.84 0 q60.81 19.58 102.02 47.41 q110.27 71.1 154.58 184.47 q44.32 113.37 27.83 176.75 q-16.49 63.38 8.25 73.17 q24.74 9.79 52.56 9.79 q27.82 0 77.29 -19.58 ZM224.5 720.24 q-24.73 22.15 -22.16 52.56 q2.57 30.4 22.16 46.89 q19.58 16.49 41.74 16.49 q22.15 0 41.22 -13.91 q19.07 -13.91 24.74 -41.22 q5.67 -27.31 0 -41.22 q-5.67 -13.92 -22.16 -27.83 q-16.49 -13.91 -38.65 -13.91 q-22.16 0 -46.89 22.15 Z"/></svg>